{
.appVersion = "895";
copyright = "Copyright 2016 Google Inc. All Rights Reserved.";
customParameters = (
{
name = description;
value = "Data unhinted. Designed by Monotype design team.";
},
{
name = license;
value = "This Font Software is licensed under the SIL Open Font License, Version 1.1. This Font Software is distributed on an \"AS IS\" BASIS, WITHOUT WARRANTIES OR CONDITIONS OF ANY KIND, either express or implied. See the SIL Open Font License for the specific language, permissions and limitations governing your use of this Font Software.";
},
{
name = licenseURL;
value = "http://scripts.sil.org/OFL";
},
{
name = vendorID;
value = GOOG;
},
{
name = panose;
value = (
2,
11,
5,
2,
4,
5,
4,
2,
2,
4
);
},
{
name = codePageRanges;
value = (
1252
);
},
{
name = glyphOrder;
value = (
.notdef,
null,
uni000D,
space,
ZWSP,
uni200C,
uni200D,
uni25CC,
jv_Panyangga,
jv_Cecak,
jv_Lay,
jv_Wig,
jv_A,
jv_Ik,
jv_I,
jv_II,
jv_U,
jv_vocR,
jv_vocL,
jv_vocLL,
jv_E,
jv_AI,
jv_O,
jv_Ka,
jv_Qa,
jv_Ka_mu,
jv_Ga,
jv_Ga_mu,
jv_Nga,
jv_Ca,
jv_Ca_mu,
jv_Ja,
jv_Nya_mu,
jv_Jha,
jv_Nya,
jv_Tha,
jv_Ttha,
jv_Dda,
jv_Ddha,
jv_Na_mu,
jv_Ta,
jv_Ta_mu,
jv_Da,
jv_Dha,
jv_Na,
jv_Pa,
jv_Pa_mu,
jv_Ba,
jv_Ba_mu,
jv_Ma,
jv_Ya,
jv_Ra,
jv_RaAgung,
jv_La,
jv_Wa,
jv_Sa_mu,
jv_Ssa_mu,
jv_Sa,
jv_Ha,
jv_CT,
jv_v_aa,
jv_v_o,
jv_v_i,
jv_v_ii,
jv_v_u,
jv_v_uu,
jv_v_e,
jv_v_ai,
jv_v_ae,
jv_c_vocR,
jv_c_medYa,
jv_c_medRa,
jv_Pangkon,
jv_Rer_l,
jv_Rer_r,
jv_p_An,
jv_p_Ma,
jv_p_Luh,
jv_p_Wi,
jv_p_Pa,
jv_p_Li,
jv_p_Lun,
jv_p_Ad,
jv_p_AdAd,
jv_p_PiselehOpen,
jv_p_PiselehClose,
jv_Pangrangkep,
jv_zero,
jv_one,
jv_two,
jv_three,
jv_four,
jv_five,
jv_six,
jv_seven,
jv_eight,
jv_nine,
jv_p_TiTu,
jv_p_IsIs,
jv_Ha_pas,
jv_Na_pas,
jv_Ca_pas,
jv_Ra_pas,
jv_Ka_pas,
jv_Da_pas,
jv_Ta_pas,
jv_Sa_pas,
jv_Wa_pas,
jv_La_pas,
jv_Pa_pas,
jv_Dda_pas,
jv_Ja_pas,
jv_Ya_pas,
jv_Nya_pas,
jv_Ma_pas,
jv_Ga_pas,
jv_Ba_pas,
jv_Tha_pas,
jv_Nga_pas,
jv_Nga_pas_u,
jv_Na_mu_pas,
jv_Ka_mu_pas,
jv_Ta_mu_pas,
jv_Sa_mu_pas,
jv_Ssa_mu_pas,

glyphs = (
{
glyphname = .notdef;
lastChange = "2016-11-10 17:42:50 +0000";
layers = (
{
layerId = "FB35F625-CAB4-4F3A-B203-D3E168293E5E";
paths = (
{
closed = 1;
nodes = (
"1034 0 LINE",
"1034 1462 LINE",
"193 1462 LINE",
"193 0 LINE"
);
},
{
closed = 1;
nodes = (
"297 1358 LINE",
"930 1358 LINE",
"930 104 LINE",
"297 104 LINE"
);
}
);
width = 1229;
}
);
note = .notdef;
},
{
glyphname = uni200C;
lastChange = "2016-11-10 17:42:50 +0000";
layers = (
{
layerId = "FB35F625-CAB4-4F3A-B203-D3E168293E5E";
paths = (
{
closed = 1;
nodes = (
"36 183 LINE",
"36 1667 LINE",
"-36 1667 LINE",
"-36 183 LINE"
);
}
);
width = 0;
}
);
note = uni200C;
unicode = 200C;
},
{
glyphname = uni200D;
lastChange = "2016-11-10 17:42:50 +0000";
layers = (
{
layerId = "FB35F625-CAB4-4F3A-B203-D3E168293E5E";
paths = (
{
closed = 1;
nodes = (
"36 183 LINE",
"36 1368 LINE",
"170 1232 LINE",
"219 1281 LINE",
"48 1450 LINE",
"219 1618 LINE",
"170 1667 LINE",
"0 1496 LINE",
"-170 1667 LINE",
"-219 1618 LINE",
"-48 1450 LINE",
"-219 1281 LINE",
"-170 1232 LINE",
"-36 1368 LINE",
"-36 183 LINE"
);
}
);
width = 0;
}
);
note = uni200D;
unicode = 200D;
},
{
glyphname = uni25CC;
lastChange = "2016-11-10 17:42:50 +0000";
layers = (
{
layerId = "FB35F625-CAB4-4F3A-B203-D3E168293E5E";
paths = (
{
closed = 1;
nodes = (
"918 579 OFFCURVE",
"938 599 OFFCURVE",
"938 638 CURVE SMOOTH",
"938 677 OFFCURVE",
"918 697 OFFCURVE",
"878 697 CURVE SMOOTH",
"839 697 OFFCURVE",
"819 677 OFFCURVE",
"819 638 CURVE SMOOTH",
"819 599 OFFCURVE",
"839 579 OFFCURVE",
"878 579 CURVE SMOOTH"
);
},
{
closed = 1;
nodes = (
"296 324 OFFCURVE",
"316 344 OFFCURVE",
"316 383 CURVE SMOOTH",
"316 422 OFFCURVE",
"296 442 OFFCURVE",
"257 442 CURVE SMOOTH",
"218 442 OFFCURVE",
"198 422 OFFCURVE",
"198 383 CURVE SMOOTH",
"198 344 OFFCURVE",
"218 324 OFFCURVE",
"257 324 CURVE SMOOTH"
);
},
{
closed = 1;
nodes = (
"204 579 OFFCURVE",
"224 599 OFFCURVE",
"224 638 CURVE SMOOTH",
"224 677 OFFCURVE",
"204 697 OFFCURVE",
"165 697 CURVE SMOOTH",
"126 697 OFFCURVE",
"106 677 OFFCURVE",
"106 638 CURVE SMOOTH",
"106 599 OFFCURVE",
"126 579 OFFCURVE",
"165 579 CURVE SMOOTH"
);
},
{
closed = 1;
nodes = (
"561 222 OFFCURVE",
"581 242 OFFCURVE",
"581 281 CURVE SMOOTH",
"581 320 OFFCURVE",
"561 340 OFFCURVE",
"521 340 CURVE SMOOTH",
"482 340 OFFCURVE",
"463 320 OFFCURVE",
"463 281 CURVE SMOOTH",
"463 242 OFFCURVE",
"482 222 OFFCURVE",
"521 222 CURVE SMOOTH"
);
},
{
closed = 1;
nodes = (
"296 834 OFFCURVE",
"316 854 OFFCURVE",
"316 893 CURVE SMOOTH",
"316 932 OFFCURVE",
"296 952 OFFCURVE",
"257 952 CURVE SMOOTH",
"218 952 OFFCURVE",
"198 932 OFFCURVE",
"198 893 CURVE SMOOTH",
"198 854 OFFCURVE",
"218 834 OFFCURVE",
"257 834 CURVE SMOOTH"
);
},
{
closed = 1;
nodes = (
"826 324 OFFCURVE",
"846 344 OFFCURVE",
"846 383 CURVE SMOOTH",
"846 422 OFFCURVE",
"826 442 OFFCURVE",
"787 442 CURVE SMOOTH",
"748 442 OFFCURVE",
"728 422 OFFCURVE",
"728 383 CURVE SMOOTH",
"728 344 OFFCURVE",
"748 324 OFFCURVE",
"787 324 CURVE SMOOTH"
);
},
{
closed = 1;
nodes = (
"561 936 OFFCURVE",
"581 956 OFFCURVE",
"581 995 CURVE SMOOTH",
"581 1034 OFFCURVE",
"561 1053 OFFCURVE",
"521 1053 CURVE SMOOTH",
"482 1053 OFFCURVE",
"463 1034 OFFCURVE",
"463 995 CURVE SMOOTH",
"463 956 OFFCURVE",
"482 936 OFFCURVE",
"521 936 CURVE SMOOTH"
);
},
{
closed = 1;
nodes = (
"826 834 OFFCURVE",
"846 854 OFFCURVE",
"846 893 CURVE SMOOTH",
"846 932 OFFCURVE",
"826 952 OFFCURVE",
"787 952 CURVE SMOOTH",
"748 952 OFFCURVE",
"728 932 OFFCURVE",
"728 893 CURVE SMOOTH",
"728 854 OFFCURVE",
"748 834 OFFCURVE",
"787 834 CURVE SMOOTH"
);
}
);
width = 1044;
}
);
note = uni25CC;
unicode = 25CC;
},
{
glyphname = jv_Panyangga;
lastChange = "2016-11-10 17:42:50 +0000";
layers = (
{
layerId = "FB35F625-CAB4-4F3A-B203-D3E168293E5E";
paths = (
{
closed = 1;
nodes = (
"992 1318 OFFCURVE",
"1170 1445 OFFCURVE",
"1170 1706 CURVE",
"1161 1713 OFFCURVE",
"1142 1716 OFFCURVE",
"1113 1716 CURVE SMOOTH",
"1088 1716 OFFCURVE",
"1067 1713 OFFCURVE",
"1050 1706 CURVE",
"1050 1619 OFFCURVE",
"1024 1555 OFFCURVE",
"971 1514 CURVE",
"974 1551 LINE",
"974 1700 OFFCURVE",
"823 1821 OFFCURVE",
"643 1821 CURVE SMOOTH",
"464 1821 OFFCURVE",
"274 1698 OFFCURVE",
"217 1547 CURVE",
"186 1580 OFFCURVE",
"170 1623 OFFCURVE",
"170 1676 CURVE",
"158 1685 OFFCURVE",
"132 1690 OFFCURVE",
"93 1690 CURVE SMOOTH",
"51 1690 OFFCURVE",
"20 1685 OFFCURVE",
"0 1676 CURVE",
"0 1447 OFFCURVE",
"198 1318 OFFCURVE",
"591 1318 CURVE SMOOTH"
);
},
{
closed = 1;
nodes = (
"527 1434 OFFCURVE",
"430 1446 OFFCURVE",
"397 1463 CURVE",
"400 1582 OFFCURVE",
"537 1708 OFFCURVE",
"664 1708 CURVE SMOOTH",
"763 1708 OFFCURVE",
"858 1624 OFFCURVE",
"858 1541 CURVE SMOOTH",
"858 1470 OFFCURVE",
"781 1434 OFFCURVE",
"626 1434 CURVE SMOOTH"
);
}
);
width = 0;
}
);
note = jv_Panyangga;
unicode = A980;
},
{
glyphname = jv_Cecak;
lastChange = "2016-11-10 17:42:50 +0000";
layers = (
{
layerId = "FB35F625-CAB4-4F3A-B203-D3E168293E5E";
paths = (
{
closed = 1;
nodes = (
"310 1182 OFFCURVE",
"397 1266 OFFCURVE",
"397 1369 CURVE SMOOTH",
"397 1472 OFFCURVE",
"310 1556 OFFCURVE",
"199 1556 CURVE SMOOTH",
"87 1556 OFFCURVE",
"0 1472 OFFCURVE",
"0 1369 CURVE SMOOTH",
"0 1265 OFFCURVE",
"88 1182 OFFCURVE",
"199 1182 CURVE SMOOTH"
);
}
);
width = 0;
}
);
note = jv_Cecak;
unicode = A981;
},
{
glyphname = jv_Lay;
lastChange = "2016-11-10 17:42:50 +0000";
layers = (
{
layerId = "FB35F625-CAB4-4F3A-B203-D3E168293E5E";
paths = (
{
closed = 1;
nodes = (
"358 1510 OFFCURVE",
"644 1673 OFFCURVE",
"940 1673 CURVE SMOOTH",
"954 1673 LINE",
"959 1688 OFFCURVE",
"961 1709 OFFCURVE",
"961 1736 CURVE SMOOTH",
"961 1765 OFFCURVE",
"959 1787 OFFCURVE",
"954 1803 CURVE",
"847 1803 OFFCURVE",
"742 1786 OFFCURVE",
"640 1751 CURVE SMOOTH",
"435 1682 OFFCURVE",
"267 1560 OFFCURVE",
"0 1264 CURVE",
"25 1223 OFFCURVE",
"42 1206 OFFCURVE",
"81 1183 CURVE"
);
}
);
width = 0;
}
);
note = jv_Lay;
unicode = A982;
},
{
glyphname = jv_Wig;
lastChange = "2016-11-10 17:42:50 +0000";
layers = (
{
layerId = "FB35F625-CAB4-4F3A-B203-D3E168293E5E";
paths = (
{
closed = 1;
nodes = (
"532 -937 OFFCURVE",
"630 -714 OFFCURVE",
"630 -449 CURVE SMOOTH",
"630 -134 OFFCURVE",
"488 59 OFFCURVE",
"223 126 CURVE",
"407 310 OFFCURVE",
"543 606 OFFCURVE",
"543 809 CURVE SMOOTH",
"543 996 OFFCURVE",
"436 1118 OFFCURVE",
"267 1118 CURVE SMOOTH",
"102 1118 OFFCURVE",
"0 999 OFFCURVE",
"0 818 CURVE SMOOTH",
"0 647 OFFCURVE",
"104 531 OFFCURVE",
"293 500 CURVE",
"216 331 OFFCURVE",
"120 206 OFFCURVE",
"33 151 CURVE",
"28 132 OFFCURVE",
"25 109 OFFCURVE",
"25 84 CURVE SMOOTH",
"25 59 OFFCURVE",
"28 31 OFFCURVE",
"33 0 CURVE",
"43 0 LINE SMOOTH",
"344 0 OFFCURVE",
"515 -167 OFFCURVE",
"515 -464 CURVE SMOOTH",
"515 -681 OFFCURVE",
"416 -893 OFFCURVE",
"251 -1033 CURVE",
"259 -1064 OFFCURVE",
"304 -1109 OFFCURVE",
"336 -1118 CURVE"
);
},
{
closed = 1;
nodes = (
"192 634 OFFCURVE",
"118 702 OFFCURVE",
"118 825 CURVE SMOOTH",
"118 929 OFFCURVE",
"169 998 OFFCURVE",
"245 998 CURVE SMOOTH",
"325 998 OFFCURVE",
"373 924 OFFCURVE",
"373 811 CURVE SMOOTH",
"373 756 OFFCURVE",
"362 693 OFFCURVE",
"339 621 CURVE"
);
}
);
width = 630;
}
);
note = jv_Wig;
unicode = A983;
},
{
glyphname = jv_A;
lastChange = "2016-11-10 17:42:50 +0000";
layers = (
{
layerId = "FB35F625-CAB4-4F3A-B203-D3E168293E5E";
paths = (
{
closed = 1;
nodes = (
"1367 0 OFFCURVE",
"1370 18 OFFCURVE",
"1370 35 CURVE SMOOTH",
"1370 52 OFFCURVE",
"1367 71 OFFCURVE",
"1362 94 CURVE",
"1327 97 OFFCURVE",
"1295 127 OFFCURVE",
"1295 184 CURVE SMOOTH",
"1295 243 OFFCURVE",
"1330 272 OFFCURVE",
"1400 272 CURVE SMOOTH",
"1482 272 OFFCURVE",
"1566 223 OFFCURVE",
"1652 126 CURVE SMOOTH",
"1738 29 OFFCURVE",
"1821 -20 OFFCURVE",
"1900 -20 CURVE SMOOTH",
"2053 -20 OFFCURVE",
"2151 142 OFFCURVE",
"2151 383 CURVE SMOOTH",
"2151 488 LINE",
"2566 488 LINE",
"2566 0 LINE",
"2736 0 LINE",
"2736 486 LINE",
"2909 473 OFFCURVE",
"3001 379 OFFCURVE",
"3022 175 CURVE",
"3045 170 OFFCURVE",
"3064 167 OFFCURVE",
"3080 167 CURVE SMOOTH",
"3095 167 OFFCURVE",
"3114 170 OFFCURVE",
"3137 175 CURVE",
"3104 471 OFFCURVE",
"2969 602 OFFCURVE",
"2736 602 CURVE",
"2736 715 LINE SMOOTH",
"2736 983 OFFCURVE",
"2625 1118 OFFCURVE",
"2413 1118 CURVE SMOOTH",
"2178 1118 OFFCURVE",
"2035 945 OFFCURVE",
"2035 654 CURVE SMOOTH",
"2035 632 LINE",
"2036 601 LINE",
"1885 601 OFFCURVE",
"1826 642 OFFCURVE",
"1826 721 CURVE SMOOTH",
"1826 789 OFFCURVE",
"1869 821 OFFCURVE",
"1992 852 CURVE",
"1993 861 LINE",
"1993 869 LINE SMOOTH",
"1993 898 OFFCURVE",
"1984 926 OFFCURVE",
"1965 951 CURVE",
"1756 890 OFFCURVE",
"1685 812 OFFCURVE",
"1685 689 CURVE SMOOTH",
"1685 553 OFFCURVE",
"1780 497 OFFCURVE",
"2037 489 CURVE",
"2037 434 LINE SMOOTH",
"2037 315 OFFCURVE",
"2026 232 OFFCURVE",
"2005 185 CURVE SMOOTH",
"1984 137 OFFCURVE",
"1948 113 OFFCURVE",
"1898 113 CURVE SMOOTH",
"1845 113 OFFCURVE",
"1793 145 OFFCURVE",
"1740 209 CURVE SMOOTH",
"1634 337 OFFCURVE",
"1539 377 OFFCURVE",
"1418 377 CURVE SMOOTH",
"1282 377 OFFCURVE",
"1181 292 OFFCURVE",
"1181 175 CURVE SMOOTH",
"1181 70 OFFCURVE",
"1262 -20 OFFCURVE",
"1362 -20 CURVE"
);
},
{
closed = 1;
nodes = (
"883 -20 OFFCURVE",
"1062 118 OFFCURVE",
"1062 289 CURVE SMOOTH",
"1062 378 OFFCURVE",
"1006 441 OFFCURVE",
"893 478 CURVE",
"971 523 OFFCURVE",
"1010 580 OFFCURVE",
"1010 649 CURVE SMOOTH",
"1010 796 OFFCURVE",
"900 896 OFFCURVE",
"744 896 CURVE SMOOTH",
"580 896 OFFCURVE",
"461 792 OFFCURVE",
"461 641 CURVE",
"478 634 OFFCURVE",
"499 631 OFFCURVE",
"524 631 CURVE SMOOTH",
"553 631 OFFCURVE",
"572 634 OFFCURVE",
"581 641 CURVE",
"586 720 OFFCURVE",
"647 776 OFFCURVE",
"724 776 CURVE SMOOTH",
"791 776 OFFCURVE",
"840 732 OFFCURVE",
"840 660 CURVE SMOOTH",
"840 569 OFFCURVE",
"743 522 OFFCURVE",
"550 519 CURVE SMOOTH",
"533 519 LINE",
"526 502 OFFCURVE",
"523 481 OFFCURVE",
"523 457 CURVE SMOOTH",
"523 429 OFFCURVE",
"526 410 OFFCURVE",
"533 401 CURVE",
"552 401 LINE SMOOTH",
"776 398 OFFCURVE",
"888 353 OFFCURVE",
"888 264 CURVE SMOOTH",
"888 173 OFFCURVE",
"789 100 OFFCURVE",
"644 100 CURVE SMOOTH",
"401 100 OFFCURVE",
"227 282 OFFCURVE",
"227 527 CURVE SMOOTH",
"227 839 OFFCURVE",
"454 998 OFFCURVE",
"895 998 CURVE",
"902 1007 OFFCURVE",
"905 1026 OFFCURVE",
"905 1055 CURVE SMOOTH",
"905 1080 OFFCURVE",
"902 1101 OFFCURVE",
"895 1118 CURVE",
"380 1118 OFFCURVE",
"100 893 OFFCURVE",
"100 509 CURVE SMOOTH",
"100 201 OFFCURVE",
"328 -20 OFFCURVE",
"643 -20 CURVE SMOOTH"
);
},
{
closed = 1;
nodes = (
"2150 630 LINE SMOOTH",
"2150 863 OFFCURVE",
"2215 967 OFFCURVE",
"2372 967 CURVE SMOOTH",
"2511 967 OFFCURVE",
"2566 896 OFFCURVE",
"2566 707 CURVE SMOOTH",
"2566 602 LINE",
"2150 602 LINE"
);
}
);
width = 3196;
}
);
note = jv_A;
unicode = A984;
},
{
glyphname = jv_Ik;
lastChange = "2016-11-10 17:42:50 +0000";
layers = (
{
layerId = "FB35F625-CAB4-4F3A-B203-D3E168293E5E";
paths = (
{
closed = 1;
nodes = (
"1057 -418 OFFCURVE",
"1146 -321 OFFCURVE",
"1171 -180 CURVE",
"1146 -161 OFFCURVE",
"1119 -152 OFFCURVE",
"1090 -152 CURVE SMOOTH",
"1082 -152 LINE",
"1073 -153 LINE",
"1061 -244 OFFCURVE",
"1023 -278 OFFCURVE",
"983 -278 CURVE SMOOTH",
"899 -278 OFFCURVE",
"864 -205 OFFCURVE",
"864 -65 CURVE SMOOTH",
"864 32 LINE",
"971 85 OFFCURVE",
"1028 174 OFFCURVE",
"1035 299 CURVE",
"1014 306 OFFCURVE",
"995 309 OFFCURVE",
"976 309 CURVE SMOOTH",
"957 309 OFFCURVE",
"938 306 OFFCURVE",
"920 299 CURVE",
"917 252 OFFCURVE",
"899 215 OFFCURVE",
"864 188 CURVE",
"864 230 LINE SMOOTH",
"864 463 OFFCURVE",
"798 579 OFFCURVE",
"666 579 CURVE SMOOTH",
"558 579 OFFCURVE",
"469 482 OFFCURVE",
"444 341 CURVE",
"469 322 OFFCURVE",
"496 313 OFFCURVE",
"525 313 CURVE SMOOTH",
"533 313 LINE",
"542 314 LINE",
"554 405 OFFCURVE",
"592 439 OFFCURVE",
"632 439 CURVE SMOOTH",
"716 439 OFFCURVE",
"751 366 OFFCURVE",
"751 226 CURVE SMOOTH",
"751 141 LINE",
"718 134 OFFCURVE",
"680 131 OFFCURVE",
"635 131 CURVE SMOOTH",
"423 131 OFFCURVE",
"335 218 OFFCURVE",
"335 391 CURVE SMOOTH",
"335 1098 LINE",
"165 1098 LINE",
"165 383 LINE SMOOTH",
"165 116 OFFCURVE",
"300 -20 OFFCURVE",
"593 -20 CURVE SMOOTH",
"652 -20 OFFCURVE",
"705 -15 OFFCURVE",
"751 -5 CURVE",
"751 -69 LINE SMOOTH",
"751 -302 OFFCURVE",
"817 -418 OFFCURVE",
"949 -418 CURVE SMOOTH"
);
},
{
closed = 1;
nodes = (
"1568 0 LINE",
"1568 715 LINE SMOOTH",
"1568 984 OFFCURVE",
"1469 1118 OFFCURVE",
"1272 1118 CURVE SMOOTH",
"1136 1118 OFFCURVE",
"1040 1054 OFFCURVE",
"984 926 CURVE",
"931 1051 OFFCURVE",
"843 1118 OFFCURVE",
"735 1118 CURVE SMOOTH",
"548 1118 OFFCURVE",
"435 909 OFFCURVE",
"435 661 CURVE SMOOTH",
"435 645 LINE",
"436 630 LINE",
"456 626 OFFCURVE",
"473 624 OFFCURVE",
"487 624 CURVE SMOOTH",
"503 624 OFFCURVE",
"521 627 OFFCURVE",
"540 632 CURVE",
"545 887 OFFCURVE",
"611 967 OFFCURVE",
"736 967 CURVE SMOOTH",
"863 967 OFFCURVE",
"928 880 OFFCURVE",
"932 632 CURVE SMOOTH",
"932 628 LINE",
"952 624 OFFCURVE",
"969 622 OFFCURVE",
"983 622 CURVE SMOOTH",
"999 622 OFFCURVE",
"1017 625 OFFCURVE",
"1036 630 CURVE",
"1036 641 LINE SMOOTH",
"1040 890 OFFCURVE",
"1112 967 OFFCURVE",
"1245 967 CURVE SMOOTH",
"1360 967 OFFCURVE",
"1398 880 OFFCURVE",
"1398 707 CURVE SMOOTH",
"1398 0 LINE"
);
}
);
width = 1728;
}
);
note = jv_Ik;
unicode = A985;
},
{
glyphname = jv_I;
lastChange = "2016-11-10 17:42:50 +0000";
layers = (
{
layerId = "FB35F625-CAB4-4F3A-B203-D3E168293E5E";
paths = (
{
closed = 1;
nodes = (
"1571 0 LINE",
"1571 606 LINE SMOOTH",
"1571 867 OFFCURVE",
"1635 967 OFFCURVE",
"1782 967 CURVE SMOOTH",
"1897 967 OFFCURVE",
"1932 880 OFFCURVE",
"1932 707 CURVE SMOOTH",
"1932 0 LINE",
"2102 0 LINE",
"2102 715 LINE SMOOTH",
"2102 984 OFFCURVE",
"2003 1118 OFFCURVE",
"1806 1118 CURVE SMOOTH",
"1695 1118 OFFCURVE",
"1601 1059 OFFCURVE",
"1545 934 CURVE",
"1538 934 LINE",
"1497 1057 OFFCURVE",
"1409 1118 OFFCURVE",
"1272 1118 CURVE SMOOTH",
"1136 1118 OFFCURVE",
"1040 1054 OFFCURVE",
"984 926 CURVE",
"931 1051 OFFCURVE",
"843 1118 OFFCURVE",
"735 1118 CURVE SMOOTH",
"542 1118 OFFCURVE",
"436 941 OFFCURVE",
"436 630 CURVE",
"456 626 OFFCURVE",
"473 624 OFFCURVE",
"487 624 CURVE SMOOTH",
"503 624 OFFCURVE",
"521 627 OFFCURVE",
"540 632 CURVE",
"545 887 OFFCURVE",
"611 967 OFFCURVE",
"736 967 CURVE SMOOTH",
"863 967 OFFCURVE",
"928 880 OFFCURVE",
"932 632 CURVE SMOOTH",
"932 628 LINE",
"952 624 OFFCURVE",
"969 622 OFFCURVE",
"983 622 CURVE SMOOTH",
"999 622 OFFCURVE",
"1017 625 OFFCURVE",
"1036 630 CURVE",
"1036 641 LINE SMOOTH",
"1040 890 OFFCURVE",
"1112 967 OFFCURVE",
"1245 967 CURVE SMOOTH",
"1353 967 OFFCURVE",
"1403 887 OFFCURVE",
"1403 707 CURVE SMOOTH",
"1403 0 LINE"
);
},
{
closed = 1;
nodes = (
"865 -20 OFFCURVE",
"1027 92 OFFCURVE",
"1035 299 CURVE",
"1014 306 OFFCURVE",
"995 309 OFFCURVE",
"976 309 CURVE SMOOTH",
"957 309 OFFCURVE",
"938 306 OFFCURVE",
"920 299 CURVE",
"913 184 OFFCURVE",
"808 131 OFFCURVE",
"635 131 CURVE SMOOTH",
"423 131 OFFCURVE",
"335 218 OFFCURVE",
"335 391 CURVE SMOOTH",
"335 1098 LINE",
"165 1098 LINE",
"165 383 LINE SMOOTH",
"165 116 OFFCURVE",
"300 -20 OFFCURVE",
"593 -20 CURVE SMOOTH"
);
},
{
closed = 1;
nodes = (
"1880 -632 OFFCURVE",
"1908 -627 OFFCURVE",
"1943 -616 CURVE",
"1943 -580 LINE SMOOTH",
"1943 -480 OFFCURVE",
"1933 -406 OFFCURVE",
"1914 -359 CURVE SMOOTH",
"1874 -265 OFFCURVE",
"1820 -220 OFFCURVE",
"1663 -205 CURVE SMOOTH",
"1584 -198 OFFCURVE",
"1545 -153 OFFCURVE",
"1545 -70 CURVE",
"1524 -63 OFFCURVE",
"1505 -60 OFFCURVE",
"1486 -60 CURVE SMOOTH",
"1467 -60 OFFCURVE",
"1448 -63 OFFCURVE",
"1430 -70 CURVE",
"1430 -214 OFFCURVE",
"1469 -278 OFFCURVE",
"1599 -306 CURVE SMOOTH",
"1729 -334 OFFCURVE",
"1774 -415 OFFCURVE",
"1774 -588 CURVE SMOOTH",
"1774 -616 LINE",
"1809 -627 OFFCURVE",
"1837 -632 OFFCURVE",
"1859 -632 CURVE SMOOTH"
);
}
);
width = 2262;
}
);
note = jv_I;
unicode = A986;
},
{
glyphname = jv_II;
lastChange = "2016-11-10 17:42:50 +0000";
layers = (
{
layerId = "FB35F625-CAB4-4F3A-B203-D3E168293E5E";
paths = (
{
closed = 1;
nodes = (
"1571 0 LINE",
"1571 606 LINE SMOOTH",
"1571 867 OFFCURVE",
"1635 967 OFFCURVE",
"1782 967 CURVE SMOOTH",
"1897 967 OFFCURVE",
"1932 880 OFFCURVE",
"1932 707 CURVE SMOOTH",
"1932 0 LINE",
"2102 0 LINE",
"2102 715 LINE SMOOTH",
"2102 984 OFFCURVE",
"2003 1118 OFFCURVE",
"1806 1118 CURVE SMOOTH",
"1695 1118 OFFCURVE",
"1601 1059 OFFCURVE",
"1545 934 CURVE",
"1538 934 LINE",
"1497 1057 OFFCURVE",
"1409 1118 OFFCURVE",
"1272 1118 CURVE SMOOTH",
"1136 1118 OFFCURVE",
"1040 1054 OFFCURVE",
"984 926 CURVE",
"931 1051 OFFCURVE",
"843 1118 OFFCURVE",
"735 1118 CURVE SMOOTH",
"542 1118 OFFCURVE",
"436 941 OFFCURVE",
"436 630 CURVE",
"456 626 OFFCURVE",
"473 624 OFFCURVE",
"487 624 CURVE SMOOTH",
"503 624 OFFCURVE",
"521 627 OFFCURVE",
"540 632 CURVE",
"545 887 OFFCURVE",
"611 967 OFFCURVE",
"736 967 CURVE SMOOTH",
"863 967 OFFCURVE",
"928 880 OFFCURVE",
"932 632 CURVE SMOOTH",
"932 628 LINE",
"952 624 OFFCURVE",
"969 622 OFFCURVE",
"983 622 CURVE SMOOTH",
"999 622 OFFCURVE",
"1017 625 OFFCURVE",
"1036 630 CURVE",
"1036 641 LINE SMOOTH",
"1040 890 OFFCURVE",
"1112 967 OFFCURVE",
"1245 967 CURVE SMOOTH",
"1353 967 OFFCURVE",
"1403 887 OFFCURVE",
"1403 707 CURVE SMOOTH",
"1403 0 LINE"
);
},
{
closed = 1;
nodes = (
"1057 -418 OFFCURVE",
"1146 -321 OFFCURVE",
"1171 -180 CURVE",
"1146 -161 OFFCURVE",
"1119 -152 OFFCURVE",
"1090 -152 CURVE SMOOTH",
"1082 -152 LINE",
"1073 -153 LINE",
"1061 -244 OFFCURVE",
"1023 -278 OFFCURVE",
"983 -278 CURVE SMOOTH",
"899 -278 OFFCURVE",
"864 -205 OFFCURVE",
"864 -65 CURVE SMOOTH",
"864 32 LINE",
"971 85 OFFCURVE",
"1028 174 OFFCURVE",
"1035 299 CURVE",
"1014 306 OFFCURVE",
"995 309 OFFCURVE",
"976 309 CURVE SMOOTH",
"957 309 OFFCURVE",
"938 306 OFFCURVE",
"920 299 CURVE",
"917 252 OFFCURVE",
"899 215 OFFCURVE",
"864 188 CURVE",
"864 230 LINE SMOOTH",
"864 463 OFFCURVE",
"798 579 OFFCURVE",
"666 579 CURVE SMOOTH",
"558 579 OFFCURVE",
"469 482 OFFCURVE",
"444 341 CURVE",
"469 322 OFFCURVE",
"496 313 OFFCURVE",
"525 313 CURVE SMOOTH",
"533 313 LINE",
"542 314 LINE",
"554 405 OFFCURVE",
"592 439 OFFCURVE",
"632 439 CURVE SMOOTH",
"716 439 OFFCURVE",
"751 366 OFFCURVE",
"751 226 CURVE SMOOTH",
"751 141 LINE",
"718 134 OFFCURVE",
"680 131 OFFCURVE",
"635 131 CURVE SMOOTH",
"423 131 OFFCURVE",
"335 218 OFFCURVE",
"335 391 CURVE SMOOTH",
"335 1098 LINE",
"165 1098 LINE",
"165 383 LINE SMOOTH",
"165 116 OFFCURVE",
"300 -20 OFFCURVE",
"593 -20 CURVE SMOOTH",
"652 -20 OFFCURVE",
"705 -15 OFFCURVE",
"751 -5 CURVE",
"751 -69 LINE SMOOTH",
"751 -302 OFFCURVE",
"817 -418 OFFCURVE",
"949 -418 CURVE SMOOTH"
);
}
);
width = 2262;
}
);
note = jv_II;
unicode = A987;
},
{
glyphname = jv_U;
lastChange = "2016-11-10 17:42:50 +0000";
layers = (
{
layerId = "FB35F625-CAB4-4F3A-B203-D3E168293E5E";
paths = (
{
closed = 1;
nodes = (
"844 -1147 OFFCURVE",
"949 -1086 OFFCURVE",
"1088 -963 CURVE SMOOTH",
"1227 -840 OFFCURVE",
"1364 -771 OFFCURVE",
"1516 -771 CURVE SMOOTH",
"1608 -771 OFFCURVE",
"1698 -783 OFFCURVE",
"1735 -799 CURVE",
"1740 -779 OFFCURVE",
"1743 -761 OFFCURVE",
"1743 -744 CURVE SMOOTH",
"1743 -727 OFFCURVE",
"1740 -708 OFFCURVE",
"1735 -685 CURVE",
"1683 -670 OFFCURVE",
"1575 -656 OFFCURVE",
"1495 -656 CURVE SMOOTH",
"1336 -656 OFFCURVE",
"1198 -706 OFFCURVE",
"994 -882 CURVE SMOOTH",
"892 -970 OFFCURVE",
"806 -1014 OFFCURVE",
"735 -1014 CURVE SMOOTH",
"664 -1014 OFFCURVE",
"649 -978 OFFCURVE",
"649 -914 CURVE SMOOTH",
"649 -804 OFFCURVE",
"701 -694 OFFCURVE",
"804 -584 CURVE SMOOTH",
"1010 -365 OFFCURVE",
"1416 -169 OFFCURVE",
"1568 -169 CURVE",
"1568 715 LINE SMOOTH",
"1568 984 OFFCURVE",
"1469 1118 OFFCURVE",
"1272 1118 CURVE SMOOTH",
"1136 1118 OFFCURVE",
"1040 1054 OFFCURVE",
"984 926 CURVE",
"931 1051 OFFCURVE",
"843 1118 OFFCURVE",
"735 1118 CURVE SMOOTH",
"548 1118 OFFCURVE",
"435 909 OFFCURVE",
"435 661 CURVE SMOOTH",
"435 645 LINE",
"436 630 LINE",
"456 626 OFFCURVE",
"473 624 OFFCURVE",
"487 624 CURVE SMOOTH",
"503 624 OFFCURVE",
"521 627 OFFCURVE",
"540 632 CURVE",
"545 887 OFFCURVE",
"611 967 OFFCURVE",
"736 967 CURVE SMOOTH",
"863 967 OFFCURVE",
"928 880 OFFCURVE",
"932 632 CURVE SMOOTH",
"932 628 LINE",
"952 624 OFFCURVE",
"969 622 OFFCURVE",
"983 622 CURVE SMOOTH",
"999 622 OFFCURVE",
"1017 625 OFFCURVE",
"1036 630 CURVE",
"1036 641 LINE SMOOTH",
"1040 890 OFFCURVE",
"1112 967 OFFCURVE",
"1245 967 CURVE SMOOTH",
"1360 967 OFFCURVE",
"1398 880 OFFCURVE",
"1398 707 CURVE SMOOTH",
"1398 -23 LINE",
"1263 -58 OFFCURVE",
"1125 -125 OFFCURVE",
"986 -224 CURVE SMOOTH",
"707 -421 OFFCURVE",
"541 -683 OFFCURVE",
"541 -920 CURVE SMOOTH",
"541 -1071 OFFCURVE",
"605 -1147 OFFCURVE",
"733 -1147 CURVE SMOOTH"
);
},
{
closed = 1;
nodes = (
"865 -20 OFFCURVE",
"1027 92 OFFCURVE",
"1035 299 CURVE",
"1014 306 OFFCURVE",
"995 309 OFFCURVE",
"976 309 CURVE SMOOTH",
"957 309 OFFCURVE",
"938 306 OFFCURVE",
"920 299 CURVE",
"913 184 OFFCURVE",
"808 131 OFFCURVE",
"635 131 CURVE SMOOTH",
"423 131 OFFCURVE",
"335 218 OFFCURVE",
"335 391 CURVE SMOOTH",
"335 1098 LINE",
"165 1098 LINE",
"165 383 LINE SMOOTH",
"165 116 OFFCURVE",
"300 -20 OFFCURVE",
"593 -20 CURVE SMOOTH"
);
}
);
width = 1728;
}
);
note = jv_U;
unicode = A988;
},
{
glyphname = jv_vocR;
lastChange = "2016-11-10 17:42:50 +0000";
layers = (
{
layerId = "FB35F625-CAB4-4F3A-B203-D3E168293E5E";
paths = (
{
closed = 1;
nodes = (
"721 -20 OFFCURVE",
"842 108 OFFCURVE",
"842 405 CURVE SMOOTH",
"843 629 LINE SMOOTH",
"843 874 OFFCURVE",
"911 967 OFFCURVE",
"1043 967 CURVE SMOOTH",
"1158 967 OFFCURVE",
"1208 902 OFFCURVE",
"1208 707 CURVE SMOOTH",
"1208 0 LINE",
"1378 0 LINE",
"1378 715 LINE SMOOTH",
"1378 980 OFFCURVE",
"1276 1118 OFFCURVE",
"1080 1118 CURVE SMOOTH",
"865 1118 OFFCURVE",
"739 943 OFFCURVE",
"739 654 CURVE SMOOTH",
"739 434 LINE SMOOTH",
"739 342 OFFCURVE",
"733 277 OFFCURVE",
"721 240 CURVE SMOOTH",
"696 164 OFFCURVE",
"644 131 OFFCURVE",
"509 131 CURVE SMOOTH",
"369 131 OFFCURVE",
"340 222 OFFCURVE",
"340 391 CURVE SMOOTH",
"340 1098 LINE",
"170 1098 LINE",
"170 383 LINE SMOOTH",
"170 108 OFFCURVE",
"257 -20 OFFCURVE",
"466 -20 CURVE SMOOTH"
);
},
{
closed = 1;
nodes = (
"903 -632 OFFCURVE",
"931 -627 OFFCURVE",
"966 -616 CURVE",
"966 -580 LINE SMOOTH",
"966 -480 OFFCURVE",
"956 -406 OFFCURVE",
"937 -359 CURVE SMOOTH",
"897 -265 OFFCURVE",
"843 -220 OFFCURVE",
"686 -205 CURVE SMOOTH",
"607 -198 OFFCURVE",
"568 -153 OFFCURVE",
"568 -70 CURVE",
"547 -63 OFFCURVE",
"528 -60 OFFCURVE",
"509 -60 CURVE SMOOTH",
"490 -60 OFFCURVE",
"471 -63 OFFCURVE",
"453 -70 CURVE",
"453 -214 OFFCURVE",
"492 -278 OFFCURVE",
"622 -306 CURVE SMOOTH",
"752 -334 OFFCURVE",
"797 -415 OFFCURVE",
"797 -588 CURVE SMOOTH",
"797 -616 LINE",
"832 -627 OFFCURVE",
"860 -632 OFFCURVE",
"882 -632 CURVE SMOOTH"
);
}
);
width = 1533;
}
);
note = jv_vocR;
unicode = A989;
},
{
glyphname = jv_vocL;
lastChange = "2016-11-10 17:42:50 +0000";
layers = (
{
layerId = "FB35F625-CAB4-4F3A-B203-D3E168293E5E";
paths = (
{
closed = 1;
nodes = (
"1431 -1120 OFFCURVE",
"1573 -985 OFFCURVE",
"1573 -693 CURVE SMOOTH",
"1573 -243 LINE",
"1690 -243 LINE SMOOTH",
"1823 -243 OFFCURVE",
"1921 -157 OFFCURVE",
"1921 -36 CURVE",
"1898 -31 OFFCURVE",
"1879 -28 OFFCURVE",
"1862 -28 CURVE SMOOTH",
"1845 -28 OFFCURVE",
"1827 -31 OFFCURVE",
"1807 -36 CURVE",
"1807 -91 OFFCURVE",
"1762 -127 OFFCURVE",
"1699 -130 CURVE",
"1573 -130 LINE",
"1573 715 LINE SMOOTH",
"1573 984 OFFCURVE",
"1473 1118 OFFCURVE",
"1272 1118 CURVE SMOOTH",
"1136 1118 OFFCURVE",
"1040 1054 OFFCURVE",
"984 926 CURVE",
"931 1051 OFFCURVE",
"843 1118 OFFCURVE",
"735 1118 CURVE SMOOTH",
"540 1118 OFFCURVE",
"436 918 OFFCURVE",
"436 630 CURVE",
"456 626 OFFCURVE",
"473 624 OFFCURVE",
"487 624 CURVE SMOOTH",
"503 624 OFFCURVE",
"521 627 OFFCURVE",
"540 632 CURVE",
"545 887 OFFCURVE",
"611 967 OFFCURVE",
"736 967 CURVE SMOOTH",
"863 967 OFFCURVE",
"928 880 OFFCURVE",
"932 632 CURVE SMOOTH",
"932 628 LINE",
"952 624 OFFCURVE",
"969 622 OFFCURVE",
"983 622 CURVE SMOOTH",
"999 622 OFFCURVE",
"1017 625 OFFCURVE",
"1036 630 CURVE",
"1036 641 LINE SMOOTH",
"1040 890 OFFCURVE",
"1112 967 OFFCURVE",
"1245 967 CURVE SMOOTH",
"1360 967 OFFCURVE",
"1403 879 OFFCURVE",
"1403 707 CURVE SMOOTH",
"1403 -129 LINE",
"810 -129 OFFCURVE",
"522 -280 OFFCURVE",
"522 -593 CURVE SMOOTH",
"522 -924 OFFCURVE",
"730 -1120 OFFCURVE",
"1075 -1120 CURVE SMOOTH"
);
},
{
closed = 1;
nodes = (
"838 -1006 OFFCURVE",
"695 -856 OFFCURVE",
"695 -573 CURVE SMOOTH",
"695 -451 OFFCURVE",
"753 -365 OFFCURVE",
"869 -316 CURVE SMOOTH",
"984 -267 OFFCURVE",
"1162 -243 OFFCURVE",
"1403 -243 CURVE",
"1403 -681 LINE SMOOTH",
"1403 -930 OFFCURVE",
"1338 -1006 OFFCURVE",
"1101 -1006 CURVE SMOOTH"
);
},
{
closed = 1;
nodes = (
"865 -20 OFFCURVE",
"1027 92 OFFCURVE",
"1035 299 CURVE",
"1014 306 OFFCURVE",
"995 309 OFFCURVE",
"976 309 CURVE SMOOTH",
"957 309 OFFCURVE",
"938 306 OFFCURVE",
"920 299 CURVE",
"913 184 OFFCURVE",
"808 131 OFFCURVE",
"635 131 CURVE SMOOTH",
"423 131 OFFCURVE",
"335 218 OFFCURVE",
"335 391 CURVE SMOOTH",
"335 1098 LINE",
"165 1098 LINE",
"165 383 LINE SMOOTH",
"165 116 OFFCURVE",
"300 -20 OFFCURVE",
"593 -20 CURVE SMOOTH"
);
}
);
width = 1728;
}
);
note = jv_vocL;
unicode = A98A;
},
{
glyphname = jv_vocLL;
lastChange = "2016-11-10 17:42:50 +0000";
layers = (
{
layerId = "FB35F625-CAB4-4F3A-B203-D3E168293E5E";
paths = (
{
closed = 1;
nodes = (
"1431 -1120 OFFCURVE",
"1573 -985 OFFCURVE",
"1573 -693 CURVE SMOOTH",
"1573 -241 LINE",
"1707 -241 OFFCURVE",
"1804 -252 OFFCURVE",
"1863 -274 CURVE SMOOTH",
"1922 -296 OFFCURVE",
"1952 -329 OFFCURVE",
"1952 -372 CURVE SMOOTH",
"1952 -443 OFFCURVE",
"1858 -507 OFFCURVE",
"1757 -507 CURVE",
"1750 -524 OFFCURVE",
"1747 -545 OFFCURVE",
"1747 -569 CURVE SMOOTH",
"1747 -597 OFFCURVE",
"1750 -616 OFFCURVE",
"1757 -625 CURVE",
"1901 -625 OFFCURVE",
"2000 -680 OFFCURVE",
"2000 -767 CURVE SMOOTH",
"2000 -843 OFFCURVE",
"1929 -913 OFFCURVE",
"1857 -913 CURVE SMOOTH",
"1792 -913 OFFCURVE",
"1739 -863 OFFCURVE",
"1732 -786 CURVE",
"1723 -779 OFFCURVE",
"1704 -776 OFFCURVE",
"1675 -776 CURVE SMOOTH",
"1650 -776 OFFCURVE",
"1629 -779 OFFCURVE",
"1612 -786 CURVE",
"1616 -929 OFFCURVE",
"1723 -1030 OFFCURVE",
"1866 -1030 CURVE SMOOTH",
"2019 -1030 OFFCURVE",
"2174 -894 OFFCURVE",
"2174 -741 CURVE SMOOTH",
"2174 -650 OFFCURVE",
"2125 -587 OFFCURVE",
"2005 -548 CURVE",
"2082 -503 OFFCURVE",
"2122 -450 OFFCURVE",
"2122 -371 CURVE SMOOTH",
"2122 -217 OFFCURVE",
"1939 -136 OFFCURVE",
"1573 -128 CURVE",
"1573 715 LINE SMOOTH",
"1573 984 OFFCURVE",
"1473 1118 OFFCURVE",
"1272 1118 CURVE SMOOTH",
"1136 1118 OFFCURVE",
"1040 1054 OFFCURVE",
"984 926 CURVE",
"931 1051 OFFCURVE",
"843 1118 OFFCURVE",
"735 1118 CURVE SMOOTH",
"540 1118 OFFCURVE",
"436 918 OFFCURVE",
"436 630 CURVE",
"456 626 OFFCURVE",
"473 624 OFFCURVE",
"487 624 CURVE SMOOTH",
"503 624 OFFCURVE",
"521 627 OFFCURVE",
"540 632 CURVE",
"545 887 OFFCURVE",
"611 967 OFFCURVE",
"736 967 CURVE SMOOTH",
"863 967 OFFCURVE",
"928 880 OFFCURVE",
"932 632 CURVE SMOOTH",
"932 628 LINE",
"952 624 OFFCURVE",
"969 622 OFFCURVE",
"983 622 CURVE SMOOTH",
"999 622 OFFCURVE",
"1017 625 OFFCURVE",
"1036 630 CURVE",
"1036 641 LINE SMOOTH",
"1040 890 OFFCURVE",
"1112 967 OFFCURVE",
"1245 967 CURVE SMOOTH",
"1360 967 OFFCURVE",
"1403 879 OFFCURVE",
"1403 707 CURVE SMOOTH",
"1403 -128 LINE",
"790 -128 OFFCURVE",
"522 -286 OFFCURVE",
"522 -593 CURVE SMOOTH",
"522 -924 OFFCURVE",
"730 -1120 OFFCURVE",
"1075 -1120 CURVE SMOOTH"
);
},
{
closed = 1;
nodes = (
"838 -1006 OFFCURVE",
"695 -856 OFFCURVE",
"695 -573 CURVE SMOOTH",
"695 -459 OFFCURVE",
"750 -375 OFFCURVE",
"861 -322 CURVE SMOOTH",
"971 -269 OFFCURVE",
"1152 -243 OFFCURVE",
"1403 -243 CURVE",
"1403 -681 LINE SMOOTH",
"1403 -930 OFFCURVE",
"1338 -1006 OFFCURVE",
"1101 -1006 CURVE SMOOTH"
);
},
{
closed = 1;
nodes = (
"865 -20 OFFCURVE",
"1027 92 OFFCURVE",
"1035 299 CURVE",
"1014 306 OFFCURVE",
"995 309 OFFCURVE",
"976 309 CURVE SMOOTH",
"957 309 OFFCURVE",
"938 306 OFFCURVE",
"920 299 CURVE",
"913 184 OFFCURVE",
"808 131 OFFCURVE",
"635 131 CURVE SMOOTH",
"423 131 OFFCURVE",
"335 218 OFFCURVE",
"335 391 CURVE SMOOTH",
"335 1098 LINE",
"165 1098 LINE",
"165 383 LINE SMOOTH",
"165 116 OFFCURVE",
"300 -20 OFFCURVE",
"593 -20 CURVE SMOOTH"
);
}
);
width = 2329;
}
);
note = jv_vocLL;
unicode = A98B;
},
{
glyphname = jv_E;
lastChange = "2016-11-10 17:42:50 +0000";
layers = (
{
layerId = "FB35F625-CAB4-4F3A-B203-D3E168293E5E";
paths = (
{
closed = 1;
nodes = (
"810 -20 OFFCURVE",
"916 18 OFFCURVE",
"1045 163 CURVE SMOOTH",
"1109 236 OFFCURVE",
"1178 272 OFFCURVE",
"1253 272 CURVE SMOOTH",
"1337 272 OFFCURVE",
"1393 237 OFFCURVE",
"1393 178 CURVE SMOOTH",
"1393 133 OFFCURVE",
"1361 97 OFFCURVE",
"1326 94 CURVE",
"1321 71 OFFCURVE",
"1318 52 OFFCURVE",
"1318 35 CURVE SMOOTH",
"1318 18 OFFCURVE",
"1321 0 OFFCURVE",
"1326 -20 CURVE",
"1426 -20 OFFCURVE",
"1507 69 OFFCURVE",
"1507 173 CURVE SMOOTH",
"1507 290 OFFCURVE",
"1395 377 OFFCURVE",
"1244 377 CURVE SMOOTH",
"1145 377 OFFCURVE",
"1055 333 OFFCURVE",
"972 245 CURVE SMOOTH",
"889 157 OFFCURVE",
"799 113 OFFCURVE",
"700 113 CURVE SMOOTH",
"476 113 OFFCURVE",
"297 290 OFFCURVE",
"297 523 CURVE SMOOTH",
"297 589 OFFCURVE",
"309 654 OFFCURVE",
"334 719 CURVE",
"409 687 OFFCURVE",
"521 661 OFFCURVE",
"633 661 CURVE SMOOTH",
"848 661 OFFCURVE",
"979 744 OFFCURVE",
"979 881 CURVE SMOOTH",
"979 1020 OFFCURVE",
"853 1118 OFFCURVE",
"662 1118 CURVE SMOOTH",
"346 1118 OFFCURVE",
"110 864 OFFCURVE",
"110 553 CURVE SMOOTH",
"110 450 OFFCURVE",
"137 355 OFFCURVE",
"190 267 CURVE SMOOTH",
"296 90 OFFCURVE",
"491 -20 OFFCURVE",
"691 -20 CURVE SMOOTH"
);
},
{
closed = 1;
nodes = (
"565 776 OFFCURVE",
"456 792 OFFCURVE",
"385 821 CURVE",
"457 937 OFFCURVE",
"560 1003 OFFCURVE",
"664 1003 CURVE SMOOTH",
"765 1003 OFFCURVE",
"863 939 OFFCURVE",
"863 870 CURVE SMOOTH",
"863 840 OFFCURVE",
"845 817 OFFCURVE",
"810 801 CURVE SMOOTH",
"775 784 OFFCURVE",
"723 776 OFFCURVE",
"656 776 CURVE SMOOTH"
);
}
);
width = 1517;
}
);
note = jv_E;
unicode = A98C;
},
{
glyphname = jv_AI;
lastChange = "2016-11-10 17:42:50 +0000";
layers = (
{
layerId = "FB35F625-CAB4-4F3A-B203-D3E168293E5E";
paths = (
{
closed = 1;
nodes = (
"810 -20 OFFCURVE",
"916 18 OFFCURVE",
"1045 163 CURVE SMOOTH",
"1109 236 OFFCURVE",
"1178 272 OFFCURVE",
"1253 272 CURVE SMOOTH",
"1337 272 OFFCURVE",
"1393 237 OFFCURVE",
"1393 178 CURVE SMOOTH",
"1393 133 OFFCURVE",
"1361 97 OFFCURVE",
"1326 94 CURVE",
"1321 71 OFFCURVE",
"1318 52 OFFCURVE",
"1318 35 CURVE SMOOTH",
"1318 18 OFFCURVE",
"1321 0 OFFCURVE",
"1326 -20 CURVE",
"1426 -20 OFFCURVE",
"1507 69 OFFCURVE",
"1507 173 CURVE SMOOTH",
"1507 290 OFFCURVE",
"1395 377 OFFCURVE",
"1244 377 CURVE SMOOTH",
"1145 377 OFFCURVE",
"1055 333 OFFCURVE",
"972 245 CURVE SMOOTH",
"889 157 OFFCURVE",
"799 113 OFFCURVE",
"700 113 CURVE SMOOTH",
"476 113 OFFCURVE",
"297 290 OFFCURVE",
"297 523 CURVE SMOOTH",
"297 589 OFFCURVE",
"309 654 OFFCURVE",
"334 719 CURVE",
"409 687 OFFCURVE",
"521 661 OFFCURVE",
"633 661 CURVE SMOOTH",
"848 661 OFFCURVE",
"979 744 OFFCURVE",
"979 881 CURVE SMOOTH",
"979 1020 OFFCURVE",
"853 1118 OFFCURVE",
"662 1118 CURVE SMOOTH",
"346 1118 OFFCURVE",
"110 864 OFFCURVE",
"110 553 CURVE SMOOTH",
"110 450 OFFCURVE",
"137 355 OFFCURVE",
"190 267 CURVE SMOOTH",
"296 90 OFFCURVE",
"491 -20 OFFCURVE",
"691 -20 CURVE SMOOTH"
);
},
{
closed = 1;
nodes = (
"565 776 OFFCURVE",
"456 792 OFFCURVE",
"385 821 CURVE",
"457 937 OFFCURVE",
"560 1003 OFFCURVE",
"664 1003 CURVE SMOOTH",
"765 1003 OFFCURVE",
"863 939 OFFCURVE",
"863 870 CURVE SMOOTH",
"863 840 OFFCURVE",
"845 817 OFFCURVE",
"810 801 CURVE SMOOTH",
"775 784 OFFCURVE",
"723 776 OFFCURVE",
"656 776 CURVE SMOOTH"
);
},
{
closed = 1;
nodes = (
"814 1203 OFFCURVE",
"903 1283 OFFCURVE",
"903 1410 CURVE SMOOTH",
"903 1521 OFFCURVE",
"842 1574 OFFCURVE",
"647 1593 CURVE SMOOTH",
"550 1602 OFFCURVE",
"501 1633 OFFCURVE",
"501 1686 CURVE SMOOTH",
"501 1742 OFFCURVE",
"545 1791 OFFCURVE",
"633 1802 CURVE",
"634 1811 LINE",
"634 1819 LINE SMOOTH",
"634 1848 OFFCURVE",
"625 1875 OFFCURVE",
"606 1900 CURVE",
"447 1867 OFFCURVE",
"368 1789 OFFCURVE",
"368 1664 CURVE SMOOTH",
"368 1563 OFFCURVE",
"417 1505 OFFCURVE",
"566 1481 CURVE SMOOTH",
"639 1470 LINE SMOOTH",
"722 1457 OFFCURVE",
"763 1424 OFFCURVE",
"763 1373 CURVE SMOOTH",
"763 1330 OFFCURVE",
"729 1288 OFFCURVE",
"638 1272 CURVE",
"637 1263 LINE",
"637 1255 LINE SMOOTH",
"637 1226 OFFCURVE",
"646 1199 OFFCURVE",
"665 1174 CURVE"
);
}
);
width = 1517;
}
);
note = jv_AI;
unicode = A98D;
},
{
glyphname = jv_O;
lastChange = "2016-11-10 17:42:50 +0000";
layers = (
{
layerId = "FB35F625-CAB4-4F3A-B203-D3E168293E5E";
paths = (
{
closed = 1;
nodes = (
"742 -1147 OFFCURVE",
"847 -1085 OFFCURVE",
"987 -962 CURVE SMOOTH",
"1126 -839 OFFCURVE",
"1271 -771 OFFCURVE",
"1414 -771 CURVE SMOOTH",
"1506 -771 OFFCURVE",
"1596 -783 OFFCURVE",
"1633 -799 CURVE",
"1638 -779 OFFCURVE",
"1641 -761 OFFCURVE",
"1641 -744 CURVE SMOOTH",
"1641 -727 OFFCURVE",
"1638 -708 OFFCURVE",
"1633 -685 CURVE",
"1581 -670 OFFCURVE",
"1473 -656 OFFCURVE",
"1393 -656 CURVE SMOOTH",
"1234 -656 OFFCURVE",
"1096 -706 OFFCURVE",
"892 -882 CURVE SMOOTH",
"790 -970 OFFCURVE",
"704 -1014 OFFCURVE",
"633 -1014 CURVE SMOOTH",
"562 -1014 OFFCURVE",
"547 -978 OFFCURVE",
"547 -914 CURVE SMOOTH",
"547 -804 OFFCURVE",
"599 -694 OFFCURVE",
"702 -584 CURVE SMOOTH",
"908 -365 OFFCURVE",
"1314 -169 OFFCURVE",
"1466 -169 CURVE",
"1466 715 LINE SMOOTH",
"1466 984 OFFCURVE",
"1354 1118 OFFCURVE",
"1130 1118 CURVE SMOOTH",
"1020 1118 OFFCURVE",
"841 1100 OFFCURVE",
"592 1064 CURVE",
"577 1049 OFFCURVE",
"569 1030 OFFCURVE",
"569 1007 CURVE SMOOTH",
"569 982 OFFCURVE",
"577 959 OFFCURVE",
"594 938 CURVE",
"723 938 OFFCURVE",
"805 822 OFFCURVE",
"805 623 CURVE SMOOTH",
"805 434 LINE SMOOTH",
"805 183 OFFCURVE",
"756 131 OFFCURVE",
"567 131 CURVE SMOOTH",
"384 131 OFFCURVE",
"330 222 OFFCURVE",
"330 391 CURVE SMOOTH",
"330 1098 LINE",
"160 1098 LINE",
"160 383 LINE SMOOTH",
"160 106 OFFCURVE",
"268 -20 OFFCURVE",
"521 -20 CURVE SMOOTH",
"785 -20 OFFCURVE",
"920 109 OFFCURVE",
"920 405 CURVE SMOOTH",
"920 627 LINE SMOOTH",
"920 781 OFFCURVE",
"882 895 OFFCURVE",
"805 968 CURVE",
"901 981 OFFCURVE",
"975 987 OFFCURVE",
"1026 987 CURVE SMOOTH",
"1181 987 OFFCURVE",
"1244 960 OFFCURVE",
"1274 891 CURVE SMOOTH",
"1289 856 OFFCURVE",
"1296 795 OFFCURVE",
"1296 707 CURVE SMOOTH",
"1296 -24 LINE",
"1155 -61 OFFCURVE",
"1016 -129 OFFCURVE",
"879 -227 CURVE SMOOTH",
"604 -423 OFFCURVE",
"439 -681 OFFCURVE",
"439 -920 CURVE SMOOTH",
"439 -1071 OFFCURVE",
"503 -1147 OFFCURVE",
"631 -1147 CURVE SMOOTH"
);
}
);
width = 1626;
}
);
note = jv_O;
unicode = A98E;
},
{
glyphname = jv_Ka;
lastChange = "2016-11-10 17:42:50 +0000";
layers = (
{
layerId = "FB35F625-CAB4-4F3A-B203-D3E168293E5E";
paths = (
{
closed = 1;
nodes = (
"952 -20 OFFCURVE",
"1036 67 OFFCURVE",
"1036 178 CURVE SMOOTH",
"1036 287 OFFCURVE",
"953 373 OFFCURVE",
"849 373 CURVE SMOOTH",
"776 373 LINE",
"776 629 LINE SMOOTH",
"776 860 OFFCURVE",
"848 967 OFFCURVE",
"1024 967 CURVE SMOOTH",
"1163 967 OFFCURVE",
"1247 871 OFFCURVE",
"1247 707 CURVE SMOOTH",
"1247 0 LINE",
"1417 0 LINE",
"1417 606 LINE SMOOTH",
"1417 866 OFFCURVE",
"1488 967 OFFCURVE",
"1649 967 CURVE SMOOTH",
"1778 967 OFFCURVE",
"1832 883 OFFCURVE",
"1832 707 CURVE SMOOTH",
"1832 0 LINE",
"2002 0 LINE",
"2002 715 LINE SMOOTH",
"2002 984 OFFCURVE",
"1893 1118 OFFCURVE",
"1675 1118 CURVE SMOOTH",
"1554 1118 OFFCURVE",
"1451 1059 OFFCURVE",
"1388 934 CURVE",
"1380 934 LINE",
"1328 1050 OFFCURVE",
"1220 1118 OFFCURVE",
"1061 1118 CURVE SMOOTH",
"822 1118 OFFCURVE",
"662 933 OFFCURVE",
"662 654 CURVE SMOOTH",
"662 373 LINE",
"345 373 LINE",
"345 1098 LINE",
"175 1098 LINE",
"175 0 LINE",
"345 0 LINE",
"345 262 LINE",
"662 262 LINE",
"662 178 LINE SMOOTH",
"662 67 OFFCURVE",
"746 -20 OFFCURVE",
"849 -20 CURVE SMOOTH"
);
},
{
closed = 1;
nodes = (
"809 90 OFFCURVE",
"776 130 OFFCURVE",
"776 178 CURVE SMOOTH",
"776 262 LINE",
"849 262 LINE SMOOTH",
"889 262 OFFCURVE",
"922 226 OFFCURVE",
"922 178 CURVE SMOOTH",
"922 130 OFFCURVE",
"889 90 OFFCURVE",
"849 90 CURVE SMOOTH"
);
}
);
width = 2162;
}
);
note = jv_Ka;
unicode = A98F;
},
{
glyphname = jv_Qa;
lastChange = "2016-11-10 17:42:50 +0000";
layers = (
{
layerId = "FB35F625-CAB4-4F3A-B203-D3E168293E5E";
paths = (
{
closed = 1;
nodes = (
"952 -20 OFFCURVE",
"1036 67 OFFCURVE",
"1036 178 CURVE SMOOTH",
"1036 287 OFFCURVE",
"953 373 OFFCURVE",
"849 373 CURVE SMOOTH",
"776 373 LINE",
"776 629 LINE SMOOTH",
"776 860 OFFCURVE",
"848 967 OFFCURVE",
"1024 967 CURVE SMOOTH",
"1163 967 OFFCURVE",
"1247 871 OFFCURVE",
"1247 707 CURVE SMOOTH",
"1247 0 LINE",
"1417 0 LINE",
"1417 606 LINE SMOOTH",
"1417 866 OFFCURVE",
"1488 967 OFFCURVE",
"1649 967 CURVE SMOOTH",
"1778 967 OFFCURVE",
"1832 883 OFFCURVE",
"1832 707 CURVE SMOOTH",
"1832 0 LINE",
"2002 0 LINE",
"2002 715 LINE SMOOTH",
"2002 984 OFFCURVE",
"1893 1118 OFFCURVE",
"1675 1118 CURVE SMOOTH",
"1554 1118 OFFCURVE",
"1451 1059 OFFCURVE",
"1388 934 CURVE",
"1380 934 LINE",
"1328 1050 OFFCURVE",
"1220 1118 OFFCURVE",
"1061 1118 CURVE SMOOTH",
"822 1118 OFFCURVE",
"662 933 OFFCURVE",
"662 654 CURVE SMOOTH",
"662 373 LINE",
"345 373 LINE",
"345 1098 LINE",
"175 1098 LINE",
"175 0 LINE",
"345 0 LINE",
"345 262 LINE",
"662 262 LINE",
"662 178 LINE SMOOTH",
"662 67 OFFCURVE",
"746 -20 OFFCURVE",
"849 -20 CURVE SMOOTH"
);
},
{
closed = 1;
nodes = (
"1243 -632 OFFCURVE",
"1271 -627 OFFCURVE",
"1306 -616 CURVE",
"1306 -580 LINE SMOOTH",
"1306 -480 OFFCURVE",
"1296 -406 OFFCURVE",
"1277 -359 CURVE SMOOTH",
"1237 -265 OFFCURVE",
"1183 -220 OFFCURVE",
"1026 -205 CURVE SMOOTH",
"947 -198 OFFCURVE",
"908 -153 OFFCURVE",
"908 -70 CURVE",
"887 -63 OFFCURVE",
"868 -60 OFFCURVE",
"849 -60 CURVE SMOOTH",
"830 -60 OFFCURVE",
"811 -63 OFFCURVE",
"793 -70 CURVE",
"793 -214 OFFCURVE",
"832 -278 OFFCURVE",
"962 -306 CURVE SMOOTH",
"1092 -334 OFFCURVE",
"1137 -415 OFFCURVE",
"1137 -588 CURVE SMOOTH",
"1137 -616 LINE",
"1172 -627 OFFCURVE",
"1200 -632 OFFCURVE",
"1222 -632 CURVE SMOOTH"
);
},
{
closed = 1;
nodes = (
"809 90 OFFCURVE",
"776 130 OFFCURVE",
"776 178 CURVE SMOOTH",
"776 262 LINE",
"849 262 LINE SMOOTH",
"889 262 OFFCURVE",
"922 226 OFFCURVE",
"922 178 CURVE SMOOTH",
"922 130 OFFCURVE",
"889 90 OFFCURVE",
"849 90 CURVE SMOOTH"
);
}
);
width = 2162;
}
);
note = jv_Qa;
unicode = A990;
},
{
glyphname = jv_Ka_mu;
lastChange = "2016-11-10 17:42:50 +0000";
layers = (
{
layerId = "FB35F625-CAB4-4F3A-B203-D3E168293E5E";
paths = (
{
closed = 1;
nodes = (
"937 -20 OFFCURVE",
"1021 67 OFFCURVE",
"1021 178 CURVE SMOOTH",
"1021 290 OFFCURVE",
"937 377 OFFCURVE",
"834 377 CURVE SMOOTH",
"761 377 LINE",
"761 629 LINE SMOOTH",
"761 860 OFFCURVE",
"833 967 OFFCURVE",
"1009 967 CURVE SMOOTH",
"1150 967 OFFCURVE",
"1244 871 OFFCURVE",
"1244 707 CURVE SMOOTH",
"1244 383 LINE SMOOTH",
"1244 98 OFFCURVE",
"1332 -20 OFFCURVE",
"1552 -20 CURVE SMOOTH",
"1792 -20 OFFCURVE",
"1914 113 OFFCURVE",
"1914 405 CURVE SMOOTH",
"1914 773 LINE",
"1893 780 OFFCURVE",
"1874 783 OFFCURVE",
"1855 783 CURVE SMOOTH",
"1836 783 OFFCURVE",
"1817 780 OFFCURVE",
"1799 773 CURVE",
"1799 434 LINE SMOOTH",
"1799 339 OFFCURVE",
"1793 274 OFFCURVE",
"1782 239 CURVE SMOOTH",
"1758 167 OFFCURVE",
"1703 131 OFFCURVE",
"1588 131 CURVE SMOOTH",
"1447 131 OFFCURVE",
"1414 209 OFFCURVE",
"1414 386 CURVE SMOOTH",
"1414 715 LINE SMOOTH",
"1414 960 OFFCURVE",
"1265 1118 OFFCURVE",
"1046 1118 CURVE SMOOTH",
"807 1118 OFFCURVE",
"647 933 OFFCURVE",
"647 654 CURVE SMOOTH",
"647 377 LINE",
"330 377 LINE",
"330 1098 LINE",
"160 1098 LINE",
"160 0 LINE",
"330 0 LINE",
"330 262 LINE",
"647 262 LINE",
"647 178 LINE SMOOTH",
"647 67 OFFCURVE",
"731 -20 OFFCURVE",
"834 -20 CURVE SMOOTH"
);
},
{
closed = 1;
nodes = (
"794 96 OFFCURVE",
"761 130 OFFCURVE",
"761 178 CURVE SMOOTH",
"761 262 LINE",
"834 262 LINE SMOOTH",
"874 262 OFFCURVE",
"907 226 OFFCURVE",
"907 178 CURVE SMOOTH",
"907 130 OFFCURVE",
"874 96 OFFCURVE",
"834 96 CURVE SMOOTH"
);
}
);
width = 1974;
}
);
note = jv_Ka_mu;
unicode = A991;
},
{
glyphname = jv_Ga;
lastChange = "2016-11-10 17:42:50 +0000";
layers = (
{
layerId = "FB35F625-CAB4-4F3A-B203-D3E168293E5E";
paths = (
{
closed = 1;
nodes = (
"721 0 LINE",
"721 606 LINE SMOOTH",
"721 867 OFFCURVE",
"785 967 OFFCURVE",
"932 967 CURVE SMOOTH",
"1047 967 OFFCURVE",
"1087 879 OFFCURVE",
"1087 707 CURVE SMOOTH",
"1087 0 LINE",
"1257 0 LINE",
"1257 623 LINE SMOOTH",
"1257 867 OFFCURVE",
"1323 967 OFFCURVE",
"1468 967 CURVE SMOOTH",
"1583 967 OFFCURVE",
"1623 879 OFFCURVE",
"1623 707 CURVE SMOOTH",
"1623 0 LINE",
"1793 0 LINE",
"1793 715 LINE SMOOTH",
"1793 984 OFFCURVE",
"1693 1118 OFFCURVE",
"1492 1118 CURVE SMOOTH",
"1381 1118 OFFCURVE",
"1287 1059 OFFCURVE",
"1231 934 CURVE",
"1226 934 LINE",
"1184 1057 OFFCURVE",
"1094 1118 OFFCURVE",
"956 1118 CURVE SMOOTH",
"845 1118 OFFCURVE",
"751 1059 OFFCURVE",
"695 934 CURVE",
"687 934 LINE",
"644 1057 OFFCURVE",
"555 1118 OFFCURVE",
"420 1118 CURVE SMOOTH",
"201 1118 OFFCURVE",
"80 944 OFFCURVE",
"80 628 CURVE",
"100 624 OFFCURVE",
"117 622 OFFCURVE",
"131 622 CURVE SMOOTH",
"147 622 OFFCURVE",
"165 625 OFFCURVE",
"184 630 CURVE",
"188 891 OFFCURVE",
"257 967 OFFCURVE",
"393 967 CURVE SMOOTH",
"508 967 OFFCURVE",
"551 879 OFFCURVE",
"551 707 CURVE SMOOTH",
"551 0 LINE"
);
}
);
width = 1953;
}
);
note = jv_Ga;
unicode = A992;
},
{
glyphname = jv_Ga_mu;
lastChange = "2016-11-10 17:42:50 +0000";
layers = (
{
layerId = "FB35F625-CAB4-4F3A-B203-D3E168293E5E";
paths = (
{
closed = 1;
nodes = (
"1525 -21 OFFCURVE",
"1643 147 OFFCURVE",
"1643 475 CURVE SMOOTH",
"1643 714 OFFCURVE",
"1568 880 OFFCURVE",
"1419 975 CURVE",
"1486 983 OFFCURVE",
"1541 987 OFFCURVE",
"1586 987 CURVE SMOOTH",
"1741 987 OFFCURVE",
"1804 960 OFFCURVE",
"1834 891 CURVE SMOOTH",
"1849 856 OFFCURVE",
"1856 795 OFFCURVE",
"1856 707 CURVE SMOOTH",
"1856 0 LINE",
"2026 0 LINE",
"2026 715 LINE SMOOTH",
"2026 984 OFFCURVE",
"1914 1118 OFFCURVE",
"1690 1118 CURVE SMOOTH",
"1570 1118 OFFCURVE",
"1284 1088 OFFCURVE",
"1155 1064 CURVE",
"1140 1045 OFFCURVE",
"1133 1023 OFFCURVE",
"1133 1000 CURVE SMOOTH",
"1133 977 OFFCURVE",
"1140 957 OFFCURVE",
"1155 938 CURVE",
"1206 938 OFFCURVE",
"1264 919 OFFCURVE",
"1328 881 CURVE SMOOTH",
"1456 805 OFFCURVE",
"1525 676 OFFCURVE",
"1525 509 CURVE SMOOTH",
"1525 257 OFFCURVE",
"1442 105 OFFCURVE",
"1309 105 CURVE SMOOTH",
"1272 105 OFFCURVE",
"1234 123 OFFCURVE",
"1195 158 CURVE",
"1195 377 LINE",
"1080 377 LINE",
"1080 158 LINE",
"1048 130 OFFCURVE",
"1017 106 OFFCURVE",
"970 106 CURVE SMOOTH",
"867 106 OFFCURVE",
"811 212 OFFCURVE",
"811 391 CURVE SMOOTH",
"811 715 LINE SMOOTH",
"811 984 OFFCURVE",
"713 1118 OFFCURVE",
"518 1118 CURVE SMOOTH",
"303 1118 OFFCURVE",
"175 942 OFFCURVE",
"175 654 CURVE SMOOTH",
"175 453 LINE",
"176 230 LINE",
"176 127 LINE",
"177 0 LINE",
"280 0 LINE",
"279 223 LINE",
"279 630 LINE SMOOTH",
"279 858 OFFCURVE",
"333 967 OFFCURVE",
"481 967 CURVE SMOOTH",
"597 967 OFFCURVE",
"641 902 OFFCURVE",
"641 707 CURVE SMOOTH",
"641 383 LINE SMOOTH",
"641 110 OFFCURVE",
"725 -20 OFFCURVE",
"928 -20 CURVE SMOOTH",
"1013 -20 OFFCURVE",
"1083 8 OFFCURVE",
"1137 64 CURVE",
"1210 -5 OFFCURVE",
"1253 -21 OFFCURVE",
"1316 -21 CURVE SMOOTH"
);
}
);
width = 2186;
}
);
note = jv_Ga_mu;
unicode = A993;
},
{
glyphname = jv_Nga;
lastChange = "2016-11-10 17:42:50 +0000";
layers = (
{
layerId = "FB35F625-CAB4-4F3A-B203-D3E168293E5E";
paths = (
{
closed = 1;
nodes = (
"1573 0 LINE",
"1573 715 LINE SMOOTH",
"1573 984 OFFCURVE",
"1473 1118 OFFCURVE",
"1272 1118 CURVE SMOOTH",
"1136 1118 OFFCURVE",
"1040 1054 OFFCURVE",
"984 926 CURVE",
"931 1051 OFFCURVE",
"843 1118 OFFCURVE",
"735 1118 CURVE SMOOTH",
"548 1118 OFFCURVE",
"435 909 OFFCURVE",
"435 661 CURVE SMOOTH",
"435 645 LINE",
"436 630 LINE",
"456 626 OFFCURVE",
"473 624 OFFCURVE",
"487 624 CURVE SMOOTH",
"503 624 OFFCURVE",
"521 627 OFFCURVE",
"540 632 CURVE",
"545 887 OFFCURVE",
"611 967 OFFCURVE",
"736 967 CURVE SMOOTH",
"863 967 OFFCURVE",
"928 880 OFFCURVE",
"932 632 CURVE SMOOTH",
"932 628 LINE",
"952 624 OFFCURVE",
"969 622 OFFCURVE",
"983 622 CURVE SMOOTH",
"999 622 OFFCURVE",
"1017 625 OFFCURVE",
"1036 630 CURVE",
"1036 641 LINE SMOOTH",
"1040 890 OFFCURVE",
"1112 967 OFFCURVE",
"1245 967 CURVE SMOOTH",
"1360 967 OFFCURVE",
"1403 879 OFFCURVE",
"1403 707 CURVE SMOOTH",
"1403 0 LINE"
);
},
{
closed = 1;
nodes = (
"865 -20 OFFCURVE",
"1027 92 OFFCURVE",
"1035 299 CURVE",
"1014 306 OFFCURVE",
"995 309 OFFCURVE",
"976 309 CURVE SMOOTH",
"957 309 OFFCURVE",
"938 306 OFFCURVE",
"920 299 CURVE",
"913 184 OFFCURVE",
"808 131 OFFCURVE",
"635 131 CURVE SMOOTH",
"423 131 OFFCURVE",
"335 218 OFFCURVE",
"335 391 CURVE SMOOTH",
"335 1098 LINE",
"165 1098 LINE",
"165 383 LINE SMOOTH",
"165 116 OFFCURVE",
"300 -20 OFFCURVE",
"593 -20 CURVE SMOOTH"
);
}
);
width = 1733;
}
);
note = jv_Nga;
unicode = A994;
},
{
glyphname = jv_Ca;
lastChange = "2016-11-10 17:42:50 +0000";
layers = (
{
layerId = "FB35F625-CAB4-4F3A-B203-D3E168293E5E";
paths = (
{
closed = 1;
nodes = (
"394 -20 OFFCURVE",
"483 67 OFFCURVE",
"515 196 CURVE",
"538 177 OFFCURVE",
"575 136 OFFCURVE",
"627 74 CURVE SMOOTH",
"678 11 OFFCURVE",
"744 -20 OFFCURVE",
"824 -20 CURVE SMOOTH",
"1009 -20 OFFCURVE",
"1120 132 OFFCURVE",
"1120 383 CURVE SMOOTH",
"1120 627 LINE SMOOTH",
"1120 781 OFFCURVE",
"1082 895 OFFCURVE",
"1005 968 CURVE",
"1101 981 OFFCURVE",
"1175 987 OFFCURVE",
"1226 987 CURVE SMOOTH",
"1381 987 OFFCURVE",
"1444 960 OFFCURVE",
"1474 891 CURVE SMOOTH",
"1489 856 OFFCURVE",
"1496 795 OFFCURVE",
"1496 707 CURVE SMOOTH",
"1496 0 LINE",
"1666 0 LINE",
"1666 715 LINE SMOOTH",
"1666 984 OFFCURVE",
"1554 1118 OFFCURVE",
"1330 1118 CURVE SMOOTH",
"1220 1118 OFFCURVE",
"1041 1100 OFFCURVE",
"792 1064 CURVE",
"777 1049 OFFCURVE",
"769 1030 OFFCURVE",
"769 1007 CURVE SMOOTH",
"769 982 OFFCURVE",
"777 959 OFFCURVE",
"794 938 CURVE",
"923 938 OFFCURVE",
"1005 822 OFFCURVE",
"1005 623 CURVE SMOOTH",
"1005 434 LINE SMOOTH",
"1005 313 OFFCURVE",
"992 229 OFFCURVE",
"966 183 CURVE SMOOTH",
"940 136 OFFCURVE",
"897 113 OFFCURVE",
"838 113 CURVE SMOOTH",
"772 113 OFFCURVE",
"713 143 OFFCURVE",
"661 203 CURVE SMOOTH",
"609 262 OFFCURVE",
"565 303 OFFCURVE",
"530 324 CURVE",
"530 1098 LINE",
"360 1098 LINE",
"360 372 LINE",
"350 373 LINE",
"339 373 LINE SMOOTH",
"186 373 OFFCURVE",
"100 306 OFFCURVE",
"100 178 CURVE SMOOTH",
"100 65 OFFCURVE",
"185 -20 OFFCURVE",
"290 -20 CURVE SMOOTH"
);
},
{
closed = 1;
nodes = (
"238 113 OFFCURVE",
"214 135 OFFCURVE",
"214 178 CURVE SMOOTH",
"214 235 OFFCURVE",
"245 262 OFFCURVE",
"320 262 CURVE",
"360 260 LINE",
"360 159 OFFCURVE",
"342 113 OFFCURVE",
"287 113 CURVE SMOOTH"
);
}
);
width = 1826;
}
);
note = jv_Ca;
unicode = A995;
},
{
glyphname = jv_Ca_mu;
lastChange = "2016-11-10 17:42:50 +0000";
layers = (
{
layerId = "FB35F625-CAB4-4F3A-B203-D3E168293E5E";
paths = (
{
closed = 1;
nodes = (
"600 -20 OFFCURVE",
"708 107 OFFCURVE",
"708 330 CURVE SMOOTH",
"708 725 LINE SMOOTH",
"708 886 OFFCURVE",
"749 967 OFFCURVE",
"832 967 CURVE SMOOTH",
"875 967 OFFCURVE",
"908 946 OFFCURVE",
"931 903 CURVE SMOOTH",
"954 860 OFFCURVE",
"965 781 OFFCURVE",
"965 667 CURVE SMOOTH",
"965 369 LINE SMOOTH",
"965 116 OFFCURVE",
"1053 -20 OFFCURVE",
"1233 -20 CURVE SMOOTH",
"1397 -20 OFFCURVE",
"1509 115 OFFCURVE",
"1509 322 CURVE SMOOTH",
"1509 591 LINE SMOOTH",
"1509 711 OFFCURVE",
"1552 782 OFFCURVE",
"1632 782 CURVE SMOOTH",
"1721 782 OFFCURVE",
"1760 715 OFFCURVE",
"1760 578 CURVE SMOOTH",
"1760 369 LINE SMOOTH",
"1760 106 OFFCURVE",
"1849 -20 OFFCURVE",
"2065 -20 CURVE SMOOTH",
"2148 -20 OFFCURVE",
"2223 -4 OFFCURVE",
"2291 29 CURVE",
"2340 -4 OFFCURVE",
"2394 -20 OFFCURVE",
"2454 -20 CURVE SMOOTH",
"2585 -20 OFFCURVE",
"2660 52 OFFCURVE",
"2660 179 CURVE SMOOTH",
"2660 235 OFFCURVE",
"2635 305 OFFCURVE",
"2570 354 CURVE",
"2588 398 OFFCURVE",
"2597 447 OFFCURVE",
"2597 500 CURVE SMOOTH",
"2597 635 OFFCURVE",
"2495 743 OFFCURVE",
"2384 743 CURVE SMOOTH",
"2232 743 OFFCURVE",
"2135 618 OFFCURVE",
"2135 410 CURVE SMOOTH",
"2135 305 OFFCURVE",
"2154 216 OFFCURVE",
"2191 144 CURVE",
"2159 135 OFFCURVE",
"2121 131 OFFCURVE",
"2076 131 CURVE SMOOTH",
"1953 131 OFFCURVE",
"1930 190 OFFCURVE",
"1930 369 CURVE SMOOTH",
"1930 527 LINE SMOOTH",
"1930 787 OFFCURVE",
"1831 933 OFFCURVE",
"1662 933 CURVE SMOOTH",
"1489 933 OFFCURVE",
"1394 778 OFFCURVE",
"1394 493 CURVE SMOOTH",
"1394 301 LINE SMOOTH",
"1394 194 OFFCURVE",
"1344 131 OFFCURVE",
"1259 131 CURVE SMOOTH",
"1168 131 OFFCURVE",
"1135 192 OFFCURVE",
"1135 349 CURVE SMOOTH",
"1135 671 LINE SMOOTH",
"1135 955 OFFCURVE",
"1037 1118 OFFCURVE",
"862 1118 CURVE SMOOTH",
"697 1118 OFFCURVE",
"598 969 OFFCURVE",
"598 717 CURVE SMOOTH",
"598 275 LINE SMOOTH",
"598 187 OFFCURVE",
"544 131 OFFCURVE",
"459 131 CURVE SMOOTH",
"379 131 OFFCURVE",
"330 188 OFFCURVE",
"330 308 CURVE SMOOTH",
"330 721 LINE SMOOTH",
"330 885 OFFCURVE",
"376 969 OFFCURVE",
"488 969 CURVE",
"495 1000 OFFCURVE",
"499 1024 OFFCURVE",
"499 1043 CURVE SMOOTH",
"499 1058 OFFCURVE",
"495 1083 OFFCURVE",
"488 1118 CURVE",
"276 1118 OFFCURVE",
"160 978 OFFCURVE",
"160 717 CURVE SMOOTH",
"160 329 LINE SMOOTH",
"160 102 OFFCURVE",
"261 -20 OFFCURVE",
"433 -20 CURVE SMOOTH"
);
},
{
closed = 1;
nodes = (
"2467 90 OFFCURVE",
"2442 99 OFFCURVE",
"2417 117 CURVE",
"2459 158 OFFCURVE",
"2494 204 OFFCURVE",
"2523 253 CURVE",
"2547 232 OFFCURVE",
"2559 205 OFFCURVE",
"2559 172 CURVE SMOOTH",
"2559 124 OFFCURVE",
"2530 90 OFFCURVE",
"2493 90 CURVE SMOOTH"
);
},
{
closed = 1;
nodes = (
"2316 266 OFFCURVE",
"2304 327 OFFCURVE",
"2304 398 CURVE SMOOTH",
"2304 462 OFFCURVE",
"2313 514 OFFCURVE",
"2332 554 CURVE SMOOTH",
"2350 593 OFFCURVE",
"2372 613 OFFCURVE",
"2399 613 CURVE SMOOTH",
"2442 613 OFFCURVE",
"2476 572 OFFCURVE",
"2476 483 CURVE SMOOTH",
"2476 391 OFFCURVE",
"2423 291 OFFCURVE",
"2339 215 CURVE"
);
}
);
width = 2820;
}
);
note = jv_Ca_mu;
unicode = A996;
},
{
glyphname = jv_Ja;
lastChange = "2016-11-10 17:42:50 +0000";
layers = (
{
layerId = "FB35F625-CAB4-4F3A-B203-D3E168293E5E";
paths = (
{
closed = 1;
nodes = (
"755 -19 OFFCURVE",
"848 -7 OFFCURVE",
"921 18 CURVE SMOOTH",
"1065 67 OFFCURVE",
"1126 142 OFFCURVE",
"1126 299 CURVE",
"1106 306 OFFCURVE",
"1086 309 OFFCURVE",
"1067 309 CURVE SMOOTH",
"1047 309 OFFCURVE",
"1028 306 OFFCURVE",
"1011 299 CURVE",
"994 182 OFFCURVE",
"972 140 OFFCURVE",
"892 140 CURVE SMOOTH",
"857 140 OFFCURVE",
"829 171 OFFCURVE",
"808 232 CURVE SMOOTH",
"787 293 OFFCURVE",
"776 371 OFFCURVE",
"776 468 CURVE SMOOTH",
"776 496 LINE",
"1057 496 LINE SMOOTH",
"1253 496 OFFCURVE",
"1352 406 OFFCURVE",
"1352 217 CURVE SMOOTH",
"1352 0 LINE",
"1522 0 LINE",
"1522 211 LINE SMOOTH",
"1522 458 OFFCURVE",
"1363 610 OFFCURVE",
"1096 610 CURVE SMOOTH",
"793 610 LINE",
"1100 742 OFFCURVE",
"1433 913 OFFCURVE",
"1481 969 CURVE",
"1488 1004 OFFCURVE",
"1492 1029 OFFCURVE",
"1492 1044 CURVE SMOOTH",
"1492 1063 OFFCURVE",
"1488 1087 OFFCURVE",
"1481 1118 CURVE",
"976 1118 LINE SMOOTH",
"751 1118 OFFCURVE",
"635 962 OFFCURVE",
"632 669 CURVE",
"611 661 OFFCURVE",
"592 654 OFFCURVE",
"577 647 CURVE SMOOTH",
"537 630 LINE SMOOTH",
"513 619 OFFCURVE",
"497 613 OFFCURVE",
"478 610 CURVE",
"478 496 LINE",
"632 496 LINE",
"632 443 LINE SMOOTH",
"632 308 OFFCURVE",
"662 215 OFFCURVE",
"709 132 CURVE",
"704 132 OFFCURVE",
"698 131 OFFCURVE",
"691 130 CURVE SMOOTH",
"684 129 OFFCURVE",
"678 128 OFFCURVE",
"673 128 CURVE SMOOTH",
"442 128 OFFCURVE",
"335 202 OFFCURVE",
"335 391 CURVE SMOOTH",
"335 1098 LINE",
"165 1098 LINE",
"165 383 LINE SMOOTH",
"165 100 OFFCURVE",
"318 -19 OFFCURVE",
"642 -19 CURVE SMOOTH"
);
},
{
closed = 1;
nodes = (
"780 892 OFFCURVE",
"828 969 OFFCURVE",
"976 969 CURVE SMOOTH",
"1283 969 LINE",
"1146 886 OFFCURVE",
"980 803 OFFCURVE",
"777 715 CURVE"
);
}
);
width = 1682;
}
);
note = jv_Ja;
unicode = A997;
},
{
glyphname = jv_Nya_mu;
lastChange = "2016-11-10 17:42:50 +0000";
layers = (
{
layerId = "FB35F625-CAB4-4F3A-B203-D3E168293E5E";
paths = (
{
closed = 1;
nodes = (
"755 -19 OFFCURVE",
"848 -7 OFFCURVE",
"921 18 CURVE SMOOTH",
"1065 67 OFFCURVE",
"1126 142 OFFCURVE",
"1126 299 CURVE",
"1106 306 OFFCURVE",
"1086 309 OFFCURVE",
"1067 309 CURVE SMOOTH",
"1047 309 OFFCURVE",
"1028 306 OFFCURVE",
"1011 299 CURVE",
"994 182 OFFCURVE",
"972 140 OFFCURVE",
"892 140 CURVE SMOOTH",
"857 140 OFFCURVE",
"829 171 OFFCURVE",
"808 232 CURVE SMOOTH",
"787 293 OFFCURVE",
"776 371 OFFCURVE",
"776 468 CURVE SMOOTH",
"776 496 LINE",
"1057 496 LINE SMOOTH",
"1253 496 OFFCURVE",
"1352 406 OFFCURVE",
"1352 217 CURVE SMOOTH",
"1352 0 LINE",
"1522 0 LINE",
"1522 211 LINE SMOOTH",
"1522 458 OFFCURVE",
"1363 610 OFFCURVE",
"1096 610 CURVE SMOOTH",
"793 610 LINE",
"1100 742 OFFCURVE",
"1433 913 OFFCURVE",
"1481 969 CURVE",
"1488 1004 OFFCURVE",
"1492 1029 OFFCURVE",
"1492 1044 CURVE SMOOTH",
"1492 1063 OFFCURVE",
"1488 1087 OFFCURVE",
"1481 1118 CURVE",
"976 1118 LINE SMOOTH",
"751 1118 OFFCURVE",
"635 962 OFFCURVE",
"632 669 CURVE",
"611 661 OFFCURVE",
"592 654 OFFCURVE",
"577 647 CURVE SMOOTH",
"537 630 LINE SMOOTH",
"513 619 OFFCURVE",
"497 613 OFFCURVE",
"478 610 CURVE",
"478 496 LINE",
"632 496 LINE",
"632 443 LINE SMOOTH",
"632 308 OFFCURVE",
"662 215 OFFCURVE",
"709 132 CURVE",
"704 132 OFFCURVE",
"698 131 OFFCURVE",
"691 130 CURVE SMOOTH",
"684 129 OFFCURVE",
"678 128 OFFCURVE",
"673 128 CURVE SMOOTH",
"442 128 OFFCURVE",
"335 202 OFFCURVE",
"335 391 CURVE SMOOTH",
"335 1098 LINE",
"165 1098 LINE",
"165 383 LINE SMOOTH",
"165 100 OFFCURVE",
"318 -19 OFFCURVE",
"642 -19 CURVE SMOOTH"
);
},
{
closed = 1;
nodes = (
"944 -632 OFFCURVE",
"972 -627 OFFCURVE",
"1006 -616 CURVE",
"1006 -580 LINE SMOOTH",
"1006 -483 OFFCURVE",
"996 -409 OFFCURVE",
"975 -358 CURVE SMOOTH",
"934 -258 OFFCURVE",
"875 -220 OFFCURVE",
"723 -204 CURVE SMOOTH",
"646 -196 OFFCURVE",
"608 -151 OFFCURVE",
"608 -70 CURVE",
"588 -63 OFFCURVE",
"568 -60 OFFCURVE",
"549 -60 CURVE SMOOTH",
"529 -60 OFFCURVE",
"510 -63 OFFCURVE",
"493 -70 CURVE",
"493 -207 OFFCURVE",
"526 -277 OFFCURVE",
"662 -306 CURVE SMOOTH",
"797 -335 OFFCURVE",
"837 -421 OFFCURVE",
"837 -588 CURVE SMOOTH",
"837 -616 LINE",
"871 -627 OFFCURVE",
"899 -632 OFFCURVE",
"922 -632 CURVE SMOOTH"
);
},
{
closed = 1;
nodes = (
"780 892 OFFCURVE",
"828 969 OFFCURVE",
"976 969 CURVE SMOOTH",
"1283 969 LINE",
"1146 886 OFFCURVE",
"980 803 OFFCURVE",
"777 715 CURVE"
);
}
);
width = 1682;
}
);
note = jv_Nya_mu;
unicode = A998;
},
{
glyphname = jv_Jha;
lastChange = "2016-11-10 17:42:50 +0000";
layers = (
{
layerId = "FB35F625-CAB4-4F3A-B203-D3E168293E5E";
paths = (
{
closed = 1;
nodes = (
"1804 -1118 OFFCURVE",
"1941 -985 OFFCURVE",
"1941 -657 CURVE SMOOTH",
"1941 960 LINE",
"2158 908 OFFCURVE",
"2286 807 OFFCURVE",
"2286 706 CURVE SMOOTH",
"2286 617 OFFCURVE",
"2173 537 OFFCURVE",
"2020 532 CURVE",
"2015 509 OFFCURVE",
"2012 491 OFFCURVE",
"2012 476 CURVE SMOOTH",
"2012 460 OFFCURVE",
"2015 441 OFFCURVE",
"2020 418 CURVE",
"2047 418 LINE SMOOTH",
"2294 422 OFFCURVE",
"2464 531 OFFCURVE",
"2464 682 CURVE SMOOTH",
"2464 857 OFFCURVE",
"2270 1015 OFFCURVE",
"1941 1087 CURVE",
"1941 1107 LINE SMOOTH",
"1941 1418 OFFCURVE",
"1785 1705 OFFCURVE",
"1554 1705 CURVE SMOOTH",
"1397 1705 OFFCURVE",
"1276 1584 OFFCURVE",
"1276 1425 CURVE SMOOTH",
"1276 1213 OFFCURVE",
"1460 1067 OFFCURVE",
"1827 987 CURVE",
"1827 -649 LINE SMOOTH",
"1827 -864 OFFCURVE",
"1777 -925 OFFCURVE",
"1636 -969 CURVE SMOOTH",
"1565 -992 OFFCURVE",
"1454 -1003 OFFCURVE",
"1303 -1003 CURVE SMOOTH",
"1068 -1003 OFFCURVE",
"911 -902 OFFCURVE",
"911 -717 CURVE SMOOTH",
"911 -552 OFFCURVE",
"1016 -445 OFFCURVE",
"1244 -408 CURVE SMOOTH",
"1472 -372 OFFCURVE",
"1573 -255 OFFCURVE",
"1573 -20 CURVE SMOOTH",
"1573 715 LINE SMOOTH",
"1573 984 OFFCURVE",
"1473 1118 OFFCURVE",
"1272 1118 CURVE SMOOTH",
"1136 1118 OFFCURVE",
"1040 1054 OFFCURVE",
"984 926 CURVE",
"931 1051 OFFCURVE",
"843 1118 OFFCURVE",
"735 1118 CURVE SMOOTH",
"540 1118 OFFCURVE",
"436 918 OFFCURVE",
"436 630 CURVE",
"456 626 OFFCURVE",
"473 624 OFFCURVE",
"487 624 CURVE SMOOTH",
"503 624 OFFCURVE",
"521 627 OFFCURVE",
"540 632 CURVE",
"545 887 OFFCURVE",
"611 967 OFFCURVE",
"736 967 CURVE SMOOTH",
"863 967 OFFCURVE",
"928 880 OFFCURVE",
"932 632 CURVE SMOOTH",
"932 628 LINE",
"952 624 OFFCURVE",
"969 622 OFFCURVE",
"983 622 CURVE SMOOTH",
"999 622 OFFCURVE",
"1017 625 OFFCURVE",
"1036 630 CURVE",
"1036 641 LINE SMOOTH",
"1040 890 OFFCURVE",
"1112 967 OFFCURVE",
"1245 967 CURVE SMOOTH",
"1360 967 OFFCURVE",
"1403 879 OFFCURVE",
"1403 707 CURVE SMOOTH",
"1403 -20 LINE SMOOTH",
"1403 -175 OFFCURVE",
"1355 -260 OFFCURVE",
"1193 -291 CURVE SMOOTH",
"1112 -307 OFFCURVE",
"1041 -333 OFFCURVE",
"981 -369 CURVE SMOOTH",
"861 -442 OFFCURVE",
"796 -555 OFFCURVE",
"796 -715 CURVE SMOOTH",
"796 -984 OFFCURVE",
"999 -1118 OFFCURVE",
"1404 -1118 CURVE SMOOTH"
);
},
{
closed = 1;
nodes = (
"865 -20 OFFCURVE",
"1027 92 OFFCURVE",
"1035 299 CURVE",
"1014 306 OFFCURVE",
"995 309 OFFCURVE",
"976 309 CURVE SMOOTH",
"957 309 OFFCURVE",
"938 306 OFFCURVE",
"920 299 CURVE",
"913 184 OFFCURVE",
"808 131 OFFCURVE",
"635 131 CURVE SMOOTH",
"423 131 OFFCURVE",
"335 218 OFFCURVE",
"335 391 CURVE SMOOTH",
"335 1098 LINE",
"165 1098 LINE",
"165 383 LINE SMOOTH",
"165 116 OFFCURVE",
"300 -20 OFFCURVE",
"593 -20 CURVE SMOOTH"
);
},
{
closed = 1;
nodes = (
"1528 1182 OFFCURVE",
"1405 1285 OFFCURVE",
"1405 1444 CURVE SMOOTH",
"1405 1543 OFFCURVE",
"1459 1589 OFFCURVE",
"1535 1589 CURVE SMOOTH",
"1690 1589 OFFCURVE",
"1795 1392 OFFCURVE",
"1815 1117 CURVE"
);
}
);
width = 2614;
}
);
note = jv_Jha;
unicode = A999;
},
{
glyphname = jv_Nya;
lastChange = "2016-11-10 17:42:50 +0000";
layers = (
{
layerId = "FB35F625-CAB4-4F3A-B203-D3E168293E5E";
paths = (
{
closed = 1;
nodes = (
"1573 0 LINE",
"1573 606 LINE SMOOTH",
"1573 867 OFFCURVE",
"1637 967 OFFCURVE",
"1784 967 CURVE SMOOTH",
"1899 967 OFFCURVE",
"1939 879 OFFCURVE",
"1939 707 CURVE SMOOTH",
"1939 0 LINE",
"2109 0 LINE",
"2109 623 LINE SMOOTH",
"2109 867 OFFCURVE",
"2175 967 OFFCURVE",
"2320 967 CURVE SMOOTH",
"2435 967 OFFCURVE",
"2475 879 OFFCURVE",
"2475 707 CURVE SMOOTH",
"2475 0 LINE",
"2645 0 LINE",
"2645 715 LINE SMOOTH",
"2645 984 OFFCURVE",
"2545 1118 OFFCURVE",
"2344 1118 CURVE SMOOTH",
"2233 1118 OFFCURVE",
"2139 1059 OFFCURVE",
"2083 934 CURVE",
"2075 934 LINE",
"2027 1061 OFFCURVE",
"1927 1118 OFFCURVE",
"1808 1118 CURVE SMOOTH",
"1697 1118 OFFCURVE",
"1603 1059 OFFCURVE",
"1547 934 CURVE",
"1540 934 LINE",
"1498 1057 OFFCURVE",
"1409 1118 OFFCURVE",
"1272 1118 CURVE SMOOTH",
"1136 1118 OFFCURVE",
"1040 1054 OFFCURVE",
"984 926 CURVE",
"931 1051 OFFCURVE",
"843 1118 OFFCURVE",
"735 1118 CURVE SMOOTH",
"548 1118 OFFCURVE",
"435 909 OFFCURVE",
"435 661 CURVE SMOOTH",
"435 645 LINE",
"436 630 LINE",
"456 626 OFFCURVE",
"473 624 OFFCURVE",
"487 624 CURVE SMOOTH",
"503 624 OFFCURVE",
"521 627 OFFCURVE",
"540 632 CURVE",
"545 887 OFFCURVE",
"611 967 OFFCURVE",
"736 967 CURVE SMOOTH",
"863 967 OFFCURVE",
"928 881 OFFCURVE",
"932 628 CURVE",
"952 624 OFFCURVE",
"969 622 OFFCURVE",
"983 622 CURVE SMOOTH",
"999 622 OFFCURVE",
"1017 625 OFFCURVE",
"1036 630 CURVE",
"1040 894 OFFCURVE",
"1112 967 OFFCURVE",
"1245 967 CURVE SMOOTH",
"1360 967 OFFCURVE",
"1403 879 OFFCURVE",
"1403 707 CURVE SMOOTH",
"1403 0 LINE"
);
},
{
closed = 1;
nodes = (
"865 -20 OFFCURVE",
"1027 92 OFFCURVE",
"1035 299 CURVE",
"1014 306 OFFCURVE",
"995 309 OFFCURVE",
"976 309 CURVE SMOOTH",
"957 309 OFFCURVE",
"938 306 OFFCURVE",
"920 299 CURVE",
"913 184 OFFCURVE",
"808 131 OFFCURVE",
"635 131 CURVE SMOOTH",
"423 131 OFFCURVE",
"335 218 OFFCURVE",
"335 391 CURVE SMOOTH",
"335 1098 LINE",
"165 1098 LINE",
"165 383 LINE SMOOTH",
"165 116 OFFCURVE",
"300 -20 OFFCURVE",
"593 -20 CURVE SMOOTH"
);
}
);
width = 2805;
}
);
note = jv_Nya;
unicode = A99A;
},
{
glyphname = jv_Tha;
lastChange = "2016-11-10 17:42:50 +0000";
layers = (
{
layerId = "FB35F625-CAB4-4F3A-B203-D3E168293E5E";
paths = (
{
closed = 1;
nodes = (
"1573 0 LINE",
"1573 715 LINE SMOOTH",
"1573 984 OFFCURVE",
"1473 1118 OFFCURVE",
"1272 1118 CURVE SMOOTH",
"1136 1118 OFFCURVE",
"1040 1054 OFFCURVE",
"984 926 CURVE",
"931 1051 OFFCURVE",
"843 1118 OFFCURVE",
"735 1118 CURVE SMOOTH",
"548 1118 OFFCURVE",
"435 909 OFFCURVE",
"435 661 CURVE SMOOTH",
"435 645 LINE",
"436 630 LINE",
"456 626 OFFCURVE",
"473 624 OFFCURVE",
"487 624 CURVE SMOOTH",
"503 624 OFFCURVE",
"521 627 OFFCURVE",
"540 632 CURVE",
"545 887 OFFCURVE",
"611 967 OFFCURVE",
"736 967 CURVE SMOOTH",
"863 967 OFFCURVE",
"928 880 OFFCURVE",
"932 632 CURVE SMOOTH",
"932 628 LINE",
"952 624 OFFCURVE",
"969 622 OFFCURVE",
"983 622 CURVE SMOOTH",
"999 622 OFFCURVE",
"1017 625 OFFCURVE",
"1036 630 CURVE",
"1036 641 LINE SMOOTH",
"1040 890 OFFCURVE",
"1112 967 OFFCURVE",
"1245 967 CURVE SMOOTH",
"1360 967 OFFCURVE",
"1403 879 OFFCURVE",
"1403 707 CURVE SMOOTH",
"1403 0 LINE"
);
},
{
closed = 1;
nodes = (
"972 -309 OFFCURVE",
"1057 -228 OFFCURVE",
"1062 -128 CURVE",
"1042 -123 OFFCURVE",
"1024 -120 OFFCURVE",
"1007 -120 CURVE SMOOTH",
"990 -120 OFFCURVE",
"971 -123 OFFCURVE",
"948 -128 CURVE",
"945 -163 OFFCURVE",
"915 -195 OFFCURVE",
"858 -195 CURVE SMOOTH",
"803 -195 OFFCURVE",
"770 -157 OFFCURVE",
"770 -89 CURVE SMOOTH",
"770 -58 OFFCURVE",
"777 -27 OFFCURVE",
"790 4 CURVE",
"939 47 OFFCURVE",
"1027 147 OFFCURVE",
"1035 299 CURVE",
"1010 306 OFFCURVE",
"991 310 OFFCURVE",
"976 310 CURVE SMOOTH",
"872 310 OFFCURVE",
"776 255 OFFCURVE",
"712 135 CURVE",
"631 132 LINE",
"420 132 OFFCURVE",
"335 222 OFFCURVE",
"335 391 CURVE SMOOTH",
"335 1098 LINE",
"165 1098 LINE",
"165 383 LINE SMOOTH",
"165 114 OFFCURVE",
"306 -20 OFFCURVE",
"589 -20 CURVE",
"668 -17 LINE",
"665 -72 LINE",
"665 -208 OFFCURVE",
"750 -309 OFFCURVE",
"867 -309 CURVE SMOOTH"
);
}
);
width = 1733;
}
);
note = jv_Tha;
unicode = A99B;
},
{
glyphname = jv_Ttha;
lastChange = "2016-11-10 17:42:50 +0000";
layers = (
{
layerId = "FB35F625-CAB4-4F3A-B203-D3E168293E5E";
paths = (
{
closed = 1;
nodes = (
"1573 0 LINE",
"1573 715 LINE SMOOTH",
"1573 984 OFFCURVE",
"1473 1118 OFFCURVE",
"1273 1118 CURVE SMOOTH",
"1138 1118 OFFCURVE",
"1041 1054 OFFCURVE",
"984 926 CURVE",
"929 1054 OFFCURVE",
"846 1118 OFFCURVE",
"734 1118 CURVE SMOOTH",
"545 1118 OFFCURVE",
"435 904 OFFCURVE",
"435 661 CURVE SMOOTH",
"435 645 LINE",
"436 630 LINE",
"456 626 OFFCURVE",
"473 624 OFFCURVE",
"487 624 CURVE SMOOTH",
"503 624 OFFCURVE",
"521 627 OFFCURVE",
"540 632 CURVE",
"544 880 OFFCURVE",
"609 967 OFFCURVE",
"734 967 CURVE SMOOTH",
"866 967 OFFCURVE",
"932 865 OFFCURVE",
"932 628 CURVE",
"952 624 OFFCURVE",
"969 622 OFFCURVE",
"983 622 CURVE SMOOTH",
"999 622 OFFCURVE",
"1017 625 OFFCURVE",
"1036 630 CURVE",
"1041 882 OFFCURVE",
"1104 967 OFFCURVE",
"1239 967 CURVE SMOOTH",
"1358 967 OFFCURVE",
"1403 890 OFFCURVE",
"1403 707 CURVE SMOOTH",
"1403 0 LINE"
);
},
{
closed = 1;
nodes = (
"817 153 OFFCURVE",
"797 187 OFFCURVE",
"797 226 CURVE SMOOTH",
"797 265 OFFCURVE",
"822 294 OFFCURVE",
"865 294 CURVE SMOOTH",
"914 294 OFFCURVE",
"956 250 OFFCURVE",
"956 205 CURVE SMOOTH",
"956 164 OFFCURVE",
"923 136 OFFCURVE",
"856 123 CURVE"
);
},
{
closed = 1;
nodes = (
"784 -20 OFFCURVE",
"894 0 OFFCURVE",
"965 39 CURVE SMOOTH",
"1035 78 OFFCURVE",
"1070 132 OFFCURVE",
"1070 201 CURVE SMOOTH",
"1070 314 OFFCURVE",
"975 409 OFFCURVE",
"863 409 CURVE SMOOTH",
"763 409 OFFCURVE",
"686 328 OFFCURVE",
"686 225 CURVE SMOOTH",
"686 184 OFFCURVE",
"698 146 OFFCURVE",
"722 111 CURVE",
"478 111 OFFCURVE",
"335 206 OFFCURVE",
"335 375 CURVE SMOOTH",
"335 1098 LINE",
"165 1098 LINE",
"165 383 LINE SMOOTH",
"165 107 OFFCURVE",
"286 -20 OFFCURVE",
"634 -20 CURVE SMOOTH"
);
}
);
width = 1732;
}
);
note = jv_Ttha;
unicode = A99C;
},
{
glyphname = jv_Dda;
lastChange = "2016-11-10 17:42:50 +0000";
layers = (
{
layerId = "FB35F625-CAB4-4F3A-B203-D3E168293E5E";
paths = (
{
closed = 1;
nodes = (
"1063 -21 OFFCURVE",
"1177 155 OFFCURVE",
"1177 475 CURVE SMOOTH",
"1177 630 LINE SMOOTH",
"1177 769 OFFCURVE",
"1187 860 OFFCURVE",
"1208 903 CURVE SMOOTH",
"1229 946 OFFCURVE",
"1263 967 OFFCURVE",
"1312 967 CURVE SMOOTH",
"1353 967 OFFCURVE",
"1385 946 OFFCURVE",
"1406 905 CURVE SMOOTH",
"1427 864 OFFCURVE",
"1437 798 OFFCURVE",
"1437 707 CURVE SMOOTH",
"1437 0 LINE",
"1607 0 LINE",
"1607 715 LINE SMOOTH",
"1607 983 OFFCURVE",
"1514 1118 OFFCURVE",
"1349 1118 CURVE SMOOTH",
"1156 1118 OFFCURVE",
"1059 995 OFFCURVE",
"1059 654 CURVE SMOOTH",
"1059 509 LINE SMOOTH",
"1059 258 OFFCURVE",
"975 105 OFFCURVE",
"843 105 CURVE SMOOTH",
"806 105 OFFCURVE",
"768 123 OFFCURVE",
"729 158 CURVE",
"729 377 LINE",
"614 377 LINE",
"614 158 LINE",
"582 130 OFFCURVE",
"551 106 OFFCURVE",
"504 106 CURVE SMOOTH",
"405 106 OFFCURVE",
"345 207 OFFCURVE",
"345 391 CURVE SMOOTH",
"345 1098 LINE",
"175 1098 LINE",
"175 383 LINE SMOOTH",
"175 108 OFFCURVE",
"258 -20 OFFCURVE",
"462 -20 CURVE SMOOTH",
"553 -20 OFFCURVE",
"616 8 OFFCURVE",
"671 64 CURVE",
"748 -8 OFFCURVE",
"790 -21 OFFCURVE",
"850 -21 CURVE SMOOTH"
);
}
);
width = 1767;
}
);
note = jv_Dda;
unicode = A99D;
},
{
glyphname = jv_Ddha;
lastChange = "2016-11-10 17:42:50 +0000";
layers = (
{
layerId = "FB35F625-CAB4-4F3A-B203-D3E168293E5E";
paths = (
{
closed = 1;
nodes = (
"617 -20 OFFCURVE",
"711 40 OFFCURVE",
"783 153 CURVE SMOOTH",
"818 210 OFFCURVE",
"850 238 OFFCURVE",
"878 238 CURVE SMOOTH",
"907 238 OFFCURVE",
"938 210 OFFCURVE",
"971 155 CURVE SMOOTH",
"1036 43 OFFCURVE",
"1115 -20 OFFCURVE",
"1239 -20 CURVE SMOOTH",
"1508 -20 OFFCURVE",
"1675 189 OFFCURVE",
"1675 524 CURVE SMOOTH",
"1675 765 OFFCURVE",
"1568 999 OFFCURVE",
"1415 1119 CURVE",
"1383 1100 OFFCURVE",
"1360 1081 OFFCURVE",
"1335 1038 CURVE",
"1467 931 OFFCURVE",
"1561 720 OFFCURVE",
"1561 515 CURVE SMOOTH",
"1561 270 OFFCURVE",
"1439 96 OFFCURVE",
"1250 96 CURVE SMOOTH",
"1159 96 OFFCURVE",
"1104 146 OFFCURVE",
"1041 252 CURVE SMOOTH",
"977 358 OFFCURVE",
"933 379 OFFCURVE",
"881 379 CURVE SMOOTH",
"829 379 OFFCURVE",
"782 344 OFFCURVE",
"741 274 CURVE SMOOTH",
"657 133 OFFCURVE",
"589 96 OFFCURVE",
"494 96 CURVE SMOOTH",
"375 96 OFFCURVE",
"335 184 OFFCURVE",
"335 391 CURVE SMOOTH",
"335 1098 LINE",
"165 1098 LINE",
"165 383 LINE SMOOTH",
"165 82 OFFCURVE",
"245 -20 OFFCURVE",
"476 -20 CURVE SMOOTH"
);
}
);
width = 1795;
}
);
note = jv_Ddha;
unicode = A99E;
},
{
glyphname = jv_Na_mu;
lastChange = "2016-11-10 17:42:50 +0000";
layers = (
{
layerId = "FB35F625-CAB4-4F3A-B203-D3E168293E5E";
paths = (
{
closed = 1;
nodes = (
"721 0 LINE",
"721 606 LINE SMOOTH",
"721 867 OFFCURVE",
"785 967 OFFCURVE",
"932 967 CURVE SMOOTH",
"1047 967 OFFCURVE",
"1087 879 OFFCURVE",
"1087 707 CURVE SMOOTH",
"1087 0 LINE",
"1257 0 LINE",
"1257 623 LINE SMOOTH",
"1257 867 OFFCURVE",
"1323 967 OFFCURVE",
"1468 967 CURVE SMOOTH",
"1583 967 OFFCURVE",
"1623 879 OFFCURVE",
"1623 707 CURVE SMOOTH",
"1623 0 LINE",
"1793 0 LINE",
"1793 670 LINE SMOOTH",
"1793 868 OFFCURVE",
"1860 967 OFFCURVE",
"1994 967 CURVE SMOOTH",
"2109 967 OFFCURVE",
"2159 902 OFFCURVE",
"2159 707 CURVE SMOOTH",
"2159 0 LINE",
"2329 0 LINE",
"2329 715 LINE SMOOTH",
"2329 980 OFFCURVE",
"2227 1118 OFFCURVE",
"2031 1118 CURVE SMOOTH",
"1910 1118 OFFCURVE",
"1820 1064 OFFCURVE",
"1761 957 CURVE",
"1753 957 LINE",
"1708 1064 OFFCURVE",
"1621 1118 OFFCURVE",
"1492 1118 CURVE SMOOTH",
"1375 1118 OFFCURVE",
"1289 1057 OFFCURVE",
"1234 934 CURVE",
"1226 934 LINE",
"1184 1057 OFFCURVE",
"1094 1118 OFFCURVE",
"956 1118 CURVE SMOOTH",
"845 1118 OFFCURVE",
"751 1059 OFFCURVE",
"695 934 CURVE",
"687 934 LINE",
"644 1057 OFFCURVE",
"555 1118 OFFCURVE",
"420 1118 CURVE SMOOTH",
"201 1118 OFFCURVE",
"80 944 OFFCURVE",
"80 628 CURVE",
"100 624 OFFCURVE",
"117 622 OFFCURVE",
"131 622 CURVE SMOOTH",
"147 622 OFFCURVE",
"165 625 OFFCURVE",
"184 630 CURVE",
"188 891 OFFCURVE",
"257 967 OFFCURVE",
"393 967 CURVE SMOOTH",
"508 967 OFFCURVE",
"551 879 OFFCURVE",
"551 707 CURVE SMOOTH",
"551 0 LINE"
);
}
);
width = 2489;
}
);
note = jv_Na_mu;
unicode = A99F;
},
{
glyphname = jv_Ta;
lastChange = "2016-11-10 17:42:50 +0000";
layers = (
{
layerId = "FB35F625-CAB4-4F3A-B203-D3E168293E5E";
paths = (
{
closed = 1;
nodes = (
"770 -20 OFFCURVE",
"916 106 OFFCURVE",
"916 321 CURVE SMOOTH",
"916 403 LINE SMOOTH",
"916 615 OFFCURVE",
"847 706 OFFCURVE",
"680 729 CURVE",
"707 893 OFFCURVE",
"800 975 OFFCURVE",
"960 975 CURVE SMOOTH",
"1120 975 OFFCURVE",
"1228 867 OFFCURVE",
"1228 707 CURVE SMOOTH",
"1228 0 LINE",
"1398 0 LINE",
"1398 623 LINE SMOOTH",
"1398 863 OFFCURVE",
"1469 967 OFFCURVE",
"1630 967 CURVE SMOOTH",
"1759 967 OFFCURVE",
"1813 883 OFFCURVE",
"1813 707 CURVE SMOOTH",
"1813 0 LINE",
"1983 0 LINE",
"1983 715 LINE SMOOTH",
"1983 984 OFFCURVE",
"1874 1118 OFFCURVE",
"1656 1118 CURVE SMOOTH",
"1515 1118 OFFCURVE",
"1426 1042 OFFCURVE",
"1363 917 CURVE",
"1355 917 LINE",
"1295 1040 OFFCURVE",
"1165 1118 OFFCURVE",
"1014 1118 CURVE SMOOTH",
"775 1118 OFFCURVE",
"575 932 OFFCURVE",
"575 705 CURVE SMOOTH",
"575 673 OFFCURVE",
"579 641 OFFCURVE",
"587 609 CURVE",
"720 606 OFFCURVE",
"748 586 OFFCURVE",
"777 519 CURVE SMOOTH",
"792 486 OFFCURVE",
"799 432 OFFCURVE",
"799 359 CURVE SMOOTH",
"799 304 LINE SMOOTH",
"799 181 OFFCURVE",
"738 131 OFFCURVE",
"567 131 CURVE SMOOTH",
"384 131 OFFCURVE",
"330 222 OFFCURVE",
"330 391 CURVE SMOOTH",
"330 1098 LINE",
"160 1098 LINE",
"160 383 LINE SMOOTH",
"160 106 OFFCURVE",
"268 -20 OFFCURVE",
"521 -20 CURVE SMOOTH"
);
}
);
width = 2142;
}
);
note = jv_Ta;
unicode = A9A0;
},
{
glyphname = jv_Ta_mu;
lastChange = "2016-11-10 17:42:50 +0000";
layers = (
{
layerId = "FB35F625-CAB4-4F3A-B203-D3E168293E5E";
paths = (
{
closed = 1;
nodes = (
"1057 -418 OFFCURVE",
"1146 -321 OFFCURVE",
"1171 -180 CURVE",
"1146 -161 OFFCURVE",
"1119 -152 OFFCURVE",
"1090 -152 CURVE SMOOTH",
"1082 -152 LINE",
"1073 -153 LINE",
"1061 -244 OFFCURVE",
"1023 -278 OFFCURVE",
"983 -278 CURVE SMOOTH",
"899 -278 OFFCURVE",
"864 -205 OFFCURVE",
"864 -65 CURVE SMOOTH",
"864 1 LINE",
"1081 50 OFFCURVE",
"1177 186 OFFCURVE",
"1177 475 CURVE SMOOTH",
"1177 714 OFFCURVE",
"1102 880 OFFCURVE",
"953 975 CURVE",
"1020 983 OFFCURVE",
"1075 987 OFFCURVE",
"1120 987 CURVE SMOOTH",
"1275 987 OFFCURVE",
"1338 960 OFFCURVE",
"1368 891 CURVE SMOOTH",
"1383 856 OFFCURVE",
"1390 795 OFFCURVE",
"1390 707 CURVE SMOOTH",
"1390 0 LINE",
"1560 0 LINE",
"1560 715 LINE SMOOTH",
"1560 984 OFFCURVE",
"1448 1118 OFFCURVE",
"1224 1118 CURVE SMOOTH",
"1104 1118 OFFCURVE",
"818 1088 OFFCURVE",
"689 1064 CURVE",
"674 1045 OFFCURVE",
"667 1023 OFFCURVE",
"667 1000 CURVE SMOOTH",
"667 977 OFFCURVE",
"674 957 OFFCURVE",
"689 938 CURVE",
"740 938 OFFCURVE",
"798 919 OFFCURVE",
"862 881 CURVE SMOOTH",
"990 805 OFFCURVE",
"1059 676 OFFCURVE",
"1059 509 CURVE SMOOTH",
"1059 296 OFFCURVE",
"999 187 OFFCURVE",
"864 136 CURVE",
"864 230 LINE SMOOTH",
"864 463 OFFCURVE",
"798 579 OFFCURVE",
"666 579 CURVE SMOOTH",
"558 579 OFFCURVE",
"469 482 OFFCURVE",
"444 341 CURVE",
"469 322 OFFCURVE",
"496 313 OFFCURVE",
"525 313 CURVE SMOOTH",
"533 313 LINE",
"542 314 LINE",
"554 405 OFFCURVE",
"592 439 OFFCURVE",
"632 439 CURVE SMOOTH",
"716 439 OFFCURVE",
"751 366 OFFCURVE",
"751 226 CURVE SMOOTH",
"751 111 LINE",
"714 108 OFFCURVE",
"683 106 OFFCURVE",
"658 106 CURVE SMOOTH",
"407 106 OFFCURVE",
"345 183 OFFCURVE",
"345 391 CURVE SMOOTH",
"345 1098 LINE",
"175 1098 LINE",
"175 383 LINE SMOOTH",
"175 274 OFFCURVE",
"190 192 OFFCURVE",
"220 137 CURVE SMOOTH",
"279 27 OFFCURVE",
"403 -20 OFFCURVE",
"650 -20 CURVE SMOOTH",
"685 -20 OFFCURVE",
"719 -19 OFFCURVE",
"751 -16 CURVE",
"751 -69 LINE SMOOTH",
"751 -302 OFFCURVE",
"817 -418 OFFCURVE",
"949 -418 CURVE SMOOTH"
);
}
);
width = 1720;
}
);
note = jv_Ta_mu;
unicode = A9A1;
},
{
glyphname = jv_Da;
lastChange = "2016-11-10 17:42:50 +0000";
layers = (
{
layerId = "FB35F625-CAB4-4F3A-B203-D3E168293E5E";
paths = (
{
closed = 1;
nodes = (
"535 -20 OFFCURVE",
"621 16 OFFCURVE",
"687 89 CURVE",
"718 24 OFFCURVE",
"782 -20 OFFCURVE",
"855 -20 CURVE SMOOTH",
"958 -20 OFFCURVE",
"1042 67 OFFCURVE",
"1042 178 CURVE SMOOTH",
"1042 287 OFFCURVE",
"959 373 OFFCURVE",
"855 373 CURVE SMOOTH",
"834 373 OFFCURVE",
"809 369 OFFCURVE",
"782 361 CURVE",
"782 629 LINE SMOOTH",
"782 860 OFFCURVE",
"854 967 OFFCURVE",
"1030 967 CURVE SMOOTH",
"1169 967 OFFCURVE",
"1253 871 OFFCURVE",
"1253 707 CURVE SMOOTH",
"1253 0 LINE",
"1423 0 LINE",
"1423 734 LINE SMOOTH",
"1423 978 OFFCURVE",
"1298 1118 OFFCURVE",
"1067 1118 CURVE SMOOTH",
"828 1118 OFFCURVE",
"668 933 OFFCURVE",
"668 654 CURVE SMOOTH",
"668 278 LINE",
"623 226 LINE SMOOTH",
"569 163 OFFCURVE",
"513 131 OFFCURVE",
"454 131 CURVE SMOOTH",
"345 131 OFFCURVE",
"325 226 OFFCURVE",
"325 391 CURVE SMOOTH",
"325 1098 LINE",
"155 1098 LINE",
"155 383 LINE SMOOTH",
"155 119 OFFCURVE",
"249 -20 OFFCURVE",
"428 -20 CURVE SMOOTH"
);
},
{
closed = 1;
nodes = (
"815 90 OFFCURVE",
"782 120 OFFCURVE",
"782 192 CURVE SMOOTH",
"782 215 LINE",
"807 246 OFFCURVE",
"832 262 OFFCURVE",
"855 262 CURVE SMOOTH",
"895 262 OFFCURVE",
"928 226 OFFCURVE",
"928 178 CURVE SMOOTH",
"928 130 OFFCURVE",
"895 90 OFFCURVE",
"855 90 CURVE SMOOTH"
);
}
);
width = 1583;
}
);
note = jv_Da;
unicode = A9A2;
},
{
glyphname = jv_Dha;
lastChange = "2016-11-10 17:42:50 +0000";
layers = (
{
layerId = "FB35F625-CAB4-4F3A-B203-D3E168293E5E";
paths = (
{
closed = 1;
nodes = (
"1059 -21 OFFCURVE",
"1177 147 OFFCURVE",
"1177 475 CURVE SMOOTH",
"1177 714 OFFCURVE",
"1102 880 OFFCURVE",
"953 975 CURVE",
"1020 983 OFFCURVE",
"1075 987 OFFCURVE",
"1120 987 CURVE SMOOTH",
"1275 987 OFFCURVE",
"1338 960 OFFCURVE",
"1368 891 CURVE SMOOTH",
"1383 856 OFFCURVE",
"1390 795 OFFCURVE",
"1390 707 CURVE SMOOTH",
"1390 0 LINE",
"1560 0 LINE",
"1560 715 LINE SMOOTH",
"1560 984 OFFCURVE",
"1448 1118 OFFCURVE",
"1224 1118 CURVE SMOOTH",
"1104 1118 OFFCURVE",
"818 1088 OFFCURVE",
"689 1064 CURVE",
"674 1045 OFFCURVE",
"667 1023 OFFCURVE",
"667 1000 CURVE SMOOTH",
"667 977 OFFCURVE",
"674 957 OFFCURVE",
"689 938 CURVE",
"740 938 OFFCURVE",
"798 919 OFFCURVE",
"862 881 CURVE SMOOTH",
"990 805 OFFCURVE",
"1059 676 OFFCURVE",
"1059 509 CURVE SMOOTH",
"1059 257 OFFCURVE",
"976 105 OFFCURVE",
"843 105 CURVE SMOOTH",
"806 105 OFFCURVE",
"768 123 OFFCURVE",
"729 158 CURVE",
"729 377 LINE",
"614 377 LINE",
"614 158 LINE",
"582 130 OFFCURVE",
"551 106 OFFCURVE",
"504 106 CURVE SMOOTH",
"401 106 OFFCURVE",
"345 212 OFFCURVE",
"345 391 CURVE SMOOTH",
"345 1098 LINE",
"175 1098 LINE",
"175 383 LINE SMOOTH",
"175 110 OFFCURVE",
"259 -20 OFFCURVE",
"462 -20 CURVE SMOOTH",
"547 -20 OFFCURVE",
"617 8 OFFCURVE",
"671 64 CURVE",
"744 -5 OFFCURVE",
"787 -21 OFFCURVE",
"850 -21 CURVE SMOOTH"
);
}
);
width = 1720;
}
);
note = jv_Dha;
unicode = A9A3;
},
{
glyphname = jv_Na;
lastChange = "2016-11-10 17:42:50 +0000";
layers = (
{
layerId = "FB35F625-CAB4-4F3A-B203-D3E168293E5E";
paths = (
{
closed = 1;
nodes = (
"952 -20 OFFCURVE",
"1036 67 OFFCURVE",
"1036 178 CURVE SMOOTH",
"1036 290 OFFCURVE",
"952 377 OFFCURVE",
"849 377 CURVE SMOOTH",
"776 377 LINE",
"776 629 LINE SMOOTH",
"776 860 OFFCURVE",
"848 967 OFFCURVE",
"1024 967 CURVE SMOOTH",
"1165 967 OFFCURVE",
"1259 871 OFFCURVE",
"1259 707 CURVE SMOOTH",
"1259 0 LINE",
"1429 0 LINE",
"1429 715 LINE SMOOTH",
"1429 960 OFFCURVE",
"1280 1118 OFFCURVE",
"1061 1118 CURVE SMOOTH",
"822 1118 OFFCURVE",
"662 933 OFFCURVE",
"662 654 CURVE SMOOTH",
"662 377 LINE",
"345 377 LINE",
"345 1098 LINE",
"175 1098 LINE",
"175 0 LINE",
"345 0 LINE",
"345 262 LINE",
"662 262 LINE",
"662 178 LINE SMOOTH",
"662 67 OFFCURVE",
"746 -20 OFFCURVE",
"849 -20 CURVE SMOOTH"
);
},
{
closed = 1;
nodes = (
"809 96 OFFCURVE",
"776 130 OFFCURVE",
"776 178 CURVE SMOOTH",
"776 262 LINE",
"849 262 LINE SMOOTH",
"889 262 OFFCURVE",
"922 226 OFFCURVE",
"922 178 CURVE SMOOTH",
"922 130 OFFCURVE",
"889 96 OFFCURVE",
"849 96 CURVE SMOOTH"
);
}
);
width = 1589;
}
);
note = jv_Na;
unicode = A9A4;
},
{
glyphname = jv_Pa;
lastChange = "2016-11-10 17:42:50 +0000";
layers = (
{
layerId = "FB35F625-CAB4-4F3A-B203-D3E168293E5E";
paths = (
{
closed = 1;
nodes = (
"788 -20 OFFCURVE",
"915 122 OFFCURVE",
"915 405 CURVE SMOOTH",
"915 630 LINE SMOOTH",
"915 734 OFFCURVE",
"919 806 OFFCURVE",
"928 847 CURVE SMOOTH",
"945 928 OFFCURVE",
"985 967 OFFCURVE",
"1073 967 CURVE SMOOTH",
"1118 967 OFFCURVE",
"1151 948 OFFCURVE",
"1174 911 CURVE SMOOTH",
"1197 873 OFFCURVE",
"1208 805 OFFCURVE",
"1208 707 CURVE SMOOTH",
"1208 0 LINE",
"1378 0 LINE",
"1378 715 LINE SMOOTH",
"1378 983 OFFCURVE",
"1292 1118 OFFCURVE",
"1097 1118 CURVE SMOOTH",
"905 1118 OFFCURVE",
"811 983 OFFCURVE",
"811 654 CURVE SMOOTH",
"811 431 LINE SMOOTH",
"811 231 OFFCURVE",
"728 131 OFFCURVE",
"536 131 CURVE SMOOTH",
"409 131 OFFCURVE",
"340 218 OFFCURVE",
"340 391 CURVE SMOOTH",
"340 1098 LINE",
"170 1098 LINE",
"170 383 LINE SMOOTH",
"170 103 OFFCURVE",
"265 -20 OFFCURVE",
"509 -20 CURVE SMOOTH"
);
}
);
width = 1538;
}
);
note = jv_Pa;
unicode = A9A5;
},
{
glyphname = jv_Pa_mu;
lastChange = "2016-11-10 17:42:50 +0000";
layers = (
{
layerId = "FB35F625-CAB4-4F3A-B203-D3E168293E5E";
paths = (
{
closed = 1;
nodes = (
"622 -20 OFFCURVE",
"712 43 OFFCURVE",
"786 155 CURVE SMOOTH",
"823 210 OFFCURVE",
"856 238 OFFCURVE",
"885 238 CURVE SMOOTH",
"908 238 OFFCURVE",
"937 211 OFFCURVE",
"972 157 CURVE SMOOTH",
"1040 48 OFFCURVE",
"1116 -20 OFFCURVE",
"1224 -20 CURVE SMOOTH",
"1355 -20 OFFCURVE",
"1482 60 OFFCURVE",
"1590 217 CURVE",
"1642 153 OFFCURVE",
"1678 92 OFFCURVE",
"1678 24 CURVE SMOOTH",
"1678 0 LINE",
"1848 0 LINE",
"1848 24 LINE SMOOTH",
"1848 115 OFFCURVE",
"1809 204 OFFCURVE",
"1664 349 CURVE",
"1733 500 OFFCURVE",
"1769 658 OFFCURVE",
"1769 781 CURVE SMOOTH",
"1769 1005 OFFCURVE",
"1661 1118 OFFCURVE",
"1472 1118 CURVE SMOOTH",
"1296 1118 OFFCURVE",
"1183 995 OFFCURVE",
"1183 838 CURVE SMOOTH",
"1183 764 OFFCURVE",
"1200 695 OFFCURVE",
"1233 632 CURVE SMOOTH",
"1300 505 OFFCURVE",
"1383 425 OFFCURVE",
"1503 312 CURVE",
"1422 179 OFFCURVE",
"1325 96 OFFCURVE",
"1244 96 CURVE SMOOTH",
"1156 96 OFFCURVE",
"1102 150 OFFCURVE",
"1038 254 CURVE SMOOTH",
"973 357 OFFCURVE",
"930 377 OFFCURVE",
"881 377 CURVE SMOOTH",
"843 377 OFFCURVE",
"804 350 OFFCURVE",
"765 295 CURVE SMOOTH",
"685 186 OFFCURVE",
"606 96 OFFCURVE",
"501 96 CURVE SMOOTH",
"377 96 OFFCURVE",
"335 176 OFFCURVE",
"335 391 CURVE SMOOTH",
"335 1098 LINE",
"165 1098 LINE",
"165 383 LINE SMOOTH",
"165 267 OFFCURVE",
"176 184 OFFCURVE",
"198 134 CURVE SMOOTH",
"241 33 OFFCURVE",
"323 -20 OFFCURVE",
"479 -20 CURVE SMOOTH"
);
},
{
closed = 1;
nodes = (
"1457 543 OFFCURVE",
"1387 622 OFFCURVE",
"1357 675 CURVE SMOOTH",
"1326 728 OFFCURVE",
"1311 781 OFFCURVE",
"1311 832 CURVE SMOOTH",
"1311 925 OFFCURVE",
"1376 1000 OFFCURVE",
"1472 1000 CURVE SMOOTH",
"1588 1000 OFFCURVE",
"1641 935 OFFCURVE",
"1641 778 CURVE SMOOTH",
"1641 666 OFFCURVE",
"1612 548 OFFCURVE",
"1568 440 CURVE"
);
}
);
width = 1926;
}
);
note = jv_Pa_mu;
unicode = A9A6;
},
{
glyphname = jv_Ba;
lastChange = "2016-11-10 17:42:50 +0000";
layers = (
{
layerId = "FB35F625-CAB4-4F3A-B203-D3E168293E5E";
paths = (
{
closed = 1;
nodes = (
"1573 0 LINE",
"1573 606 LINE SMOOTH",
"1573 867 OFFCURVE",
"1637 967 OFFCURVE",
"1784 967 CURVE SMOOTH",
"1899 967 OFFCURVE",
"1939 879 OFFCURVE",
"1939 707 CURVE SMOOTH",
"1939 0 LINE",
"2109 0 LINE",
"2109 715 LINE SMOOTH",
"2109 984 OFFCURVE",
"2009 1118 OFFCURVE",
"1808 1118 CURVE SMOOTH",
"1697 1118 OFFCURVE",
"1603 1059 OFFCURVE",
"1547 934 CURVE",
"1540 934 LINE",
"1498 1057 OFFCURVE",
"1409 1118 OFFCURVE",
"1272 1118 CURVE SMOOTH",
"1136 1118 OFFCURVE",
"1040 1054 OFFCURVE",
"984 926 CURVE",
"931 1051 OFFCURVE",
"843 1118 OFFCURVE",
"735 1118 CURVE SMOOTH",
"548 1118 OFFCURVE",
"435 909 OFFCURVE",
"435 661 CURVE SMOOTH",
"435 645 LINE",
"436 630 LINE",
"456 626 OFFCURVE",
"473 624 OFFCURVE",
"487 624 CURVE SMOOTH",
"503 624 OFFCURVE",
"521 627 OFFCURVE",
"540 632 CURVE",
"545 887 OFFCURVE",
"611 967 OFFCURVE",
"736 967 CURVE SMOOTH",
"863 967 OFFCURVE",
"928 880 OFFCURVE",
"932 632 CURVE SMOOTH",
"932 628 LINE",
"952 624 OFFCURVE",
"969 622 OFFCURVE",
"983 622 CURVE SMOOTH",
"999 622 OFFCURVE",
"1017 625 OFFCURVE",
"1036 630 CURVE",
"1040 891 OFFCURVE",
"1109 967 OFFCURVE",
"1245 967 CURVE SMOOTH",
"1360 967 OFFCURVE",
"1403 879 OFFCURVE",
"1403 707 CURVE SMOOTH",
"1403 0 LINE"
);
},
{
closed = 1;
nodes = (
"865 -20 OFFCURVE",
"1027 92 OFFCURVE",
"1035 299 CURVE",
"1014 306 OFFCURVE",
"995 309 OFFCURVE",
"976 309 CURVE SMOOTH",
"957 309 OFFCURVE",
"938 306 OFFCURVE",
"920 299 CURVE",
"913 184 OFFCURVE",
"808 131 OFFCURVE",
"635 131 CURVE SMOOTH",
"423 131 OFFCURVE",
"335 218 OFFCURVE",
"335 391 CURVE SMOOTH",
"335 1098 LINE",
"165 1098 LINE",
"165 383 LINE SMOOTH",
"165 116 OFFCURVE",
"300 -20 OFFCURVE",
"593 -20 CURVE SMOOTH"
);
}
);
width = 2269;
}
);
note = jv_Ba;
unicode = A9A7;
},
{
glyphname = jv_Ba_mu;
lastChange = "2016-11-10 17:42:50 +0000";
layers = (
{
layerId = "FB35F625-CAB4-4F3A-B203-D3E168293E5E";
paths = (
{
closed = 1;
nodes = (
"1237 -20 OFFCURVE",
"1364 74 OFFCURVE",
"1364 405 CURVE SMOOTH",
"1364 428 LINE",
"1452 428 LINE SMOOTH",
"1611 428 OFFCURVE",
"1658 365 OFFCURVE",
"1658 189 CURVE SMOOTH",
"1658 0 LINE",
"1828 0 LINE",
"1828 184 LINE SMOOTH",
"1828 409 OFFCURVE",
"1705 544 OFFCURVE",
"1505 544 CURVE SMOOTH",
"1364 544 LINE",
"1364 707 LINE SMOOTH",
"1364 914 OFFCURVE",
"1420 1002 OFFCURVE",
"1529 1002 CURVE SMOOTH",
"1777 1002 LINE SMOOTH",
"1864 1002 OFFCURVE",
"1927 993 OFFCURVE",
"1966 976 CURVE SMOOTH",
"2005 958 OFFCURVE",
"2024 929 OFFCURVE",
"2024 888 CURVE SMOOTH",
"2024 828 OFFCURVE",
"1987 799 OFFCURVE",
"1880 770 CURVE",
"1879 744 LINE",
"1879 719 OFFCURVE",
"1891 694 OFFCURVE",
"1907 671 CURVE",
"2078 720 OFFCURVE",
"2161 795 OFFCURVE",
"2161 910 CURVE SMOOTH",
"2161 1057 OFFCURVE",
"2041 1118 OFFCURVE",
"1788 1118 CURVE SMOOTH",
"1554 1118 LINE SMOOTH",
"1359 1118 OFFCURVE",
"1261 984 OFFCURVE",
"1261 715 CURVE SMOOTH",
"1261 544 LINE",
"902 544 LINE",
"902 715 LINE SMOOTH",
"902 1003 OFFCURVE",
"792 1118 OFFCURVE",
"532 1118 CURVE SMOOTH",
"446 1118 LINE SMOOTH",
"226 1118 OFFCURVE",
"80 1028 OFFCURVE",
"80 905 CURVE SMOOTH",
"80 813 OFFCURVE",
"167 722 OFFCURVE",
"308 671 CURVE",
"324 694 OFFCURVE",
"336 719 OFFCURVE",
"336 744 CURVE",
"335 770 LINE",
"247 805 OFFCURVE",
"209 850 OFFCURVE",
"209 890 CURVE SMOOTH",
"209 922 OFFCURVE",
"232 949 OFFCURVE",
"277 970 CURVE SMOOTH",
"322 991 OFFCURVE",
"382 1002 OFFCURVE",
"457 1002 CURVE SMOOTH",
"543 1002 LINE SMOOTH",
"690 1002 OFFCURVE",
"737 915 OFFCURVE",
"737 707 CURVE SMOOTH",
"737 544 LINE",
"705 544 LINE SMOOTH",
"553 544 OFFCURVE",
"495 584 OFFCURVE",
"495 663 CURVE SMOOTH",
"495 728 OFFCURVE",
"542 760 OFFCURVE",
"642 784 CURVE",
"643 810 LINE",
"643 835 OFFCURVE",
"631 860 OFFCURVE",
"615 883 CURVE",
"439 831 OFFCURVE",
"354 744 OFFCURVE",
"354 631 CURVE SMOOTH",
"354 488 OFFCURVE",
"463 428 OFFCURVE",
"706 428 CURVE SMOOTH",
"737 428 LINE",
"737 383 LINE SMOOTH",
"737 67 OFFCURVE",
"791 -20 OFFCURVE",
"1008 -20 CURVE SMOOTH"
);
},
{
closed = 1;
nodes = (
"909 131 OFFCURVE",
"902 183 OFFCURVE",
"902 391 CURVE SMOOTH",
"902 428 LINE",
"1261 428 LINE",
"1261 335 OFFCURVE",
"1256 270 OFFCURVE",
"1246 233 CURVE SMOOTH",
"1225 158 OFFCURVE",
"1185 131 OFFCURVE",
"1045 131 CURVE SMOOTH"
);
}
);
width = 2256;
}
);
note = jv_Ba_mu;
unicode = A9A8;
},
{
glyphname = jv_Ma;
lastChange = "2016-11-10 17:42:50 +0000";
layers = (
{
layerId = "FB35F625-CAB4-4F3A-B203-D3E168293E5E";
paths = (
{
closed = 1;
nodes = (
"727 -20 OFFCURVE",
"842 80 OFFCURVE",
"842 405 CURVE SMOOTH",
"842 630 LINE SMOOTH",
"842 855 OFFCURVE",
"895 967 OFFCURVE",
"1043 967 CURVE SMOOTH",
"1158 967 OFFCURVE",
"1208 902 OFFCURVE",
"1208 707 CURVE SMOOTH",
"1208 0 LINE",
"1378 0 LINE",
"1378 715 LINE SMOOTH",
"1378 984 OFFCURVE",
"1280 1118 OFFCURVE",
"1083 1118 CURVE SMOOTH",
"866 1118 OFFCURVE",
"729 940 OFFCURVE",
"729 657 CURVE SMOOTH",
"729 417 LINE SMOOTH",
"729 152 OFFCURVE",
"661 95 OFFCURVE",
"496 95 CURVE SMOOTH",
"357 95 OFFCURVE",
"279 174 OFFCURVE",
"279 302 CURVE SMOOTH",
"279 435 OFFCURVE",
"384 537 OFFCURVE",
"539 537 CURVE",
"545 557 OFFCURVE",
"548 576 OFFCURVE",
"548 595 CURVE SMOOTH",
"548 613 OFFCURVE",
"545 632 OFFCURVE",
"539 651 CURVE",
"386 651 OFFCURVE",
"307 724 OFFCURVE",
"307 849 CURVE SMOOTH",
"307 952 OFFCURVE",
"356 1004 OFFCURVE",
"444 1004 CURVE SMOOTH",
"543 1004 LINE",
"549 1024 OFFCURVE",
"552 1043 OFFCURVE",
"552 1062 CURVE SMOOTH",
"552 1080 OFFCURVE",
"549 1099 OFFCURVE",
"543 1118 CURVE",
"446 1118 LINE SMOOTH",
"242 1118 OFFCURVE",
"138 1022 OFFCURVE",
"138 841 CURVE SMOOTH",
"138 714 OFFCURVE",
"201 636 OFFCURVE",
"326 605 CURVE",
"326 599 LINE",
"193 578 OFFCURVE",
"110 464 OFFCURVE",
"110 315 CURVE SMOOTH",
"110 112 OFFCURVE",
"262 -20 OFFCURVE",
"479 -20 CURVE SMOOTH"
);
}
);
width = 1538;
}
);
note = jv_Ma;
unicode = A9A9;
},
{
glyphname = jv_Ya;
lastChange = "2016-11-10 17:42:50 +0000";
layers = (
{
layerId = "FB35F625-CAB4-4F3A-B203-D3E168293E5E";
paths = (
{
closed = 1;
nodes = (
"616 -20 OFFCURVE",
"707 122 OFFCURVE",
"707 405 CURVE SMOOTH",
"707 630 LINE SMOOTH",
"707 723 OFFCURVE",
"710 791 OFFCURVE",
"715 834 CURVE SMOOTH",
"725 919 OFFCURVE",
"756 967 OFFCURVE",
"832 967 CURVE SMOOTH",
"879 967 OFFCURVE",
"913 948 OFFCURVE",
"934 910 CURVE SMOOTH",
"955 871 OFFCURVE",
"965 804 OFFCURVE",
"965 707 CURVE SMOOTH",
"965 383 LINE SMOOTH",
"965 119 OFFCURVE",
"1059 -20 OFFCURVE",
"1238 -20 CURVE SMOOTH",
"1421 -20 OFFCURVE",
"1512 122 OFFCURVE",
"1512 405 CURVE SMOOTH",
"1512 629 LINE SMOOTH",
"1512 722 OFFCURVE",
"1515 790 OFFCURVE",
"1520 833 CURVE SMOOTH",
"1530 918 OFFCURVE",
"1561 967 OFFCURVE",
"1637 967 CURVE SMOOTH",
"1684 967 OFFCURVE",
"1718 948 OFFCURVE",
"1739 910 CURVE SMOOTH",
"1760 871 OFFCURVE",
"1770 804 OFFCURVE",
"1770 707 CURVE SMOOTH",
"1770 0 LINE",
"1940 0 LINE",
"1940 715 LINE SMOOTH",
"1940 967 OFFCURVE",
"1836 1118 OFFCURVE",
"1667 1118 CURVE SMOOTH",
"1500 1118 OFFCURVE",
"1409 962 OFFCURVE",
"1409 654 CURVE SMOOTH",
"1409 434 LINE SMOOTH",
"1409 305 OFFCURVE",
"1398 223 OFFCURVE",
"1377 186 CURVE SMOOTH",
"1355 149 OFFCURVE",
"1317 131 OFFCURVE",
"1264 131 CURVE SMOOTH",
"1155 131 OFFCURVE",
"1135 226 OFFCURVE",
"1135 391 CURVE SMOOTH",
"1135 715 LINE SMOOTH",
"1135 967 OFFCURVE",
"1031 1118 OFFCURVE",
"862 1118 CURVE SMOOTH",
"695 1118 OFFCURVE",
"604 962 OFFCURVE",
"604 654 CURVE SMOOTH",
"604 434 LINE SMOOTH",
"604 305 OFFCURVE",
"593 223 OFFCURVE",
"572 186 CURVE SMOOTH",
"550 149 OFFCURVE",
"512 131 OFFCURVE",
"459 131 CURVE SMOOTH",
"350 131 OFFCURVE",
"330 226 OFFCURVE",
"330 391 CURVE SMOOTH",
"330 1098 LINE",
"160 1098 LINE",
"160 383 LINE SMOOTH",
"160 119 OFFCURVE",
"254 -20 OFFCURVE",
"433 -20 CURVE SMOOTH"
);
}
);
width = 2100;
}
);
note = jv_Ya;
unicode = A9AA;
},
{
glyphname = jv_Ra;
lastChange = "2016-11-10 17:42:50 +0000";
layers = (
{
layerId = "FB35F625-CAB4-4F3A-B203-D3E168293E5E";
paths = (
{
closed = 1;
nodes = (
"721 0 LINE",
"721 606 LINE SMOOTH",
"721 861 OFFCURVE",
"786 967 OFFCURVE",
"925 967 CURVE SMOOTH",
"1041 967 OFFCURVE",
"1087 896 OFFCURVE",
"1087 707 CURVE SMOOTH",
"1087 0 LINE",
"1257 0 LINE",
"1257 715 LINE SMOOTH",
"1257 975 OFFCURVE",
"1157 1118 OFFCURVE",
"964 1118 CURVE SMOOTH",
"840 1118 OFFCURVE",
"754 1061 OFFCURVE",
"695 934 CURVE",
"688 934 LINE",
"647 1057 OFFCURVE",
"557 1118 OFFCURVE",
"389 1118 CURVE SMOOTH",
"192 1118 OFFCURVE",
"88 1044 OFFCURVE",
"88 917 CURVE SMOOTH",
"88 826 OFFCURVE",
"137 757 OFFCURVE",
"241 726 CURVE",
"260 760 OFFCURVE",
"269 797 OFFCURVE",
"269 837 CURVE",
"224 856 OFFCURVE",
"203 890 OFFCURVE",
"203 922 CURVE SMOOTH",
"203 981 OFFCURVE",
"254 1015 OFFCURVE",
"333 1015 CURVE SMOOTH",
"473 1015 OFFCURVE",
"551 910 OFFCURVE",
"551 707 CURVE SMOOTH",
"551 0 LINE"
);
}
);
width = 1417;
}
);
note = jv_Ra;
unicode = A9AB;
},
{
glyphname = jv_RaAgung;
lastChange = "2016-11-10 17:42:50 +0000";
layers = (
{
layerId = "FB35F625-CAB4-4F3A-B203-D3E168293E5E";
paths = (
{
closed = 1;
nodes = (
"2614 -20 OFFCURVE",
"2713 138 OFFCURVE",
"2713 405 CURVE SMOOTH",
"2713 1305 LINE SMOOTH",
"2713 1409 OFFCURVE",
"2625 1492 OFFCURVE",
"2514 1492 CURVE SMOOTH",
"2403 1492 OFFCURVE",
"2316 1408 OFFCURVE",
"2316 1305 CURVE SMOOTH",
"2316 1202 OFFCURVE",
"2403 1118 OFFCURVE",
"2514 1118 CURVE SMOOTH",
"2598 1118 LINE",
"2598 434 LINE SMOOTH",
"2598 305 OFFCURVE",
"2587 223 OFFCURVE",
"2566 186 CURVE SMOOTH",
"2544 149 OFFCURVE",
"2506 131 OFFCURVE",
"2453 131 CURVE SMOOTH",
"2345 131 OFFCURVE",
"2329 222 OFFCURVE",
"2329 391 CURVE SMOOTH",
"2329 715 LINE SMOOTH",
"2329 980 OFFCURVE",
"2227 1118 OFFCURVE",
"2031 1118 CURVE SMOOTH",
"1910 1118 OFFCURVE",
"1820 1064 OFFCURVE",
"1761 957 CURVE",
"1753 957 LINE",
"1708 1064 OFFCURVE",
"1621 1118 OFFCURVE",
"1492 1118 CURVE SMOOTH",
"1375 1118 OFFCURVE",
"1289 1057 OFFCURVE",
"1234 934 CURVE",
"1226 934 LINE",
"1184 1057 OFFCURVE",
"1094 1118 OFFCURVE",
"956 1118 CURVE SMOOTH",
"845 1118 OFFCURVE",
"751 1059 OFFCURVE",
"695 934 CURVE",
"687 934 LINE",
"644 1057 OFFCURVE",
"555 1118 OFFCURVE",
"420 1118 CURVE SMOOTH",
"201 1118 OFFCURVE",
"80 944 OFFCURVE",
"80 628 CURVE",
"100 624 OFFCURVE",
"117 622 OFFCURVE",
"131 622 CURVE SMOOTH",
"147 622 OFFCURVE",
"165 625 OFFCURVE",
"184 630 CURVE",
"188 891 OFFCURVE",
"257 967 OFFCURVE",
"393 967 CURVE SMOOTH",
"508 967 OFFCURVE",
"551 879 OFFCURVE",
"551 707 CURVE SMOOTH",
"551 0 LINE",
"721 0 LINE",
"721 606 LINE SMOOTH",
"721 867 OFFCURVE",
"785 967 OFFCURVE",
"932 967 CURVE SMOOTH",
"1047 967 OFFCURVE",
"1087 879 OFFCURVE",
"1087 707 CURVE SMOOTH",
"1087 0 LINE",
"1257 0 LINE",
"1257 623 LINE SMOOTH",
"1257 867 OFFCURVE",
"1323 967 OFFCURVE",
"1468 967 CURVE SMOOTH",
"1583 967 OFFCURVE",
"1623 879 OFFCURVE",
"1623 707 CURVE SMOOTH",
"1623 0 LINE",
"1793 0 LINE",
"1793 670 LINE SMOOTH",
"1793 868 OFFCURVE",
"1860 967 OFFCURVE",
"1994 967 CURVE SMOOTH",
"2109 967 OFFCURVE",
"2159 902 OFFCURVE",
"2159 707 CURVE SMOOTH",
"2159 383 LINE SMOOTH",
"2159 114 OFFCURVE",
"2248 -20 OFFCURVE",
"2427 -20 CURVE SMOOTH"
);
},
{
closed = 1;
nodes = (
"2466 1232 OFFCURVE",
"2432 1265 OFFCURVE",
"2432 1305 CURVE SMOOTH",
"2432 1345 OFFCURVE",
"2466 1378 OFFCURVE",
"2514 1378 CURVE SMOOTH",
"2562 1378 OFFCURVE",
"2598 1345 OFFCURVE",
"2598 1305 CURVE SMOOTH",
"2598 1232 LINE",
"2514 1232 LINE SMOOTH"
);
}
);
width = 2783;
}
);
note = jv_RaAgung;
unicode = A9AC;
},
{
glyphname = jv_La;
lastChange = "2016-11-10 17:42:50 +0000";
layers = (
{
layerId = "FB35F625-CAB4-4F3A-B203-D3E168293E5E";
paths = (
{
closed = 1;
nodes = (
"1197 -20 OFFCURVE",
"1318 108 OFFCURVE",
"1318 405 CURVE",
"1317 630 LINE",
"1317 858 OFFCURVE",
"1371 967 OFFCURVE",
"1519 967 CURVE SMOOTH",
"1634 967 OFFCURVE",
"1684 902 OFFCURVE",
"1684 707 CURVE SMOOTH",
"1684 0 LINE",
"1854 0 LINE",
"1854 715 LINE SMOOTH",
"1854 980 OFFCURVE",
"1752 1118 OFFCURVE",
"1556 1118 CURVE SMOOTH",
"1341 1118 OFFCURVE",
"1213 942 OFFCURVE",
"1213 654 CURVE SMOOTH",
"1215 434 LINE SMOOTH",
"1215 342 OFFCURVE",
"1209 277 OFFCURVE",
"1197 240 CURVE SMOOTH",
"1172 164 OFFCURVE",
"1120 131 OFFCURVE",
"985 131 CURVE SMOOTH",
"845 131 OFFCURVE",
"816 222 OFFCURVE",
"816 391 CURVE SMOOTH",
"816 715 LINE SMOOTH",
"816 980 OFFCURVE",
"714 1118 OFFCURVE",
"518 1118 CURVE SMOOTH",
"303 1118 OFFCURVE",
"175 942 OFFCURVE",
"175 654 CURVE SMOOTH",
"175 453 LINE",
"176 230 LINE",
"176 127 LINE",
"177 0 LINE",
"280 0 LINE",
"279 223 LINE",
"279 630 LINE SMOOTH",
"279 858 OFFCURVE",
"333 967 OFFCURVE",
"481 967 CURVE SMOOTH",
"596 967 OFFCURVE",
"646 902 OFFCURVE",
"646 707 CURVE SMOOTH",
"646 383 LINE SMOOTH",
"646 108 OFFCURVE",
"733 -20 OFFCURVE",
"942 -20 CURVE SMOOTH"
);
}
);
width = 2014;
}
);
note = jv_La;
unicode = A9AD;
},
{
glyphname = jv_Wa;
lastChange = "2016-11-10 17:42:50 +0000";
layers = (
{
layerId = "FB35F625-CAB4-4F3A-B203-D3E168293E5E";
paths = (
{
closed = 1;
nodes = (
"785 -20 OFFCURVE",
"920 109 OFFCURVE",
"920 405 CURVE SMOOTH",
"920 627 LINE SMOOTH",
"920 781 OFFCURVE",
"882 895 OFFCURVE",
"805 968 CURVE",
"901 981 OFFCURVE",
"975 987 OFFCURVE",
"1026 987 CURVE SMOOTH",
"1181 987 OFFCURVE",
"1244 960 OFFCURVE",
"1274 891 CURVE SMOOTH",
"1289 856 OFFCURVE",
"1296 795 OFFCURVE",
"1296 707 CURVE SMOOTH",
"1296 0 LINE",
"1466 0 LINE",
"1466 715 LINE SMOOTH",
"1466 984 OFFCURVE",
"1354 1118 OFFCURVE",
"1130 1118 CURVE SMOOTH",
"1020 1118 OFFCURVE",
"841 1100 OFFCURVE",
"592 1064 CURVE",
"577 1049 OFFCURVE",
"569 1030 OFFCURVE",
"569 1007 CURVE SMOOTH",
"569 982 OFFCURVE",
"577 959 OFFCURVE",
"594 938 CURVE",
"723 938 OFFCURVE",
"805 822 OFFCURVE",
"805 623 CURVE SMOOTH",
"805 434 LINE SMOOTH",
"805 183 OFFCURVE",
"756 131 OFFCURVE",
"567 131 CURVE SMOOTH",
"384 131 OFFCURVE",
"330 222 OFFCURVE",
"330 391 CURVE SMOOTH",
"330 1098 LINE",
"160 1098 LINE",
"160 383 LINE SMOOTH",
"160 106 OFFCURVE",
"268 -20 OFFCURVE",
"521 -20 CURVE SMOOTH"
);
}
);
width = 1626;
}
);
note = jv_Wa;
unicode = A9AE;
},
{
glyphname = jv_Sa_mu;
lastChange = "2016-11-10 17:42:50 +0000";
layers = (
{
layerId = "FB35F625-CAB4-4F3A-B203-D3E168293E5E";
paths = (
{
closed = 1;
nodes = (
"721 0 LINE",
"721 606 LINE SMOOTH",
"721 861 OFFCURVE",
"782 967 OFFCURVE",
"930 967 CURVE SMOOTH",
"1045 967 OFFCURVE",
"1085 879 OFFCURVE",
"1085 707 CURVE SMOOTH",
"1085 477 LINE",
"964 480 OFFCURVE",
"903 522 OFFCURVE",
"903 601 CURVE SMOOTH",
"903 654 OFFCURVE",
"944 693 OFFCURVE",
"1027 716 CURVE",
"1028 725 LINE",
"1028 733 LINE SMOOTH",
"1028 762 OFFCURVE",
"1019 789 OFFCURVE",
"1000 814 CURVE",
"841 766 OFFCURVE",
"762 683 OFFCURVE",
"762 565 CURVE SMOOTH",
"762 433 OFFCURVE",
"849 378 OFFCURVE",
"1085 366 CURVE",
"1085 0 LINE",
"1255 0 LINE",
"1255 364 LINE",
"1616 364 LINE",
"1616 0 LINE",
"1786 0 LINE",
"1786 364 LINE",
"1991 364 OFFCURVE",
"2072 312 OFFCURVE",
"2072 175 CURVE",
"2095 170 OFFCURVE",
"2114 167 OFFCURVE",
"2130 167 CURVE SMOOTH",
"2145 167 OFFCURVE",
"2164 170 OFFCURVE",
"2187 175 CURVE",
"2187 380 OFFCURVE",
"2055 478 OFFCURVE",
"1786 478 CURVE",
"1786 715 LINE SMOOTH",
"1786 984 OFFCURVE",
"1686 1118 OFFCURVE",
"1485 1118 CURVE SMOOTH",
"1369 1118 OFFCURVE",
"1284 1057 OFFCURVE",
"1229 934 CURVE",
"1224 934 LINE",
"1182 1057 OFFCURVE",
"1092 1118 OFFCURVE",
"954 1118 CURVE SMOOTH",
"836 1118 OFFCURVE",
"750 1057 OFFCURVE",
"695 934 CURVE",
"687 934 LINE",
"644 1057 OFFCURVE",
"555 1118 OFFCURVE",
"420 1118 CURVE SMOOTH",
"201 1118 OFFCURVE",
"80 944 OFFCURVE",
"80 628 CURVE",
"100 624 OFFCURVE",
"117 622 OFFCURVE",
"131 622 CURVE SMOOTH",
"147 622 OFFCURVE",
"165 625 OFFCURVE",
"184 630 CURVE",
"188 891 OFFCURVE",
"257 967 OFFCURVE",
"393 967 CURVE SMOOTH",
"508 967 OFFCURVE",
"551 879 OFFCURVE",
"551 707 CURVE SMOOTH",
"551 0 LINE"
);
},
{
closed = 1;
nodes = (
"1255 623 LINE SMOOTH",
"1255 871 OFFCURVE",
"1318 967 OFFCURVE",
"1461 967 CURVE SMOOTH",
"1576 967 OFFCURVE",
"1616 879 OFFCURVE",
"1616 707 CURVE SMOOTH",
"1616 478 LINE",
"1255 478 LINE"
);
}
);
width = 2272;
}
);
note = jv_Sa_mu;
unicode = A9AF;
},
{
glyphname = jv_Ssa_mu;
lastChange = "2016-11-10 17:42:50 +0000";
layers = (
{
layerId = "FB35F625-CAB4-4F3A-B203-D3E168293E5E";
paths = (
{
closed = 1;
nodes = (
"770 -20 OFFCURVE",
"916 106 OFFCURVE",
"916 321 CURVE SMOOTH",
"916 488 LINE",
"1331 488 LINE",
"1331 0 LINE",
"1501 0 LINE",
"1501 486 LINE",
"1674 473 OFFCURVE",
"1766 379 OFFCURVE",
"1787 175 CURVE",
"1810 170 OFFCURVE",
"1829 167 OFFCURVE",
"1845 167 CURVE SMOOTH",
"1860 167 OFFCURVE",
"1879 170 OFFCURVE",
"1902 175 CURVE",
"1869 471 OFFCURVE",
"1734 602 OFFCURVE",
"1501 602 CURVE",
"1501 715 LINE SMOOTH",
"1501 983 OFFCURVE",
"1390 1118 OFFCURVE",
"1178 1118 CURVE SMOOTH",
"943 1118 OFFCURVE",
"800 945 OFFCURVE",
"800 654 CURVE SMOOTH",
"800 632 LINE",
"801 601 LINE",
"650 601 OFFCURVE",
"591 642 OFFCURVE",
"591 721 CURVE SMOOTH",
"591 789 OFFCURVE",
"634 821 OFFCURVE",
"757 852 CURVE",
"758 861 LINE",
"758 869 LINE SMOOTH",
"758 898 OFFCURVE",
"749 926 OFFCURVE",
"730 951 CURVE",
"521 890 OFFCURVE",
"450 812 OFFCURVE",
"450 689 CURVE SMOOTH",
"450 553 OFFCURVE",
"545 497 OFFCURVE",
"802 489 CURVE",
"802 304 LINE SMOOTH",
"802 183 OFFCURVE",
"738 131 OFFCURVE",
"567 131 CURVE SMOOTH",
"384 131 OFFCURVE",
"330 222 OFFCURVE",
"330 391 CURVE SMOOTH",
"330 1098 LINE",
"160 1098 LINE",
"160 383 LINE SMOOTH",
"160 106 OFFCURVE",
"268 -20 OFFCURVE",
"521 -20 CURVE SMOOTH"
);
},
{
closed = 1;
nodes = (
"915 630 LINE SMOOTH",
"915 863 OFFCURVE",
"980 967 OFFCURVE",
"1137 967 CURVE SMOOTH",
"1276 967 OFFCURVE",
"1331 896 OFFCURVE",
"1331 707 CURVE SMOOTH",
"1331 602 LINE",
"915 602 LINE"
);
}
);
width = 1991;
}
);
note = jv_Ssa_mu;
unicode = A9B0;
},
{
glyphname = jv_Sa;
lastChange = "2016-11-10 17:42:50 +0000";
layers = (
{
layerId = "FB35F625-CAB4-4F3A-B203-D3E168293E5E";
paths = (
{
closed = 1;
nodes = (
"394 -20 OFFCURVE",
"483 67 OFFCURVE",
"515 196 CURVE",
"540 174 OFFCURVE",
"577 133 OFFCURVE",
"626 72 CURVE SMOOTH",
"674 11 OFFCURVE",
"735 -20 OFFCURVE",
"808 -20 CURVE SMOOTH",
"972 -20 OFFCURVE",
"1070 130 OFFCURVE",
"1070 383 CURVE SMOOTH",
"1070 629 LINE SMOOTH",
"1070 884 OFFCURVE",
"1107 967 OFFCURVE",
"1250 967 CURVE SMOOTH",
"1383 967 OFFCURVE",
"1446 892 OFFCURVE",
"1446 707 CURVE SMOOTH",
"1446 0 LINE",
"1616 0 LINE",
"1616 734 LINE SMOOTH",
"1616 990 OFFCURVE",
"1511 1118 OFFCURVE",
"1302 1118 CURVE SMOOTH",
"1071 1118 OFFCURVE",
"955 963 OFFCURVE",
"955 654 CURVE SMOOTH",
"955 434 LINE SMOOTH",
"955 311 OFFCURVE",
"944 227 OFFCURVE",
"922 182 CURVE SMOOTH",
"900 136 OFFCURVE",
"862 113 OFFCURVE",
"809 113 CURVE SMOOTH",
"753 113 OFFCURVE",
"704 143 OFFCURVE",
"661 202 CURVE SMOOTH",
"618 261 OFFCURVE",
"574 302 OFFCURVE",
"530 324 CURVE",
"530 1098 LINE",
"360 1098 LINE",
"360 372 LINE",
"350 373 LINE",
"339 373 LINE SMOOTH",
"188 373 OFFCURVE",
"100 306 OFFCURVE",
"100 182 CURVE SMOOTH",
"100 67 OFFCURVE",
"181 -20 OFFCURVE",
"290 -20 CURVE SMOOTH"
);
},
{
closed = 1;
nodes = (
"238 113 OFFCURVE",
"214 135 OFFCURVE",
"214 178 CURVE SMOOTH",
"214 235 OFFCURVE",
"245 262 OFFCURVE",
"320 262 CURVE",
"360 260 LINE",
"360 159 OFFCURVE",
"342 113 OFFCURVE",
"287 113 CURVE SMOOTH"
);
}
);
width = 1776;
}
);
note = jv_Sa;
unicode = A9B1;
},
{
glyphname = jv_Ha;
lastChange = "2016-11-10 17:42:50 +0000";
layers = (
{
layerId = "FB35F625-CAB4-4F3A-B203-D3E168293E5E";
paths = (
{
closed = 1;
nodes = (
"723 -20 OFFCURVE",
"845 113 OFFCURVE",
"845 405 CURVE",
"844 630 LINE",
"844 863 OFFCURVE",
"909 967 OFFCURVE",
"1066 967 CURVE SMOOTH",
"1205 967 OFFCURVE",
"1260 899 OFFCURVE",
"1260 707 CURVE SMOOTH",
"1260 0 LINE",
"1430 0 LINE",
"1430 606 LINE SMOOTH",
"1430 863 OFFCURVE",
"1497 967 OFFCURVE",
"1661 967 CURVE SMOOTH",
"1790 967 OFFCURVE",
"1844 883 OFFCURVE",
"1844 707 CURVE SMOOTH",
"1844 0 LINE",
"2014 0 LINE",
"2014 715 LINE SMOOTH",
"2014 984 OFFCURVE",
"1905 1118 OFFCURVE",
"1687 1118 CURVE SMOOTH",
"1566 1118 OFFCURVE",
"1463 1059 OFFCURVE",
"1400 934 CURVE",
"1394 934 LINE",
"1347 1057 OFFCURVE",
"1251 1118 OFFCURVE",
"1107 1118 CURVE SMOOTH",
"872 1118 OFFCURVE",
"729 945 OFFCURVE",
"729 654 CURVE SMOOTH",
"730 498 LINE",
"730 434 LINE SMOOTH",
"730 339 OFFCURVE",
"724 274 OFFCURVE",
"713 239 CURVE SMOOTH",
"689 167 OFFCURVE",
"634 131 OFFCURVE",
"519 131 CURVE SMOOTH",
"372 131 OFFCURVE",
"344 219 OFFCURVE",
"344 391 CURVE SMOOTH",
"344 1098 LINE",
"174 1098 LINE",
"174 383 LINE SMOOTH",
"174 95 OFFCURVE",
"264 -20 OFFCURVE",
"483 -20 CURVE SMOOTH"
);
}
);
width = 2174;
}
);
note = jv_Ha;
unicode = A9B2;
},
{
glyphname = jv_CT;
lastChange = "2016-11-10 17:42:50 +0000";
layers = (
{
layerId = "FB35F625-CAB4-4F3A-B203-D3E168293E5E";
paths = (
{
closed = 1;
nodes = (
"505 1600 OFFCURVE",
"581 1670 OFFCURVE",
"581 1759 CURVE SMOOTH",
"581 1848 OFFCURVE",
"505 1918 OFFCURVE",
"413 1918 CURVE SMOOTH",
"320 1918 OFFCURVE",
"244 1848 OFFCURVE",
"244 1759 CURVE SMOOTH",
"244 1670 OFFCURVE",
"320 1600 OFFCURVE",
"413 1600 CURVE SMOOTH"
);
},
{
closed = 1;
nodes = (
"261 1210 OFFCURVE",
"337 1280 OFFCURVE",
"337 1369 CURVE SMOOTH",
"337 1458 OFFCURVE",
"261 1528 OFFCURVE",
"169 1528 CURVE SMOOTH",
"76 1528 OFFCURVE",
"0 1458 OFFCURVE",
"0 1369 CURVE SMOOTH",
"0 1280 OFFCURVE",
"76 1210 OFFCURVE",
"169 1210 CURVE SMOOTH"
);
},
{
closed = 1;
nodes = (
"767 1210 OFFCURVE",
"843 1280 OFFCURVE",
"843 1369 CURVE SMOOTH",
"843 1458 OFFCURVE",
"767 1528 OFFCURVE",
"675 1528 CURVE SMOOTH",
"582 1528 OFFCURVE",
"506 1458 OFFCURVE",
"506 1369 CURVE SMOOTH",
"506 1280 OFFCURVE",
"582 1210 OFFCURVE",
"675 1210 CURVE SMOOTH"
);
}
);
width = 0;
}
);
note = jv_CT;
unicode = A9B3;
},
{
glyphname = jv_v_aa;
lastChange = "2016-11-10 17:42:50 +0000";
layers = (
{
layerId = "FB35F625-CAB4-4F3A-B203-D3E168293E5E";
paths = (
{
closed = 1;
nodes = (
"208 0 LINE SMOOTH",
"355 0 OFFCURVE",
"457 5 OFFCURVE",
"516 15 CURVE SMOOTH",
"632 34 OFFCURVE",
"676 77 OFFCURVE",
"676 269 CURVE SMOOTH",
"676 425 LINE",
"667 432 OFFCURVE",
"648 435 OFFCURVE",
"619 435 CURVE SMOOTH",
"594 435 OFFCURVE",
"573 432 OFFCURVE",
"556 425 CURVE",
"556 290 LINE SMOOTH",
"556 157 OFFCURVE",
"503 150 OFFCURVE",
"296 150 CURVE SMOOTH",
"273 150 LINE",
"457 322 OFFCURVE",
"572 570 OFFCURVE",
"572 791 CURVE SMOOTH",
"572 983 OFFCURVE",
"443 1118 OFFCURVE",
"270 1118 CURVE SMOOTH",
"126 1118 OFFCURVE",
"20 1020 OFFCURVE",
"0 863 CURVE",
"17 856 OFFCURVE",
"38 853 OFFCURVE",
"63 853 CURVE SMOOTH",
"92 853 OFFCURVE",
"111 856 OFFCURVE",
"120 863 CURVE",
"136 947 OFFCURVE",
"187 998 OFFCURVE",
"259 998 CURVE SMOOTH",
"348 998 OFFCURVE",
"422 916 OFFCURVE",
"422 797 CURVE SMOOTH",
"422 545 OFFCURVE",
"260 280 OFFCURVE",
"28 151 CURVE",
"23 133 OFFCURVE",
"20 110 OFFCURVE",
"20 82 CURVE SMOOTH",
"20 54 OFFCURVE",
"23 27 OFFCURVE",
"28 0 CURVE"
);
}
);
width = 676;
}
);
note = jv_v_aa;
unicode = A9B4;
},
{
glyphname = jv_v_o;
lastChange = "2016-11-10 17:42:50 +0000";
layers = (
{
layerId = "FB35F625-CAB4-4F3A-B203-D3E168293E5E";
paths = (
{
closed = 1;
nodes = (
"446 -20 OFFCURVE",
"572 115 OFFCURVE",
"572 322 CURVE SMOOTH",
"572 421 OFFCURVE",
"547 528 OFFCURVE",
"496 643 CURVE SMOOTH",
"395 871 OFFCURVE",
"207 1063 OFFCURVE",
"28 1118 CURVE",
"23 1087 OFFCURVE",
"20 1059 OFFCURVE",
"20 1033 CURVE SMOOTH",
"20 1007 OFFCURVE",
"23 985 OFFCURVE",
"28 967 CURVE",
"229 860 OFFCURVE",
"422 560 OFFCURVE",
"422 323 CURVE SMOOTH",
"422 184 OFFCURVE",
"357 100 OFFCURVE",
"261 100 CURVE SMOOTH",
"196 100 OFFCURVE",
"139 140 OFFCURVE",
"120 235 CURVE",
"111 242 OFFCURVE",
"92 245 OFFCURVE",
"63 245 CURVE SMOOTH",
"38 245 OFFCURVE",
"17 242 OFFCURVE",
"0 235 CURVE",
"20 76 OFFCURVE",
"128 -20 OFFCURVE",
"271 -20 CURVE SMOOTH"
);
}
);
width = 572;
}
);
note = jv_v_o;
unicode = A9B5;
},
{
glyphname = jv_v_i;
lastChange = "2016-11-10 17:42:50 +0000";
layers = (
{
layerId = "FB35F625-CAB4-4F3A-B203-D3E168293E5E";
paths = (
{
closed = 1;
nodes = (
"1046 1229 LINE",
"1046 1510 LINE SMOOTH",
"1046 1783 OFFCURVE",
"851 1935 OFFCURVE",
"548 1935 CURVE SMOOTH",
"199 1935 OFFCURVE",
"0 1698 OFFCURVE",
"0 1301 CURVE",
"90 1228 LINE",
"186 1308 OFFCURVE",
"278 1343 OFFCURVE",
"389 1343 CURVE SMOOTH",
"556 1343 OFFCURVE",
"817 1261 OFFCURVE",
"997 1148 CURVE"
);
},
{
closed = 1;
nodes = (
"697 1440 OFFCURVE",
"512 1490 OFFCURVE",
"371 1490 CURVE SMOOTH",
"274 1490 OFFCURVE",
"189 1467 OFFCURVE",
"117 1422 CURVE",
"147 1681 OFFCURVE",
"288 1811 OFFCURVE",
"541 1811 CURVE SMOOTH",
"769 1811 OFFCURVE",
"876 1707 OFFCURVE",
"876 1496 CURVE SMOOTH",
"876 1343 LINE"
);
}
);
width = 0;
}
);
note = jv_v_i;
unicode = A9B6;
},
{
glyphname = jv_v_ii;
lastChange = "2016-11-10 17:42:50 +0000";
layers = (
{
layerId = "FB35F625-CAB4-4F3A-B203-D3E168293E5E";
paths = (
{
closed = 1;
nodes = (
"1047 1229 LINE",
"1047 1510 LINE SMOOTH",
"1047 1619 OFFCURVE",
"1017 1709 OFFCURVE",
"958 1778 CURVE",
"961 1807 LINE",
"961 1910 OFFCURVE",
"874 1994 OFFCURVE",
"763 1994 CURVE SMOOTH",
"704 1994 OFFCURVE",
"655 1973 OFFCURVE",
"615 1932 CURVE",
"549 1935 LINE",
"200 1935 OFFCURVE",
"1 1698 OFFCURVE",
"1 1301 CURVE",
"91 1228 LINE",
"187 1308 OFFCURVE",
"279 1343 OFFCURVE",
"390 1343 CURVE SMOOTH",
"557 1343 OFFCURVE",
"818 1261 OFFCURVE",
"998 1148 CURVE"
);
},
{
closed = 1;
nodes = (
"702 1438 OFFCURVE",
"516 1490 OFFCURVE",
"372 1490 CURVE SMOOTH",
"273 1490 OFFCURVE",
"189 1467 OFFCURVE",
"118 1422 CURVE",
"147 1681 OFFCURVE",
"288 1811 OFFCURVE",
"542 1811 CURVE",
"564 1810 LINE",
"564 1703 OFFCURVE",
"654 1620 OFFCURVE",
"763 1620 CURVE SMOOTH",
"796 1620 OFFCURVE",
"826 1627 OFFCURVE",
"854 1640 CURVE",
"869 1598 OFFCURVE",
"877 1550 OFFCURVE",
"877 1496 CURVE SMOOTH",
"877 1343 LINE"
);
}
);
width = 0;
}
);
note = jv_v_ii;
unicode = A9B7;
},
{
glyphname = jv_v_u;
lastChange = "2016-11-10 17:42:50 +0000";
layers = (
{
layerId = "FB35F625-CAB4-4F3A-B203-D3E168293E5E";
paths = (
{
closed = 1;
nodes = (
"76 -1118 OFFCURVE",
"151 -971 OFFCURVE",
"151 -654 CURVE SMOOTH",
"151 -222 LINE",
"133 -215 OFFCURVE",
"116 -212 OFFCURVE",
"99 -212 CURVE SMOOTH",
"81 -212 OFFCURVE",
"64 -215 OFFCURVE",
"48 -222 CURVE",
"48 -630 LINE SMOOTH",
"48 -759 OFFCURVE",
"40 -848 OFFCURVE",
"24 -895 CURVE SMOOTH",
"7 -943 OFFCURVE",
"-21 -967 OFFCURVE",
"-60 -967 CURVE SMOOTH",
"-97 -967 OFFCURVE",
"-122 -947 OFFCURVE",
"-137 -907 CURVE SMOOTH",
"-152 -868 OFFCURVE",
"-160 -801 OFFCURVE",
"-160 -707 CURVE SMOOTH",
"-160 32 LINE",
"-330 32 LINE",
"-330 -715 LINE SMOOTH",
"-330 -984 OFFCURVE",
"-250 -1118 OFFCURVE",
"-89 -1118 CURVE SMOOTH"
);
}
);
width = 311;
}
);
note = jv_v_u;
unicode = A9B8;
},
{
glyphname = jv_v_uu;
lastChange = "2016-11-10 17:42:50 +0000";
layers = (
{
layerId = "FB35F625-CAB4-4F3A-B203-D3E168293E5E";
paths = (
{
closed = 1;
nodes = (
"70 -1118 OFFCURVE",
"162 -987 OFFCURVE",
"162 -710 CURVE SMOOTH",
"162 -450 OFFCURVE",
"71 -341 OFFCURVE",
"-160 -341 CURVE",
"-160 -166 LINE",
"-143 -166 LINE SMOOTH",
"90 -166 OFFCURVE",
"241 -52 OFFCURVE",
"241 125 CURVE",
"216 130 OFFCURVE",
"197 133 OFFCURVE",
"184 133 CURVE SMOOTH",
"168 133 OFFCURVE",
"149 130 OFFCURVE",
"126 125 CURVE",
"126 16 OFFCURVE",
"28 -46 OFFCURVE",
"-143 -50 CURVE SMOOTH",
"-160 -50 LINE",
"-160 55 LINE",
"-330 55 LINE",
"-330 -50 LINE",
"-566 -53 OFFCURVE",
"-671 -112 OFFCURVE",
"-671 -253 CURVE SMOOTH",
"-671 -394 OFFCURVE",
"-567 -454 OFFCURVE",
"-330 -457 CURVE",
"-330 -725 LINE SMOOTH",
"-330 -989 OFFCURVE",
"-248 -1118 OFFCURVE",
"-91 -1118 CURVE SMOOTH"
);
},
{
closed = 1;
nodes = (
"-99 -967 OFFCURVE",
"-125 -947 OFFCURVE",
"-139 -908 CURVE SMOOTH",
"-153 -869 OFFCURVE",
"-160 -806 OFFCURVE",
"-160 -717 CURVE SMOOTH",
"-160 -457 LINE",
"12 -457 OFFCURVE",
"48 -506 OFFCURVE",
"48 -690 CURVE SMOOTH",
"48 -789 OFFCURVE",
"40 -859 OFFCURVE",
"25 -902 CURVE SMOOTH",
"9 -945 OFFCURVE",
"-20 -967 OFFCURVE",
"-61 -967 CURVE SMOOTH"
);
},
{
closed = 1;
nodes = (
"-460 -341 OFFCURVE",
"-525 -312 OFFCURVE",
"-525 -253 CURVE SMOOTH",
"-525 -195 OFFCURVE",
"-460 -166 OFFCURVE",
"-330 -166 CURVE",
"-330 -341 LINE"
);
}
);
width = 401;
}
);
note = jv_v_uu;
unicode = A9B9;
},
{
glyphname = jv_v_e;
lastChange = "2016-11-10 17:42:50 +0000";
layers = (
{
layerId = "FB35F625-CAB4-4F3A-B203-D3E168293E5E";
paths = (
{
closed = 1;
nodes = (
"1348 -1084 OFFCURVE",
"1352 -1059 OFFCURVE",
"1352 -1043 CURVE SMOOTH",
"1352 -1023 OFFCURVE",
"1348 -998 OFFCURVE",
"1341 -969 CURVE",
"1280 -969 OFFCURVE",
"1250 -913 OFFCURVE",
"1250 -801 CURVE SMOOTH",
"1250 715 LINE SMOOTH",
"1250 984 OFFCURVE",
"1151 1118 OFFCURVE",
"954 1118 CURVE SMOOTH",
"843 1118 OFFCURVE",
"749 1059 OFFCURVE",
"693 934 CURVE",
"685 934 LINE",
"642 1057 OFFCURVE",
"553 1118 OFFCURVE",
"420 1118 CURVE SMOOTH",
"201 1118 OFFCURVE",
"80 944 OFFCURVE",
"80 628 CURVE",
"100 624 OFFCURVE",
"117 622 OFFCURVE",
"131 622 CURVE SMOOTH",
"147 622 OFFCURVE",
"165 625 OFFCURVE",
"184 630 CURVE",
"188 891 OFFCURVE",
"257 967 OFFCURVE",
"393 967 CURVE SMOOTH",
"508 967 OFFCURVE",
"549 879 OFFCURVE",
"549 707 CURVE SMOOTH",
"549 0 LINE",
"719 0 LINE",
"719 606 LINE SMOOTH",
"719 867 OFFCURVE",
"783 967 OFFCURVE",
"930 967 CURVE SMOOTH",
"1045 967 OFFCURVE",
"1080 880 OFFCURVE",
"1080 707 CURVE SMOOTH",
"1080 -809 LINE SMOOTH",
"1080 -1015 OFFCURVE",
"1167 -1118 OFFCURVE",
"1341 -1118 CURVE"
);
}
);
width = 1412;
}
);
note = jv_v_e;
unicode = A9BA;
},
{
glyphname = jv_v_ai;
lastChange = "2016-11-10 17:42:50 +0000";
layers = (
{
layerId = "FB35F625-CAB4-4F3A-B203-D3E168293E5E";
paths = (
{
closed = 1;
nodes = (
"1348 -1084 OFFCURVE",
"1352 -1059 OFFCURVE",
"1352 -1043 CURVE SMOOTH",
"1352 -1023 OFFCURVE",
"1348 -998 OFFCURVE",
"1341 -969 CURVE",
"1280 -969 OFFCURVE",
"1250 -913 OFFCURVE",
"1250 -801 CURVE SMOOTH",
"1250 715 LINE SMOOTH",
"1250 984 OFFCURVE",
"1151 1118 OFFCURVE",
"954 1118 CURVE SMOOTH",
"843 1118 OFFCURVE",
"749 1059 OFFCURVE",
"693 934 CURVE",
"685 934 LINE",
"642 1057 OFFCURVE",
"553 1118 OFFCURVE",
"420 1118 CURVE SMOOTH",
"201 1118 OFFCURVE",
"80 944 OFFCURVE",
"80 628 CURVE",
"100 624 OFFCURVE",
"117 622 OFFCURVE",
"131 622 CURVE SMOOTH",
"147 622 OFFCURVE",
"165 625 OFFCURVE",
"184 630 CURVE",
"188 891 OFFCURVE",
"257 967 OFFCURVE",
"393 967 CURVE SMOOTH",
"508 967 OFFCURVE",
"549 879 OFFCURVE",
"549 707 CURVE SMOOTH",
"549 0 LINE",
"719 0 LINE",
"719 606 LINE SMOOTH",
"719 867 OFFCURVE",
"783 967 OFFCURVE",
"930 967 CURVE SMOOTH",
"1045 967 OFFCURVE",
"1080 880 OFFCURVE",
"1080 707 CURVE SMOOTH",
"1080 -809 LINE SMOOTH",
"1080 -1015 OFFCURVE",
"1167 -1118 OFFCURVE",
"1341 -1118 CURVE"
);
},
{
closed = 1;
nodes = (
"814 1203 OFFCURVE",
"903 1283 OFFCURVE",
"903 1410 CURVE SMOOTH",
"903 1521 OFFCURVE",
"842 1574 OFFCURVE",
"647 1593 CURVE SMOOTH",
"550 1602 OFFCURVE",
"501 1633 OFFCURVE",
"501 1686 CURVE SMOOTH",
"501 1742 OFFCURVE",
"545 1791 OFFCURVE",
"633 1802 CURVE",
"634 1811 LINE",
"634 1819 LINE SMOOTH",
"634 1848 OFFCURVE",
"625 1875 OFFCURVE",
"606 1900 CURVE",
"447 1867 OFFCURVE",
"368 1789 OFFCURVE",
"368 1664 CURVE SMOOTH",
"368 1563 OFFCURVE",
"417 1505 OFFCURVE",
"566 1481 CURVE SMOOTH",
"639 1470 LINE SMOOTH",
"722 1457 OFFCURVE",
"763 1424 OFFCURVE",
"763 1373 CURVE SMOOTH",
"763 1330 OFFCURVE",
"729 1288 OFFCURVE",
"638 1272 CURVE",
"637 1263 LINE",
"637 1255 LINE SMOOTH",
"637 1226 OFFCURVE",
"646 1199 OFFCURVE",
"665 1174 CURVE"
);
}
);
width = 1412;
}
);
note = jv_v_ai;
unicode = A9BB;
},
{
glyphname = jv_v_ae;
lastChange = "2016-11-10 17:42:50 +0000";
layers = (
{
layerId = "FB35F625-CAB4-4F3A-B203-D3E168293E5E";
paths = (
{
closed = 1;
nodes = (
"381 1206 OFFCURVE",
"390 1232 OFFCURVE",
"390 1259 CURVE",
"386 1295 LINE",
"262 1298 OFFCURVE",
"177 1390 OFFCURVE",
"177 1498 CURVE SMOOTH",
"177 1611 OFFCURVE",
"298 1673 OFFCURVE",
"505 1673 CURVE SMOOTH",
"824 1673 OFFCURVE",
"1067 1532 OFFCURVE",
"1358 1183 CURVE",
"1392 1203 OFFCURVE",
"1419 1230 OFFCURVE",
"1439 1264 CURVE",
"1306 1411 OFFCURVE",
"1192 1521 OFFCURVE",
"1097 1592 CURVE SMOOTH",
"906 1735 OFFCURVE",
"701 1803 OFFCURVE",
"485 1803 CURVE SMOOTH",
"188 1803 OFFCURVE",
"0 1665 OFFCURVE",
"0 1482 CURVE SMOOTH",
"0 1317 OFFCURVE",
"149 1181 OFFCURVE",
"364 1181 CURVE"
);
}
);
width = 0;
}
);
note = jv_v_ae;
unicode = A9BC;
},
{
glyphname = jv_c_vocR;
lastChange = "2016-11-10 17:42:50 +0000";
layers = (
{
layerId = "FB35F625-CAB4-4F3A-B203-D3E168293E5E";
paths = (
{
closed = 1;
nodes = (
"-688 -1017 OFFCURVE",
"-606 -924 OFFCURVE",
"-557 -737 CURVE",
"-576 -722 OFFCURVE",
"-609 -713 OFFCURVE",
"-656 -710 CURVE",
"-672 -771 OFFCURVE",
"-689 -814 OFFCURVE",
"-706 -838 CURVE SMOOTH",
"-724 -862 OFFCURVE",
"-747 -874 OFFCURVE",
"-775 -874 CURVE SMOOTH",
"-835 -874 OFFCURVE",
"-866 -840 OFFCURVE",
"-866 -784 CURVE SMOOTH",
"-866 -745 OFFCURVE",
"-854 -683 OFFCURVE",
"-831 -597 CURVE",
"-552 -596 OFFCURVE",
"-324 -555 OFFCURVE",
"-145 -476 CURVE SMOOTH",
"33 -397 OFFCURVE",
"122 -299 OFFCURVE",
"122 -184 CURVE SMOOTH",
"122 -33 OFFCURVE",
"-52 75 OFFCURVE",
"-295 80 CURVE SMOOTH",
"-322 80 LINE",
"-327 57 OFFCURVE",
"-330 38 OFFCURVE",
"-330 22 CURVE SMOOTH",
"-330 7 OFFCURVE",
"-327 -11 OFFCURVE",
"-322 -34 CURVE",
"-179 -38 OFFCURVE",
"-56 -116 OFFCURVE",
"-56 -208 CURVE SMOOTH",
"-56 -278 OFFCURVE",
"-119 -339 OFFCURVE",
"-244 -391 CURVE SMOOTH",
"-369 -444 OFFCURVE",
"-555 -473 OFFCURVE",
"-801 -480 CURVE",
"-790 -425 OFFCURVE",
"-784 -378 OFFCURVE",
"-784 -339 CURVE SMOOTH",
"-784 -170 OFFCURVE",
"-869 -78 OFFCURVE",
"-1030 -78 CURVE SMOOTH",
"-1201 -78 OFFCURVE",
"-1310 -167 OFFCURVE",
"-1310 -306 CURVE SMOOTH",
"-1310 -453 OFFCURVE",
"-1180 -561 OFFCURVE",
"-999 -589 CURVE",
"-1020 -667 OFFCURVE",
"-1030 -733 OFFCURVE",
"-1030 -788 CURVE SMOOTH",
"-1030 -927 OFFCURVE",
"-942 -1017 OFFCURVE",
"-805 -1017 CURVE SMOOTH"
);
},
{
closed = 1;
nodes = (
"-1118 -456 OFFCURVE",
"-1193 -392 OFFCURVE",
"-1193 -308 CURVE SMOOTH",
"-1193 -245 OFFCURVE",
"-1133 -193 OFFCURVE",
"-1060 -193 CURVE SMOOTH",
"-976 -193 OFFCURVE",
"-943 -224 OFFCURVE",
"-943 -304 CURVE SMOOTH",
"-943 -339 OFFCURVE",
"-952 -397 OFFCURVE",
"-969 -476 CURVE"
);
}
);
width = 0;
}
);
note = jv_c_vocR;
unicode = A9BD;
},
{
glyphname = jv_c_medYa;
lastChange = "2016-11-10 17:42:50 +0000";
layers = (
{
layerId = "FB35F625-CAB4-4F3A-B203-D3E168293E5E";
paths = (
{
closed = 1;
nodes = (
"58 -1118 OFFCURVE",
"208 -1001 OFFCURVE",
"208 -657 CURVE SMOOTH",
"208 630 LINE SMOOTH",
"208 858 OFFCURVE",
"262 967 OFFCURVE",
"410 967 CURVE SMOOTH",
"531 967 OFFCURVE",
"575 891 OFFCURVE",
"575 707 CURVE SMOOTH",
"575 -809 LINE SMOOTH",
"575 -1015 OFFCURVE",
"662 -1118 OFFCURVE",
"836 -1118 CURVE",
"843 -1083 OFFCURVE",
"847 -1058 OFFCURVE",
"847 -1043 CURVE SMOOTH",
"847 -1024 OFFCURVE",
"843 -1000 OFFCURVE",
"836 -969 CURVE",
"775 -969 OFFCURVE",
"745 -913 OFFCURVE",
"745 -801 CURVE SMOOTH",
"745 715 LINE SMOOTH",
"745 984 OFFCURVE",
"647 1118 OFFCURVE",
"450 1118 CURVE SMOOTH",
"235 1118 OFFCURVE",
"94 941 OFFCURVE",
"94 657 CURVE SMOOTH",
"94 -649 LINE SMOOTH",
"94 -860 OFFCURVE",
"41 -932 OFFCURVE",
"-101 -972 CURVE SMOOTH",
"-172 -993 OFFCURVE",
"-282 -1003 OFFCURVE",
"-430 -1003 CURVE SMOOTH",
"-675 -1003 OFFCURVE",
"-822 -893 OFFCURVE",
"-822 -717 CURVE SMOOTH",
"-822 -545 OFFCURVE",
"-709 -445 OFFCURVE",
"-489 -409 CURVE SMOOTH",
"-269 -373 OFFCURVE",
"-160 -263 OFFCURVE",
"-160 -20 CURVE SMOOTH",
"-160 41 LINE",
"-330 41 LINE",
"-330 -20 LINE SMOOTH",
"-330 -171 OFFCURVE",
"-374 -259 OFFCURVE",
"-542 -292 CURVE SMOOTH",
"-626 -309 OFFCURVE",
"-697 -335 OFFCURVE",
"-756 -371 CURVE SMOOTH",
"-874 -443 OFFCURVE",
"-937 -558 OFFCURVE",
"-937 -715 CURVE SMOOTH",
"-937 -984 OFFCURVE",
"-734 -1118 OFFCURVE",
"-329 -1118 CURVE SMOOTH"
);
}
);
width = 947;
}
);
note = jv_c_medYa;
unicode = A9BE;
},
{
glyphname = jv_c_medRa;
lastChange = "2016-11-10 17:42:50 +0000";
layers = (
{
layerId = "FB35F625-CAB4-4F3A-B203-D3E168293E5E";
paths = (
{
closed = 1;
nodes = (
"-406 -800 OFFCURVE",
"56 -590 OFFCURVE",
"56 -245 CURVE SMOOTH",
"56 -70 OFFCURVE",
"-99 77 OFFCURVE",
"-310 80 CURVE",
"-327 55 OFFCURVE",
"-336 29 OFFCURVE",
"-336 4 CURVE",
"-332 -34 LINE",
"-219 -34 OFFCURVE",
"-119 -151 OFFCURVE",
"-119 -248 CURVE SMOOTH",
"-119 -385 OFFCURVE",
"-203 -492 OFFCURVE",
"-371 -569 CURVE SMOOTH",
"-539 -646 OFFCURVE",
"-779 -685 OFFCURVE",
"-1091 -685 CURVE SMOOTH",
"-1326 -685 OFFCURVE",
"-1537 -641 OFFCURVE",
"-1726 -552 CURVE SMOOTH",
"-2104 -375 OFFCURVE",
"-2321 -42 OFFCURVE",
"-2321 369 CURVE SMOOTH",
"-2321 734 OFFCURVE",
"-2206 1041 OFFCURVE",
"-1995 1221 CURVE",
"-2015 1255 OFFCURVE",
"-2042 1282 OFFCURVE",
"-2076 1302 CURVE",
"-2319 1089 OFFCURVE",
"-2440 773 OFFCURVE",
"-2440 354 CURVE SMOOTH",
"-2440 120 OFFCURVE",
"-2383 -84 OFFCURVE",
"-2269 -257 CURVE SMOOTH",
"-2042 -604 OFFCURVE",
"-1598 -800 OFFCURVE",
"-1050 -800 CURVE SMOOTH"
);
}
);
width = 0;
}
);
note = jv_c_medRa;
unicode = A9BF;
},
{
glyphname = jv_Pangkon;
lastChange = "2016-11-10 17:42:50 +0000";
layers = (
{
layerId = "FB35F625-CAB4-4F3A-B203-D3E168293E5E";
paths = (
{
closed = 1;
nodes = (
"718 -1118 OFFCURVE",
"834 -1104 OFFCURVE",
"914 -1075 CURVE SMOOTH",
"1074 -1018 OFFCURVE",
"1145 -894 OFFCURVE",
"1145 -657 CURVE SMOOTH",
"1145 630 LINE SMOOTH",
"1145 858 OFFCURVE",
"1199 967 OFFCURVE",
"1347 967 CURVE SMOOTH",
"1462 967 OFFCURVE",
"1512 902 OFFCURVE",
"1512 707 CURVE SMOOTH",
"1512 -809 LINE SMOOTH",
"1512 -1015 OFFCURVE",
"1599 -1118 OFFCURVE",
"1773 -1118 CURVE",
"1780 -1084 OFFCURVE",
"1784 -1059 OFFCURVE",
"1784 -1043 CURVE SMOOTH",
"1784 -1023 OFFCURVE",
"1780 -998 OFFCURVE",
"1773 -969 CURVE",
"1712 -969 OFFCURVE",
"1682 -913 OFFCURVE",
"1682 -801 CURVE SMOOTH",
"1682 715 LINE SMOOTH",
"1682 984 OFFCURVE",
"1584 1118 OFFCURVE",
"1387 1118 CURVE SMOOTH",
"1167 1118 OFFCURVE",
"1031 936 OFFCURVE",
"1031 657 CURVE SMOOTH",
"1031 -649 LINE SMOOTH",
"1031 -750 OFFCURVE",
"1017 -823 OFFCURVE",
"988 -868 CURVE SMOOTH",
"930 -958 OFFCURVE",
"792 -1003 OFFCURVE",
"565 -1003 CURVE SMOOTH",
"265 -1003 OFFCURVE",
"115 -912 OFFCURVE",
"115 -729 CURVE SMOOTH",
"115 -556 OFFCURVE",
"254 -420 OFFCURVE",
"426 -420 CURVE",
"431 -397 OFFCURVE",
"434 -379 OFFCURVE",
"434 -364 CURVE SMOOTH",
"434 -348 OFFCURVE",
"431 -329 OFFCURVE",
"426 -306 CURVE",
"178 -306 OFFCURVE",
"0 -496 OFFCURVE",
"0 -732 CURVE SMOOTH",
"0 -972 OFFCURVE",
"217 -1118 OFFCURVE",
"565 -1118 CURVE SMOOTH"
);
}
);
width = 1784;
}
);
note = jv_Pangkon;
unicode = A9C0;
},
{
glyphname = jv_Rer_l;
lastChange = "2016-11-10 17:42:50 +0000";
layers = (
{
layerId = "FB35F625-CAB4-4F3A-B203-D3E168293E5E";
paths = (
{
closed = 1;
nodes = (
"1722 -496 OFFCURVE",
"2287 -453 OFFCURVE",
"2560 -372 CURVE",
"2560 -327 OFFCURVE",
"2549 -289 OFFCURVE",
"2526 -258 CURVE",
"2247 -335 OFFCURVE",
"1727 -381 OFFCURVE",
"1402 -381 CURVE SMOOTH",
"719 -381 OFFCURVE",
"340 -170 OFFCURVE",
"340 215 CURVE SMOOTH",
"340 262 OFFCURVE",
"344 296 OFFCURVE",
"355 327 CURVE",
"388 267 OFFCURVE",
"455 227 OFFCURVE",
"531 227 CURVE SMOOTH",
"638 227 OFFCURVE",
"729 313 OFFCURVE",
"729 414 CURVE SMOOTH",
"729 522 OFFCURVE",
"641 601 OFFCURVE",
"514 601 CURVE SMOOTH",
"317 601 OFFCURVE",
"165 446 OFFCURVE",
"165 235 CURVE SMOOTH",
"165 -221 OFFCURVE",
"610 -496 OFFCURVE",
"1351 -496 CURVE SMOOTH"
);
},
{
closed = 1;
nodes = (
"1606 -1322 OFFCURVE",
"1752 -1286 OFFCURVE",
"1918 -1213 CURVE SMOOTH",
"2250 -1069 OFFCURVE",
"2542 -811 OFFCURVE",
"2667 -562 CURVE",
"2654 -519 OFFCURVE",
"2614 -490 OFFCURVE",
"2578 -479 CURVE",
"2519 -592 OFFCURVE",
"2428 -703 OFFCURVE",
"2304 -812 CURVE SMOOTH",
"2056 -1031 OFFCURVE",
"1703 -1192 OFFCURVE",
"1494 -1192 CURVE SMOOTH",
"1365 -1192 OFFCURVE",
"1248 -1141 OFFCURVE",
"1164 -1061 CURVE",
"1245 -1034 OFFCURVE",
"1299 -961 OFFCURVE",
"1299 -884 CURVE SMOOTH",
"1299 -785 OFFCURVE",
"1210 -697 OFFCURVE",
"1101 -697 CURVE SMOOTH",
"992 -697 OFFCURVE",
"902 -780 OFFCURVE",
"902 -884 CURVE SMOOTH",
"902 -1143 OFFCURVE",
"1184 -1322 OFFCURVE",
"1480 -1322 CURVE SMOOTH"
);
},
{
closed = 1;
nodes = (
"2274 -1800 OFFCURVE",
"2400 -1749 OFFCURVE",
"2513 -1647 CURVE SMOOTH",
"2739 -1444 OFFCURVE",
"2895 -1044 OFFCURVE",
"2895 -737 CURVE SMOOTH",
"2895 -686 OFFCURVE",
"2892 -638 OFFCURVE",
"2885 -591 CURVE",
"2871 -586 OFFCURVE",
"2852 -584 OFFCURVE",
"2828 -584 CURVE SMOOTH",
"2801 -584 OFFCURVE",
"2780 -586 OFFCURVE",
"2765 -591 CURVE",
"2769 -624 OFFCURVE",
"2771 -659 OFFCURVE",
"2771 -694 CURVE SMOOTH",
"2771 -1058 OFFCURVE",
"2604 -1488 OFFCURVE",
"2335 -1604 CURVE",
"2330 -1503 OFFCURVE",
"2240 -1426 OFFCURVE",
"2137 -1426 CURVE SMOOTH",
"2028 -1426 OFFCURVE",
"1938 -1509 OFFCURVE",
"1938 -1613 CURVE SMOOTH",
"1938 -1716 OFFCURVE",
"2028 -1800 OFFCURVE",
"2137 -1800 CURVE SMOOTH"
);
},
{
closed = 1;
nodes = (
"2537 -110 OFFCURVE",
"2548 -71 OFFCURVE",
"2548 -18 CURVE",
"2380 -18 OFFCURVE",
"2200 26 OFFCURVE",
"2009 113 CURVE SMOOTH",
"1626 287 OFFCURVE",
"1339 580 OFFCURVE",
"1339 796 CURVE SMOOTH",
"1339 868 OFFCURVE",
"1354 937 OFFCURVE",
"1385 1002 CURVE",
"1426 954 OFFCURVE",
"1478 930 OFFCURVE",
"1542 930 CURVE SMOOTH",
"1649 930 OFFCURVE",
"1740 1016 OFFCURVE",
"1740 1117 CURVE SMOOTH",
"1740 1216 OFFCURVE",
"1651 1304 OFFCURVE",
"1542 1304 CURVE SMOOTH",
"1347 1304 OFFCURVE",
"1181 1104 OFFCURVE",
"1181 847 CURVE SMOOTH",
"1181 331 OFFCURVE",
"1949 -119 OFFCURVE",
"2516 -135 CURVE"
);
},
{
closed = 1;
nodes = (
"3024 -451 OFFCURVE",
"3152 -336 OFFCURVE",
"3152 -195 CURVE SMOOTH",
"3152 -56 OFFCURVE",
"3027 60 OFFCURVE",
"2883 60 CURVE SMOOTH",
"2740 60 OFFCURVE",
"2613 -58 OFFCURVE",
"2613 -195 CURVE SMOOTH",
"2613 -332 OFFCURVE",
"2736 -451 OFFCURVE",
"2883 -451 CURVE SMOOTH"
);
},
{
closed = 1;
nodes = (
"2804 -331 OFFCURVE",
"2738 -268 OFFCURVE",
"2738 -195 CURVE SMOOTH",
"2738 -123 OFFCURVE",
"2803 -59 OFFCURVE",
"2883 -59 CURVE SMOOTH",
"2960 -59 OFFCURVE",
"3027 -122 OFFCURVE",
"3027 -195 CURVE SMOOTH",
"3027 -270 OFFCURVE",
"2959 -331 OFFCURVE",
"2883 -331 CURVE SMOOTH"
);
},
{
closed = 1;
nodes = (
"2696 138 OFFCURVE",
"2730 170 OFFCURVE",
"2745 206 CURVE",
"2504 395 OFFCURVE",
"2308 766 OFFCURVE",
"2308 1047 CURVE SMOOTH",
"2308 1239 OFFCURVE",
"2389 1376 OFFCURVE",
"2542 1437 CURVE",
"2553 1348 OFFCURVE",
"2639 1273 OFFCURVE",
"2740 1273 CURVE SMOOTH",
"2847 1273 OFFCURVE",
"2938 1359 OFFCURVE",
"2938 1460 CURVE SMOOTH",
"2938 1559 OFFCURVE",
"2849 1647 OFFCURVE",
"2740 1647 CURVE SMOOTH",
"2385 1647 OFFCURVE",
"2180 1434 OFFCURVE",
"2180 1075 CURVE SMOOTH",
"2180 714 OFFCURVE",
"2396 295 OFFCURVE",
"2661 123 CURVE"
);
}
);
width = 3317;
}
);
note = jv_Rer_l;
unicode = A9C1;
},
{
glyphname = jv_Rer_r;
lastChange = "2016-11-10 17:42:50 +0000";
layers = (
{
layerId = "FB35F625-CAB4-4F3A-B203-D3E168293E5E";
paths = (
{
closed = 1;
nodes = (
"2998 -992 OFFCURVE",
"3152 -847 OFFCURVE",
"3152 -616 CURVE SMOOTH",
"3152 -476 OFFCURVE",
"3105 -350 OFFCURVE",
"3011 -237 CURVE SMOOTH",
"2822 -13 OFFCURVE",
"2461 105 OFFCURVE",
"1966 105 CURVE SMOOTH",
"1559 105 OFFCURVE",
"1040 60 OFFCURVE",
"757 -19 CURVE",
"757 -64 OFFCURVE",
"768 -102 OFFCURVE",
"791 -133 CURVE",
"1034 -64 OFFCURVE",
"1560 -10 OFFCURVE",
"1915 -10 CURVE SMOOTH",
"2614 -10 OFFCURVE",
"2977 -223 OFFCURVE",
"2977 -611 CURVE SMOOTH",
"2977 -654 OFFCURVE",
"2972 -689 OFFCURVE",
"2962 -718 CURVE",
"2929 -658 OFFCURVE",
"2862 -618 OFFCURVE",
"2786 -618 CURVE SMOOTH",
"2675 -618 OFFCURVE",
"2588 -702 OFFCURVE",
"2588 -805 CURVE SMOOTH",
"2588 -914 OFFCURVE",
"2672 -992 OFFCURVE",
"2803 -992 CURVE SMOOTH"
);
},
{
closed = 1;
nodes = (
"930 -2038 OFFCURVE",
"1137 -1830 OFFCURVE",
"1137 -1466 CURVE SMOOTH",
"1137 -1114 OFFCURVE",
"933 -695 OFFCURVE",
"656 -514 CURVE",
"621 -529 OFFCURVE",
"587 -561 OFFCURVE",
"572 -597 CURVE",
"821 -793 OFFCURVE",
"1009 -1151 OFFCURVE",
"1009 -1438 CURVE SMOOTH",
"1009 -1627 OFFCURVE",
"928 -1767 OFFCURVE",
"775 -1828 CURVE",
"762 -1735 OFFCURVE",
"678 -1664 OFFCURVE",
"577 -1664 CURVE SMOOTH",
"466 -1664 OFFCURVE",
"379 -1748 OFFCURVE",
"379 -1851 CURVE SMOOTH",
"379 -1954 OFFCURVE",
"466 -2038 OFFCURVE",
"577 -2038 CURVE SMOOTH"
);
},
{
closed = 1;
nodes = (
"581 -451 OFFCURVE",
"704 -336 OFFCURVE",
"704 -196 CURVE SMOOTH",
"704 -55 OFFCURVE",
"581 60 OFFCURVE",
"434 60 CURVE SMOOTH",
"286 60 OFFCURVE",
"165 -56 OFFCURVE",
"165 -196 CURVE SMOOTH",
"165 -335 OFFCURVE",
"286 -451 OFFCURVE",
"434 -451 CURVE SMOOTH"
);
},
{
closed = 1;
nodes = (
"354 -332 OFFCURVE",
"290 -272 OFFCURVE",
"290 -196 CURVE SMOOTH",
"290 -120 OFFCURVE",
"353 -60 OFFCURVE",
"434 -60 CURVE SMOOTH",
"515 -60 OFFCURVE",
"579 -121 OFFCURVE",
"579 -196 CURVE SMOOTH",
"579 -271 OFFCURVE",
"515 -332 OFFCURVE",
"434 -332 CURVE SMOOTH"
);
},
{
closed = 1;
nodes = (
"1984 -1695 OFFCURVE",
"2136 -1477 OFFCURVE",
"2136 -1238 CURVE SMOOTH",
"2136 -729 OFFCURVE",
"1373 -272 OFFCURVE",
"801 -256 CURVE",
"780 -280 OFFCURVE",
"769 -319 OFFCURVE",
"769 -373 CURVE",
"938 -373 OFFCURVE",
"1117 -415 OFFCURVE",
"1307 -500 CURVE SMOOTH",
"1687 -670 OFFCURVE",
"1978 -962 OFFCURVE",
"1978 -1187 CURVE SMOOTH",
"1978 -1258 OFFCURVE",
"1963 -1326 OFFCURVE",
"1932 -1393 CURVE",
"1891 -1345 OFFCURVE",
"1839 -1321 OFFCURVE",
"1775 -1321 CURVE SMOOTH",
"1664 -1321 OFFCURVE",
"1577 -1405 OFFCURVE",
"1577 -1508 CURVE SMOOTH",
"1577 -1611 OFFCURVE",
"1664 -1695 OFFCURVE",
"1775 -1695 CURVE SMOOTH"
);
},
{
closed = 1;
nodes = (
"514 193 OFFCURVE",
"535 195 OFFCURVE",
"552 200 CURVE",
"548 233 OFFCURVE",
"546 267 OFFCURVE",
"546 303 CURVE SMOOTH",
"546 680 OFFCURVE",
"721 1100 OFFCURVE",
"982 1213 CURVE",
"987 1113 OFFCURVE",
"1075 1035 OFFCURVE",
"1180 1035 CURVE SMOOTH",
"1293 1035 OFFCURVE",
"1379 1119 OFFCURVE",
"1379 1222 CURVE SMOOTH",
"1379 1326 OFFCURVE",
"1291 1409 OFFCURVE",
"1180 1409 CURVE SMOOTH",
"1046 1409 OFFCURVE",
"922 1358 OFFCURVE",
"807 1257 CURVE SMOOTH",
"578 1053 OFFCURVE",
"422 662 OFFCURVE",
"422 346 CURVE SMOOTH",
"422 295 OFFCURVE",
"425 247 OFFCURVE",
"432 200 CURVE",
"448 195 OFFCURVE",
"467 193 OFFCURVE",
"489 193 CURVE SMOOTH"
);
},
{
closed = 1;
nodes = (
"799 202 OFFCURVE",
"891 314 OFFCURVE",
"1014 423 CURVE SMOOTH",
"1261 641 OFFCURVE",
"1600 801 OFFCURVE",
"1823 801 CURVE SMOOTH",
"1951 801 OFFCURVE",
"2070 750 OFFCURVE",
"2153 670 CURVE",
"2076 646 OFFCURVE",
"2018 576 OFFCURVE",
"2018 493 CURVE SMOOTH",
"2018 390 OFFCURVE",
"2105 306 OFFCURVE",
"2216 306 CURVE SMOOTH",
"2329 306 OFFCURVE",
"2415 390 OFFCURVE",
"2415 493 CURVE SMOOTH",
"2415 572 OFFCURVE",
"2391 644 OFFCURVE",
"2343 709 CURVE SMOOTH",
"2247 840 OFFCURVE",
"2038 931 OFFCURVE",
"1837 931 CURVE SMOOTH",
"1708 931 OFFCURVE",
"1561 894 OFFCURVE",
"1394 821 CURVE SMOOTH",
"1061 673 OFFCURVE",
"775 423 OFFCURVE",
"650 171 CURVE",
"663 128 OFFCURVE",
"703 99 OFFCURVE",
"739 88 CURVE"
);
}
);
width = 3317;
}
);
note = jv_Rer_r;
unicode = A9C2;
},
{
glyphname = jv_p_An;
lastChange = "2016-11-10 17:42:50 +0000";
layers = (
{
layerId = "FB35F625-CAB4-4F3A-B203-D3E168293E5E";
paths = (
{
closed = 1;
nodes = (
"2914 -1084 OFFCURVE",
"2918 -1059 OFFCURVE",
"2918 -1043 CURVE SMOOTH",
"2918 -1023 OFFCURVE",
"2914 -998 OFFCURVE",
"2907 -969 CURVE",
"2846 -969 OFFCURVE",
"2816 -913 OFFCURVE",
"2816 -801 CURVE SMOOTH",
"2816 -209 LINE",
"2955 -210 OFFCURVE",
"3093 -224 OFFCURVE",
"3229 -249 CURVE",
"3229 -681 LINE SMOOTH",
"3229 -778 OFFCURVE",
"3223 -847 OFFCURVE",
"3211 -886 CURVE SMOOTH",
"3186 -965 OFFCURVE",
"3129 -1003 OFFCURVE",
"3009 -1003 CURVE",
"3004 -1026 OFFCURVE",
"3001 -1045 OFFCURVE",
"3001 -1061 CURVE SMOOTH",
"3001 -1076 OFFCURVE",
"3004 -1095 OFFCURVE",
"3009 -1118 CURVE",
"3092 -1118 OFFCURVE",
"3158 -1104 OFFCURVE",
"3206 -1075 CURVE SMOOTH",
"3301 -1019 OFFCURVE",
"3343 -925 OFFCURVE",
"3343 -693 CURVE SMOOTH",
"3343 -273 LINE",
"3460 -300 OFFCURVE",
"3573 -335 OFFCURVE",
"3680 -378 CURVE",
"3680 -809 LINE SMOOTH",
"3680 -1015 OFFCURVE",
"3767 -1118 OFFCURVE",
"3941 -1118 CURVE",
"3948 -1084 OFFCURVE",
"3952 -1059 OFFCURVE",
"3952 -1043 CURVE SMOOTH",
"3952 -1023 OFFCURVE",
"3948 -998 OFFCURVE",
"3941 -969 CURVE",
"3880 -969 OFFCURVE",
"3850 -913 OFFCURVE",
"3850 -801 CURVE SMOOTH",
"3850 -453 LINE",
"4065 -558 OFFCURVE",
"4243 -689 OFFCURVE",
"4386 -845 CURVE",
"4278 -853 OFFCURVE",
"4171 -916 OFFCURVE",
"4100 -1019 CURVE",
"4123 -1058 OFFCURVE",
"4133 -1067 OFFCURVE",
"4169 -1088 CURVE",
"4224 -1020 OFFCURVE",
"4324 -959 OFFCURVE",
"4392 -959 CURVE SMOOTH",
"4437 -959 OFFCURVE",
"4494 -985 OFFCURVE",
"4529 -1034 CURVE",
"4544 -1059 LINE",
"4600 -1036 OFFCURVE",
"4613 -1028 OFFCURVE",
"4642 -999 CURVE",
"4475 -726 OFFCURVE",
"4197 -491 OFFCURVE",
"3850 -327 CURVE",
"3850 715 LINE SMOOTH",
"3850 984 OFFCURVE",
"3755 1118 OFFCURVE",
"3565 1118 CURVE SMOOTH",
"3350 1118 OFFCURVE",
"3229 948 OFFCURVE",
"3229 657 CURVE SMOOTH",
"3229 -131 LINE",
"3089 -106 OFFCURVE",
"2951 -93 OFFCURVE",
"2816 -92 CURVE",
"2816 715 LINE SMOOTH",
"2816 984 OFFCURVE",
"2721 1118 OFFCURVE",
"2531 1118 CURVE SMOOTH",
"2316 1118 OFFCURVE",
"2195 948 OFFCURVE",
"2195 657 CURVE SMOOTH",
"2195 -174 LINE",
"1891 -258 OFFCURVE",
"1641 -390 OFFCURVE",
"1490 -550 CURVE",
"1510 -588 OFFCURVE",
"1535 -617 OFFCURVE",
"1565 -637 CURVE",
"1614 -585 OFFCURVE",
"1674 -537 OFFCURVE",
"1745 -492 CURVE",
"1880 -509 OFFCURVE",
"1963 -574 OFFCURVE",
"1963 -647 CURVE SMOOTH",
"1963 -727 OFFCURVE",
"1868 -786 OFFCURVE",
"1721 -786 CURVE SMOOTH",
"1502 -786 OFFCURVE",
"1328 -674 OFFCURVE",
"1328 -526 CURVE SMOOTH",
"1328 -334 OFFCURVE",
"1579 -190 OFFCURVE",
"1987 -170 CURVE",
"1992 -147 OFFCURVE",
"1995 -128 OFFCURVE",
"1995 -113 CURVE SMOOTH",
"1995 -97 OFFCURVE",
"1992 -78 OFFCURVE",
"1987 -55 CURVE",
"1478 -71 OFFCURVE",
"1159 -281 OFFCURVE",
"1159 -537 CURVE SMOOTH",
"1159 -746 OFFCURVE",
"1405 -901 OFFCURVE",
"1696 -901 CURVE SMOOTH",
"1925 -901 OFFCURVE",
"2076 -796 OFFCURVE",
"2076 -652 CURVE SMOOTH",
"2076 -548 OFFCURVE",
"1994 -465 OFFCURVE",
"1847 -434 CURVE",
"1948 -380 OFFCURVE",
"2064 -334 OFFCURVE",
"2195 -297 CURVE",
"2195 -609 LINE SMOOTH",
"2195 -857 OFFCURVE",
"1954 -1000 OFFCURVE",
"1542 -1000 CURVE SMOOTH",
"1014 -1000 OFFCURVE",
"542 -755 OFFCURVE",
"139 -290 CURVE",
"95 -306 OFFCURVE",
"65 -337 OFFCURVE",
"50 -384 CURVE",
"471 -871 OFFCURVE",
"965 -1115 OFFCURVE",
"1531 -1115 CURVE SMOOTH",
"2014 -1115 OFFCURVE",
"2309 -945 OFFCURVE",
"2309 -660 CURVE SMOOTH",
"2309 -267 LINE",
"2422 -241 OFFCURVE",
"2535 -223 OFFCURVE",
"2646 -214 CURVE",
"2646 -809 LINE SMOOTH",
"2646 -1015 OFFCURVE",
"2733 -1118 OFFCURVE",
"2907 -1118 CURVE"
);
},
{
closed = 1;
nodes = (
"1079 -20 OFFCURVE",
"1241 92 OFFCURVE",
"1249 299 CURVE",
"1228 306 OFFCURVE",
"1209 309 OFFCURVE",
"1190 309 CURVE SMOOTH",
"1171 309 OFFCURVE",
"1152 306 OFFCURVE",
"1134 299 CURVE",
"1127 184 OFFCURVE",
"1022 131 OFFCURVE",
"849 131 CURVE SMOOTH",
"637 131 OFFCURVE",
"549 218 OFFCURVE",
"549 391 CURVE SMOOTH",
"549 1098 LINE",
"379 1098 LINE",
"379 383 LINE SMOOTH",
"379 116 OFFCURVE",
"514 -20 OFFCURVE",
"807 -20 CURVE SMOOTH"
);
},
{
closed = 1;
nodes = (
"1782 0 LINE",
"1782 715 LINE SMOOTH",
"1782 984 OFFCURVE",
"1683 1118 OFFCURVE",
"1486 1118 CURVE SMOOTH",
"1350 1118 OFFCURVE",
"1254 1054 OFFCURVE",
"1198 926 CURVE",
"1145 1051 OFFCURVE",
"1057 1118 OFFCURVE",
"949 1118 CURVE SMOOTH",
"762 1118 OFFCURVE",
"649 909 OFFCURVE",
"649 661 CURVE SMOOTH",
"649 645 LINE",
"650 630 LINE",
"670 626 OFFCURVE",
"687 624 OFFCURVE",
"701 624 CURVE SMOOTH",
"717 624 OFFCURVE",
"735 627 OFFCURVE",
"754 632 CURVE",
"759 887 OFFCURVE",
"825 967 OFFCURVE",
"950 967 CURVE SMOOTH",
"1077 967 OFFCURVE",
"1142 880 OFFCURVE",
"1146 632 CURVE SMOOTH",
"1146 628 LINE",
"1166 624 OFFCURVE",
"1183 622 OFFCURVE",
"1197 622 CURVE SMOOTH",
"1213 622 OFFCURVE",
"1231 625 OFFCURVE",
"1250 630 CURVE",
"1250 641 LINE SMOOTH",
"1254 890 OFFCURVE",
"1326 967 OFFCURVE",
"1459 967 CURVE SMOOTH",
"1574 967 OFFCURVE",
"1612 880 OFFCURVE",
"1612 707 CURVE SMOOTH",
"1612 0 LINE"
);
},
{
closed = 1;
nodes = (
"2309 630 LINE SMOOTH",
"2309 887 OFFCURVE",
"2360 967 OFFCURVE",
"2491 967 CURVE SMOOTH",
"2603 967 OFFCURVE",
"2646 908 OFFCURVE",
"2646 707 CURVE SMOOTH",
"2646 -97 LINE",
"2531 -105 OFFCURVE",
"2418 -121 OFFCURVE",
"2309 -146 CURVE"
);
},
{
closed = 1;
nodes = (
"3571 -214 OFFCURVE",
"3458 -180 OFFCURVE",
"3343 -154 CURVE",
"3343 630 LINE SMOOTH",
"3343 887 OFFCURVE",
"3394 967 OFFCURVE",
"3525 967 CURVE SMOOTH",
"3637 967 OFFCURVE",
"3680 908 OFFCURVE",
"3680 707 CURVE SMOOTH",
"3680 -255 LINE"
);
}
);
width = 4652;
}
);
note = jv_p_An;
unicode = A9C3;
},
{
glyphname = jv_p_Ma;
lastChange = "2016-11-10 17:42:50 +0000";
layers = (
{
layerId = "FB35F625-CAB4-4F3A-B203-D3E168293E5E";
paths = (
{
closed = 1;
nodes = (
"2398 -1118 OFFCURVE",
"2717 -953 OFFCURVE",
"2717 -660 CURVE SMOOTH",
"2717 -267 LINE",
"2830 -241 OFFCURVE",
"2943 -223 OFFCURVE",
"3054 -214 CURVE",
"3054 -809 LINE SMOOTH",
"3054 -1015 OFFCURVE",
"3141 -1118 OFFCURVE",
"3315 -1118 CURVE",
"3322 -1084 OFFCURVE",
"3326 -1059 OFFCURVE",
"3326 -1043 CURVE SMOOTH",
"3326 -1023 OFFCURVE",
"3322 -998 OFFCURVE",
"3315 -969 CURVE",
"3254 -969 OFFCURVE",
"3224 -913 OFFCURVE",
"3224 -801 CURVE SMOOTH",
"3224 -209 LINE",
"3363 -210 OFFCURVE",
"3501 -224 OFFCURVE",
"3637 -249 CURVE",
"3637 -681 LINE SMOOTH",
"3637 -778 OFFCURVE",
"3631 -847 OFFCURVE",
"3619 -886 CURVE SMOOTH",
"3594 -965 OFFCURVE",
"3537 -1003 OFFCURVE",
"3417 -1003 CURVE",
"3412 -1026 OFFCURVE",
"3409 -1045 OFFCURVE",
"3409 -1061 CURVE SMOOTH",
"3409 -1076 OFFCURVE",
"3412 -1095 OFFCURVE",
"3417 -1118 CURVE",
"3500 -1118 OFFCURVE",
"3566 -1104 OFFCURVE",
"3614 -1075 CURVE SMOOTH",
"3709 -1019 OFFCURVE",
"3751 -925 OFFCURVE",
"3751 -693 CURVE SMOOTH",
"3751 -273 LINE",
"3868 -300 OFFCURVE",
"3981 -335 OFFCURVE",
"4088 -378 CURVE",
"4088 -809 LINE SMOOTH",
"4088 -1015 OFFCURVE",
"4175 -1118 OFFCURVE",
"4349 -1118 CURVE",
"4356 -1084 OFFCURVE",
"4360 -1059 OFFCURVE",
"4360 -1043 CURVE SMOOTH",
"4360 -1023 OFFCURVE",
"4356 -998 OFFCURVE",
"4349 -969 CURVE",
"4288 -969 OFFCURVE",
"4258 -913 OFFCURVE",
"4258 -801 CURVE SMOOTH",
"4258 -453 LINE",
"4473 -558 OFFCURVE",
"4651 -689 OFFCURVE",
"4794 -845 CURVE",
"4686 -853 OFFCURVE",
"4579 -916 OFFCURVE",
"4508 -1019 CURVE",
"4531 -1058 OFFCURVE",
"4541 -1067 OFFCURVE",
"4577 -1088 CURVE",
"4632 -1020 OFFCURVE",
"4732 -959 OFFCURVE",
"4800 -959 CURVE SMOOTH",
"4845 -959 OFFCURVE",
"4902 -985 OFFCURVE",
"4937 -1034 CURVE",
"4952 -1059 LINE",
"5008 -1036 OFFCURVE",
"5021 -1028 OFFCURVE",
"5050 -999 CURVE",
"4883 -726 OFFCURVE",
"4605 -491 OFFCURVE",
"4258 -327 CURVE",
"4258 715 LINE SMOOTH",
"4258 984 OFFCURVE",
"4163 1118 OFFCURVE",
"3973 1118 CURVE SMOOTH",
"3758 1118 OFFCURVE",
"3637 948 OFFCURVE",
"3637 657 CURVE SMOOTH",
"3637 -131 LINE",
"3497 -106 OFFCURVE",
"3359 -93 OFFCURVE",
"3224 -92 CURVE",
"3224 715 LINE SMOOTH",
"3224 984 OFFCURVE",
"3129 1118 OFFCURVE",
"2939 1118 CURVE SMOOTH",
"2724 1118 OFFCURVE",
"2603 948 OFFCURVE",
"2603 657 CURVE SMOOTH",
"2603 -174 LINE",
"2299 -258 OFFCURVE",
"2049 -390 OFFCURVE",
"1898 -550 CURVE",
"1918 -588 OFFCURVE",
"1943 -617 OFFCURVE",
"1973 -637 CURVE",
"2022 -585 OFFCURVE",
"2082 -537 OFFCURVE",
"2153 -492 CURVE",
"2290 -511 OFFCURVE",
"2371 -573 OFFCURVE",
"2371 -648 CURVE SMOOTH",
"2371 -727 OFFCURVE",
"2277 -786 OFFCURVE",
"2122 -786 CURVE SMOOTH",
"1914 -786 OFFCURVE",
"1736 -676 OFFCURVE",
"1736 -520 CURVE SMOOTH",
"1736 -340 OFFCURVE",
"1994 -186 OFFCURVE",
"2395 -170 CURVE",
"2400 -147 OFFCURVE",
"2403 -128 OFFCURVE",
"2403 -113 CURVE SMOOTH",
"2403 -97 OFFCURVE",
"2400 -78 OFFCURVE",
"2395 -55 CURVE",
"2232 -60 OFFCURVE",
"2087 -84 OFFCURVE",
"1962 -127 CURVE SMOOTH",
"1710 -215 OFFCURVE",
"1567 -368 OFFCURVE",
"1567 -533 CURVE SMOOTH",
"1567 -752 OFFCURVE",
"1804 -901 OFFCURVE",
"2120 -901 CURVE SMOOTH",
"2327 -901 OFFCURVE",
"2484 -794 OFFCURVE",
"2484 -651 CURVE SMOOTH",
"2484 -548 OFFCURVE",
"2398 -463 OFFCURVE",
"2255 -434 CURVE",
"2356 -380 OFFCURVE",
"2472 -334 OFFCURVE",
"2603 -297 CURVE",
"2603 -609 LINE SMOOTH",
"2603 -817 OFFCURVE",
"2507 -912 OFFCURVE",
"2256 -964 CURVE SMOOTH",
"2131 -990 OFFCURVE",
"1950 -1003 OFFCURVE",
"1715 -1003 CURVE SMOOTH",
"1414 -1003 OFFCURVE",
"1145 -952 OFFCURVE",
"908 -850 CURVE SMOOTH",
"434 -647 OFFCURVE",
"165 -267 OFFCURVE",
"165 181 CURVE SMOOTH",
"165 529 OFFCURVE",
"320 885 OFFCURVE",
"572 1120 CURVE",
"552 1154 OFFCURVE",
"525 1181 OFFCURVE",
"491 1201 CURVE",
"227 941 OFFCURVE",
"50 519 OFFCURVE",
"50 170 CURVE SMOOTH",
"50 -57 OFFCURVE",
"118 -273 OFFCURVE",
"255 -479 CURVE SMOOTH",
"528 -892 OFFCURVE",
"1048 -1118 OFFCURVE",
"1777 -1118 CURVE SMOOTH"
);
},
{
closed = 1;
nodes = (
"1487 -20 OFFCURVE",
"1649 92 OFFCURVE",
"1657 299 CURVE",
"1636 306 OFFCURVE",
"1617 309 OFFCURVE",
"1598 309 CURVE SMOOTH",
"1579 309 OFFCURVE",
"1560 306 OFFCURVE",
"1542 299 CURVE",
"1535 184 OFFCURVE",
"1430 131 OFFCURVE",
"1257 131 CURVE SMOOTH",
"1045 131 OFFCURVE",
"957 218 OFFCURVE",
"957 391 CURVE SMOOTH",
"957 1098 LINE",
"787 1098 LINE",
"787 383 LINE SMOOTH",
"787 116 OFFCURVE",
"922 -20 OFFCURVE",
"1215 -20 CURVE SMOOTH"
);
},
{
closed = 1;
nodes = (
"2190 0 LINE",
"2190 715 LINE SMOOTH",
"2190 984 OFFCURVE",
"2091 1118 OFFCURVE",
"1894 1118 CURVE SMOOTH",
"1758 1118 OFFCURVE",
"1662 1054 OFFCURVE",
"1606 926 CURVE",
"1553 1051 OFFCURVE",
"1465 1118 OFFCURVE",
"1357 1118 CURVE SMOOTH",
"1170 1118 OFFCURVE",
"1057 909 OFFCURVE",
"1057 661 CURVE SMOOTH",
"1057 645 LINE",
"1058 630 LINE",
"1078 626 OFFCURVE",
"1095 624 OFFCURVE",
"1109 624 CURVE SMOOTH",
"1125 624 OFFCURVE",
"1143 627 OFFCURVE",
"1162 632 CURVE",
"1167 887 OFFCURVE",
"1233 967 OFFCURVE",
"1358 967 CURVE SMOOTH",
"1485 967 OFFCURVE",
"1550 880 OFFCURVE",
"1554 632 CURVE SMOOTH",
"1554 628 LINE",
"1574 624 OFFCURVE",
"1591 622 OFFCURVE",
"1605 622 CURVE SMOOTH",
"1621 622 OFFCURVE",
"1639 625 OFFCURVE",
"1658 630 CURVE",
"1658 641 LINE SMOOTH",
"1662 890 OFFCURVE",
"1734 967 OFFCURVE",
"1867 967 CURVE SMOOTH",
"1982 967 OFFCURVE",
"2020 880 OFFCURVE",
"2020 707 CURVE SMOOTH",
"2020 0 LINE"
);
},
{
closed = 1;
nodes = (
"2717 630 LINE SMOOTH",
"2717 887 OFFCURVE",
"2768 967 OFFCURVE",
"2899 967 CURVE SMOOTH",
"3011 967 OFFCURVE",
"3054 908 OFFCURVE",
"3054 707 CURVE SMOOTH",
"3054 -97 LINE",
"2939 -105 OFFCURVE",
"2826 -121 OFFCURVE",
"2717 -146 CURVE"
);
},
{
closed = 1;
nodes = (
"3979 -214 OFFCURVE",
"3866 -180 OFFCURVE",
"3751 -154 CURVE",
"3751 630 LINE SMOOTH",
"3751 887 OFFCURVE",
"3802 967 OFFCURVE",
"3933 967 CURVE SMOOTH",
"4045 967 OFFCURVE",
"4088 908 OFFCURVE",
"4088 707 CURVE SMOOTH",
"4088 -255 LINE"
);
}
);
width = 5060;
}
);
note = jv_p_Ma;
unicode = A9C4;
},
{
glyphname = jv_p_Luh;
lastChange = "2016-11-10 17:42:50 +0000";
layers = (
{
layerId = "FB35F625-CAB4-4F3A-B203-D3E168293E5E";
paths = (
{
closed = 1;
nodes = (
"2394 -1118 OFFCURVE",
"2717 -957 OFFCURVE",
"2717 -660 CURVE SMOOTH",
"2717 -267 LINE",
"2830 -241 OFFCURVE",
"2943 -223 OFFCURVE",
"3054 -214 CURVE",
"3054 -809 LINE SMOOTH",
"3054 -1015 OFFCURVE",
"3141 -1118 OFFCURVE",
"3315 -1118 CURVE",
"3322 -1084 OFFCURVE",
"3326 -1059 OFFCURVE",
"3326 -1043 CURVE SMOOTH",
"3326 -1023 OFFCURVE",
"3322 -998 OFFCURVE",
"3315 -969 CURVE",
"3254 -969 OFFCURVE",
"3224 -913 OFFCURVE",
"3224 -801 CURVE SMOOTH",
"3224 -209 LINE",
"3363 -210 OFFCURVE",
"3501 -224 OFFCURVE",
"3637 -249 CURVE",
"3637 -681 LINE SMOOTH",
"3637 -778 OFFCURVE",
"3631 -847 OFFCURVE",
"3619 -886 CURVE SMOOTH",
"3594 -965 OFFCURVE",
"3537 -1003 OFFCURVE",
"3417 -1003 CURVE",
"3412 -1026 OFFCURVE",
"3409 -1045 OFFCURVE",
"3409 -1061 CURVE SMOOTH",
"3409 -1076 OFFCURVE",
"3412 -1095 OFFCURVE",
"3417 -1118 CURVE",
"3500 -1118 OFFCURVE",
"3566 -1104 OFFCURVE",
"3614 -1075 CURVE SMOOTH",
"3709 -1019 OFFCURVE",
"3751 -925 OFFCURVE",
"3751 -693 CURVE SMOOTH",
"3751 -273 LINE",
"3868 -300 OFFCURVE",
"3981 -335 OFFCURVE",
"4088 -378 CURVE",
"4088 -809 LINE SMOOTH",
"4088 -1015 OFFCURVE",
"4175 -1118 OFFCURVE",
"4349 -1118 CURVE",
"4356 -1084 OFFCURVE",
"4360 -1059 OFFCURVE",
"4360 -1043 CURVE SMOOTH",
"4360 -1023 OFFCURVE",
"4356 -998 OFFCURVE",
"4349 -969 CURVE",
"4288 -969 OFFCURVE",
"4258 -913 OFFCURVE",
"4258 -801 CURVE SMOOTH",
"4258 -453 LINE",
"4473 -558 OFFCURVE",
"4651 -689 OFFCURVE",
"4794 -845 CURVE",
"4686 -853 OFFCURVE",
"4579 -916 OFFCURVE",
"4508 -1019 CURVE",
"4531 -1058 OFFCURVE",
"4541 -1067 OFFCURVE",
"4577 -1088 CURVE",
"4632 -1020 OFFCURVE",
"4732 -959 OFFCURVE",
"4800 -959 CURVE SMOOTH",
"4845 -959 OFFCURVE",
"4902 -985 OFFCURVE",
"4937 -1034 CURVE",
"4952 -1059 LINE",
"5008 -1036 OFFCURVE",
"5021 -1028 OFFCURVE",
"5050 -999 CURVE",
"4883 -726 OFFCURVE",
"4605 -491 OFFCURVE",
"4258 -327 CURVE",
"4258 715 LINE SMOOTH",
"4258 984 OFFCURVE",
"4163 1118 OFFCURVE",
"3973 1118 CURVE SMOOTH",
"3758 1118 OFFCURVE",
"3637 948 OFFCURVE",
"3637 657 CURVE SMOOTH",
"3637 -131 LINE",
"3497 -106 OFFCURVE",
"3359 -93 OFFCURVE",
"3224 -92 CURVE",
"3224 715 LINE SMOOTH",
"3224 984 OFFCURVE",
"3129 1118 OFFCURVE",
"2939 1118 CURVE SMOOTH",
"2724 1118 OFFCURVE",
"2603 948 OFFCURVE",
"2603 657 CURVE SMOOTH",
"2603 -174 LINE",
"2299 -258 OFFCURVE",
"2049 -390 OFFCURVE",
"1898 -550 CURVE",
"1918 -588 OFFCURVE",
"1943 -617 OFFCURVE",
"1973 -637 CURVE",
"2022 -585 OFFCURVE",
"2082 -537 OFFCURVE",
"2153 -492 CURVE",
"2288 -509 OFFCURVE",
"2371 -574 OFFCURVE",
"2371 -647 CURVE SMOOTH",
"2371 -727 OFFCURVE",
"2276 -786 OFFCURVE",
"2129 -786 CURVE SMOOTH",
"1910 -786 OFFCURVE",
"1736 -674 OFFCURVE",
"1736 -526 CURVE SMOOTH",
"1736 -334 OFFCURVE",
"1987 -190 OFFCURVE",
"2395 -170 CURVE",
"2400 -147 OFFCURVE",
"2403 -128 OFFCURVE",
"2403 -113 CURVE SMOOTH",
"2403 -97 OFFCURVE",
"2400 -78 OFFCURVE",
"2395 -55 CURVE",
"1879 -71 OFFCURVE",
"1567 -281 OFFCURVE",
"1567 -537 CURVE SMOOTH",
"1567 -746 OFFCURVE",
"1813 -901 OFFCURVE",
"2104 -901 CURVE SMOOTH",
"2333 -901 OFFCURVE",
"2484 -796 OFFCURVE",
"2484 -652 CURVE SMOOTH",
"2484 -548 OFFCURVE",
"2402 -465 OFFCURVE",
"2255 -434 CURVE",
"2356 -380 OFFCURVE",
"2472 -334 OFFCURVE",
"2603 -297 CURVE",
"2603 -609 LINE SMOOTH",
"2603 -706 OFFCURVE",
"2576 -782 OFFCURVE",
"2523 -837 CURVE SMOOTH",
"2415 -947 OFFCURVE",
"2202 -1003 OFFCURVE",
"1822 -1003 CURVE SMOOTH",
"771 -1003 OFFCURVE",
"165 -552 OFFCURVE",
"165 180 CURVE SMOOTH",
"165 693 OFFCURVE",
"483 1160 OFFCURVE",
"1007 1460 CURVE",
"1002 1508 OFFCURVE",
"986 1531 OFFCURVE",
"950 1556 CURVE",
"814 1493 OFFCURVE",
"671 1386 OFFCURVE",
"521 1233 CURVE SMOOTH",
"221 927 OFFCURVE",
"50 558 OFFCURVE",
"50 190 CURVE SMOOTH",
"50 -65 OFFCURVE",
"118 -294 OFFCURVE",
"255 -498 CURVE SMOOTH",
"527 -906 OFFCURVE",
"1045 -1118 OFFCURVE",
"1766 -1118 CURVE SMOOTH"
);
},
{
closed = 1;
nodes = (
"1487 -20 OFFCURVE",
"1649 92 OFFCURVE",
"1657 299 CURVE",
"1636 306 OFFCURVE",
"1617 309 OFFCURVE",
"1598 309 CURVE SMOOTH",
"1579 309 OFFCURVE",
"1560 306 OFFCURVE",
"1542 299 CURVE",
"1535 184 OFFCURVE",
"1430 131 OFFCURVE",
"1257 131 CURVE SMOOTH",
"1045 131 OFFCURVE",
"957 218 OFFCURVE",
"957 391 CURVE SMOOTH",
"957 1098 LINE",
"787 1098 LINE",
"787 383 LINE SMOOTH",
"787 116 OFFCURVE",
"922 -20 OFFCURVE",
"1215 -20 CURVE SMOOTH"
);
},
{
closed = 1;
nodes = (
"2190 0 LINE",
"2190 715 LINE SMOOTH",
"2190 984 OFFCURVE",
"2091 1118 OFFCURVE",
"1894 1118 CURVE SMOOTH",
"1758 1118 OFFCURVE",
"1662 1054 OFFCURVE",
"1606 926 CURVE",
"1553 1051 OFFCURVE",
"1465 1118 OFFCURVE",
"1357 1118 CURVE SMOOTH",
"1170 1118 OFFCURVE",
"1057 909 OFFCURVE",
"1057 661 CURVE SMOOTH",
"1057 645 LINE",
"1058 630 LINE",
"1078 626 OFFCURVE",
"1095 624 OFFCURVE",
"1109 624 CURVE SMOOTH",
"1125 624 OFFCURVE",
"1143 627 OFFCURVE",
"1162 632 CURVE",
"1167 887 OFFCURVE",
"1233 967 OFFCURVE",
"1358 967 CURVE SMOOTH",
"1485 967 OFFCURVE",
"1550 880 OFFCURVE",
"1554 632 CURVE SMOOTH",
"1554 628 LINE",
"1574 624 OFFCURVE",
"1591 622 OFFCURVE",
"1605 622 CURVE SMOOTH",
"1621 622 OFFCURVE",
"1639 625 OFFCURVE",
"1658 630 CURVE",
"1658 641 LINE SMOOTH",
"1662 890 OFFCURVE",
"1734 967 OFFCURVE",
"1867 967 CURVE SMOOTH",
"1982 967 OFFCURVE",
"2020 880 OFFCURVE",
"2020 707 CURVE SMOOTH",
"2020 0 LINE"
);
},
{
closed = 1;
nodes = (
"2717 630 LINE SMOOTH",
"2717 887 OFFCURVE",
"2768 967 OFFCURVE",
"2899 967 CURVE SMOOTH",
"3011 967 OFFCURVE",
"3054 908 OFFCURVE",
"3054 707 CURVE SMOOTH",
"3054 -97 LINE",
"2939 -105 OFFCURVE",
"2826 -121 OFFCURVE",
"2717 -146 CURVE"
);
},
{
closed = 1;
nodes = (
"3979 -214 OFFCURVE",
"3866 -180 OFFCURVE",
"3751 -154 CURVE",
"3751 630 LINE SMOOTH",
"3751 887 OFFCURVE",
"3802 967 OFFCURVE",
"3933 967 CURVE SMOOTH",
"4045 967 OFFCURVE",
"4088 908 OFFCURVE",
"4088 707 CURVE SMOOTH",
"4088 -255 LINE"
);
}
);
width = 5060;
}
);
note = jv_p_Luh;
unicode = A9C5;
},
{
glyphname = jv_p_Wi;
lastChange = "2016-11-10 17:37:31 +0000";
layers = (
{
layerId = "FB35F625-CAB4-4F3A-B203-D3E168293E5E";
paths = (
{
closed = 1;
nodes = (
"636 1208 OFFCURVE",
"740 1323 OFFCURVE",
"740 1554 CURVE SMOOTH",
"740 1783 OFFCURVE",
"635 1900 OFFCURVE",
"455 1900 CURVE SMOOTH",
"262 1900 OFFCURVE",
"125 1749 OFFCURVE",
"125 1556 CURVE SMOOTH",
"125 1368 OFFCURVE",
"257 1208 OFFCURVE",
"456 1208 CURVE SMOOTH"
);
},
{
closed = 1;
nodes = (
"358 1326 OFFCURVE",
"294 1435 OFFCURVE",
"294 1554 CURVE SMOOTH",
"294 1685 OFFCURVE",
"359 1782 OFFCURVE",
"452 1782 CURVE SMOOTH",
"544 1782 OFFCURVE",
"611 1687 OFFCURVE",
"611 1547 CURVE SMOOTH",
"611 1416 OFFCURVE",
"537 1326 OFFCURVE",
"442 1326 CURVE SMOOTH"
);
}
);
width = 865;
}
);
note = jv_p_Wi;
unicode = A9C6;
},
{
glyphname = jv_p_Pa;
lastChange = "2016-11-10 17:42:50 +0000";
layers = (
{
layerId = "FB35F625-CAB4-4F3A-B203-D3E168293E5E";
paths = (
{
closed = 1;
nodes = (
"435 664 OFFCURVE",
"522 748 OFFCURVE",
"522 851 CURVE SMOOTH",
"522 954 OFFCURVE",
"435 1038 OFFCURVE",
"324 1038 CURVE SMOOTH",
"212 1038 OFFCURVE",
"125 954 OFFCURVE",
"125 851 CURVE SMOOTH",
"125 747 OFFCURVE",
"213 664 OFFCURVE",
"324 664 CURVE SMOOTH"
);
},
{
closed = 1;
nodes = (
"435 63 OFFCURVE",
"522 147 OFFCURVE",
"522 250 CURVE SMOOTH",
"522 353 OFFCURVE",
"435 437 OFFCURVE",
"324 437 CURVE SMOOTH",
"212 437 OFFCURVE",
"125 353 OFFCURVE",
"125 250 CURVE SMOOTH",
"125 146 OFFCURVE",
"213 63 OFFCURVE",
"324 63 CURVE SMOOTH"
);
}
);
width = 647;
}
);
note = jv_p_Pa;
unicode = A9C7;
},
{
glyphname = jv_p_Li;
lastChange = "2016-11-10 17:42:50 +0000";
layers = (
{
layerId = "FB35F625-CAB4-4F3A-B203-D3E168293E5E";
paths = (
{
closed = 1;
nodes = (
"632 -20 OFFCURVE",
"689 102 OFFCURVE",
"689 230 CURVE SMOOTH",
"689 334 OFFCURVE",
"659 457 OFFCURVE",
"600 600 CURVE SMOOTH",
"480 885 OFFCURVE",
"293 1118 OFFCURVE",
"162 1118 CURVE",
"137 1111 OFFCURVE",
"125 1086 OFFCURVE",
"125 1059 CURVE SMOOTH",
"125 1038 OFFCURVE",
"130 1021 OFFCURVE",
"141 1006 CURVE",
"187 989 OFFCURVE",
"242 935 OFFCURVE",
"305 845 CURVE SMOOTH",
"432 665 OFFCURVE",
"535 396 OFFCURVE",
"540 244 CURVE",
"480 336 OFFCURVE",
"425 374 OFFCURVE",
"330 401 CURVE",
"305 394 OFFCURVE",
"293 369 OFFCURVE",
"293 342 CURVE SMOOTH",
"293 321 OFFCURVE",
"298 304 OFFCURVE",
"309 289 CURVE",
"347 278 OFFCURVE",
"382 256 OFFCURVE",
"414 225 CURVE SMOOTH",
"446 193 OFFCURVE",
"497 111 OFFCURVE",
"568 -20 CURVE"
);
}
);
width = 814;
}
);
note = jv_p_Li;
unicode = A9C8;
},
{
glyphname = jv_p_Lun;
lastChange = "2016-11-10 17:42:50 +0000";
layers = (
{
layerId = "FB35F625-CAB4-4F3A-B203-D3E168293E5E";
paths = (
{
closed = 1;
nodes = (
"1165 -20 OFFCURVE",
"1222 102 OFFCURVE",
"1222 230 CURVE SMOOTH",
"1222 334 OFFCURVE",
"1192 457 OFFCURVE",
"1133 600 CURVE SMOOTH",
"1013 885 OFFCURVE",
"826 1118 OFFCURVE",
"695 1118 CURVE",
"670 1111 OFFCURVE",
"658 1086 OFFCURVE",
"658 1059 CURVE SMOOTH",
"658 1038 OFFCURVE",
"663 1021 OFFCURVE",
"674 1006 CURVE",
"720 989 OFFCURVE",
"775 935 OFFCURVE",
"838 845 CURVE SMOOTH",
"965 665 OFFCURVE",
"1068 396 OFFCURVE",
"1073 244 CURVE",
"1013 336 OFFCURVE",
"958 374 OFFCURVE",
"863 401 CURVE",
"838 394 OFFCURVE",
"826 369 OFFCURVE",
"826 342 CURVE SMOOTH",
"826 321 OFFCURVE",
"831 304 OFFCURVE",
"842 289 CURVE",
"880 278 OFFCURVE",
"915 256 OFFCURVE",
"947 225 CURVE SMOOTH",
"979 193 OFFCURVE",
"1030 111 OFFCURVE",
"1101 -20 CURVE"
);
},
{
closed = 1;
nodes = (
"632 -20 OFFCURVE",
"689 102 OFFCURVE",
"689 230 CURVE SMOOTH",
"689 334 OFFCURVE",
"659 457 OFFCURVE",
"600 600 CURVE SMOOTH",
"480 885 OFFCURVE",
"293 1118 OFFCURVE",
"162 1118 CURVE",
"137 1111 OFFCURVE",
"125 1086 OFFCURVE",
"125 1059 CURVE SMOOTH",
"125 1038 OFFCURVE",
"130 1021 OFFCURVE",
"141 1006 CURVE",
"187 989 OFFCURVE",
"242 935 OFFCURVE",
"305 845 CURVE SMOOTH",
"432 665 OFFCURVE",
"535 396 OFFCURVE",
"540 244 CURVE",
"480 336 OFFCURVE",
"425 374 OFFCURVE",
"330 401 CURVE",
"305 394 OFFCURVE",
"293 369 OFFCURVE",
"293 342 CURVE SMOOTH",
"293 321 OFFCURVE",
"298 304 OFFCURVE",
"309 289 CURVE",
"347 278 OFFCURVE",
"382 256 OFFCURVE",
"414 225 CURVE SMOOTH",
"446 193 OFFCURVE",
"497 111 OFFCURVE",
"568 -20 CURVE"
);
}
);
width = 1347;
}
);
note = jv_p_Lun;
unicode = A9C9;
},
{
glyphname = jv_p_Ad;
lastChange = "2016-11-10 17:42:50 +0000";
layers = (
{
layerId = "FB35F625-CAB4-4F3A-B203-D3E168293E5E";
paths = (
{
closed = 1;
nodes = (
"530 -1084 OFFCURVE",
"534 -1059 OFFCURVE",
"534 -1043 CURVE SMOOTH",
"534 -1023 OFFCURVE",
"530 -998 OFFCURVE",
"523 -969 CURVE",
"462 -969 OFFCURVE",
"432 -913 OFFCURVE",
"432 -801 CURVE SMOOTH",
"432 809 LINE SMOOTH",
"432 1015 OFFCURVE",
"347 1118 OFFCURVE",
"176 1118 CURVE",
"169 1084 OFFCURVE",
"165 1059 OFFCURVE",
"165 1043 CURVE SMOOTH",
"165 1023 OFFCURVE",
"169 998 OFFCURVE",
"176 969 CURVE",
"237 969 OFFCURVE",
"267 913 OFFCURVE",
"267 801 CURVE SMOOTH",
"267 -809 LINE SMOOTH",
"267 -1015 OFFCURVE",
"352 -1118 OFFCURVE",
"523 -1118 CURVE"
);
}
);
width = 699;
}
);
note = jv_p_Ad;
unicode = A9CA;
},
{
glyphname = jv_p_AdAd;
lastChange = "2016-11-10 17:42:50 +0000";
layers = (
{
layerId = "FB35F625-CAB4-4F3A-B203-D3E168293E5E";
paths = (
{
closed = 1;
nodes = (
"918 -1084 OFFCURVE",
"922 -1059 OFFCURVE",
"922 -1043 CURVE SMOOTH",
"922 -1023 OFFCURVE",
"918 -998 OFFCURVE",
"911 -969 CURVE",
"850 -969 OFFCURVE",
"820 -913 OFFCURVE",
"820 -801 CURVE SMOOTH",
"820 809 LINE SMOOTH",
"820 1015 OFFCURVE",
"735 1118 OFFCURVE",
"564 1118 CURVE",
"557 1084 OFFCURVE",
"553 1059 OFFCURVE",
"553 1043 CURVE SMOOTH",
"553 1023 OFFCURVE",
"557 998 OFFCURVE",
"564 969 CURVE",
"625 969 OFFCURVE",
"655 913 OFFCURVE",
"655 801 CURVE SMOOTH",
"655 -809 LINE SMOOTH",
"655 -1015 OFFCURVE",
"740 -1118 OFFCURVE",
"911 -1118 CURVE"
);
},
{
closed = 1;
nodes = (
"530 -1084 OFFCURVE",
"534 -1059 OFFCURVE",
"534 -1043 CURVE SMOOTH",
"534 -1023 OFFCURVE",
"530 -998 OFFCURVE",
"523 -969 CURVE",
"462 -969 OFFCURVE",
"432 -913 OFFCURVE",
"432 -801 CURVE SMOOTH",
"432 809 LINE SMOOTH",
"432 1015 OFFCURVE",
"347 1118 OFFCURVE",
"176 1118 CURVE",
"169 1084 OFFCURVE",
"165 1059 OFFCURVE",
"165 1043 CURVE SMOOTH",
"165 1023 OFFCURVE",
"169 998 OFFCURVE",
"176 969 CURVE",
"237 969 OFFCURVE",
"267 913 OFFCURVE",
"267 801 CURVE SMOOTH",
"267 -809 LINE SMOOTH",
"267 -1015 OFFCURVE",
"352 -1118 OFFCURVE",
"523 -1118 CURVE"
);
}
);
width = 1087;
}
);
note = jv_p_AdAd;
unicode = A9CB;
},
{
glyphname = jv_p_PiselehOpen;
lastChange = "2016-11-10 17:42:50 +0000";
layers = (
{
layerId = "FB35F625-CAB4-4F3A-B203-D3E168293E5E";
paths = (
{
closed = 1;
nodes = (
"530 -1084 OFFCURVE",
"534 -1059 OFFCURVE",
"534 -1043 CURVE SMOOTH",
"534 -1023 OFFCURVE",
"530 -998 OFFCURVE",
"523 -969 CURVE",
"462 -969 OFFCURVE",
"432 -913 OFFCURVE",
"432 -801 CURVE SMOOTH",
"432 809 LINE SMOOTH",
"432 1015 OFFCURVE",
"347 1118 OFFCURVE",
"176 1118 CURVE",
"169 1084 OFFCURVE",
"165 1059 OFFCURVE",
"165 1043 CURVE SMOOTH",
"165 1023 OFFCURVE",
"169 998 OFFCURVE",
"176 969 CURVE",
"237 969 OFFCURVE",
"267 913 OFFCURVE",
"267 801 CURVE SMOOTH",
"267 -809 LINE SMOOTH",
"267 -1015 OFFCURVE",
"352 -1118 OFFCURVE",
"523 -1118 CURVE"
);
},
{
closed = 1;
nodes = (
"441 1198 OFFCURVE",
"531 1262 OFFCURVE",
"566 1355 CURVE",
"545 1384 OFFCURVE",
"517 1403 OFFCURVE",
"481 1412 CURVE",
"446 1354 OFFCURVE",
"406 1325 OFFCURVE",
"360 1325 CURVE SMOOTH",
"310 1325 OFFCURVE",
"285 1352 OFFCURVE",
"285 1405 CURVE SMOOTH",
"285 1445 OFFCURVE",
"302 1490 OFFCURVE",
"321 1517 CURVE",
"305 1544 OFFCURVE",
"268 1564 OFFCURVE",
"237 1568 CURVE",
"189 1515 OFFCURVE",
"165 1454 OFFCURVE",
"165 1386 CURVE SMOOTH",
"165 1273 OFFCURVE",
"237 1198 OFFCURVE",
"340 1198 CURVE SMOOTH"
);
},
{
closed = 1;
nodes = (
"683 1830 LINE",
"654 1863 OFFCURVE",
"620 1882 OFFCURVE",
"583 1888 CURVE",
"372 1523 LINE",
"399 1492 OFFCURVE",
"432 1472 OFFCURVE",
"472 1465 CURVE"
);
}
);
width = 699;
}
);
note = jv_p_PiselehOpen;
unicode = A9CC;
},
{
glyphname = jv_p_PiselehClose;
lastChange = "2016-11-10 17:42:50 +0000";
layers = (
{
layerId = "FB35F625-CAB4-4F3A-B203-D3E168293E5E";
paths = (
{
closed = 1;
nodes = (
"530 -1084 OFFCURVE",
"534 -1059 OFFCURVE",
"534 -1043 CURVE SMOOTH",
"534 -1023 OFFCURVE",
"530 -998 OFFCURVE",
"523 -969 CURVE",
"462 -969 OFFCURVE",
"432 -913 OFFCURVE",
"432 -801 CURVE SMOOTH",
"432 809 LINE SMOOTH",
"432 1015 OFFCURVE",
"347 1118 OFFCURVE",
"176 1118 CURVE",
"169 1084 OFFCURVE",
"165 1059 OFFCURVE",
"165 1043 CURVE SMOOTH",
"165 1023 OFFCURVE",
"169 998 OFFCURVE",
"176 969 CURVE",
"237 969 OFFCURVE",
"267 913 OFFCURVE",
"267 801 CURVE SMOOTH",
"267 -809 LINE SMOOTH",
"267 -1015 OFFCURVE",
"352 -1118 OFFCURVE",
"523 -1118 CURVE"
);
},
{
closed = 1;
nodes = (
"327 -1523 LINE",
"300 -1492 OFFCURVE",
"267 -1472 OFFCURVE",
"227 -1465 CURVE",
"16 -1830 LINE",
"45 -1863 OFFCURVE",
"79 -1882 OFFCURVE",
"116 -1888 CURVE"
);
},
{
closed = 1;
nodes = (
"510 -1515 OFFCURVE",
"534 -1454 OFFCURVE",
"534 -1386 CURVE SMOOTH",
"534 -1273 OFFCURVE",
"462 -1198 OFFCURVE",
"359 -1198 CURVE SMOOTH",
"258 -1198 OFFCURVE",
"168 -1262 OFFCURVE",
"133 -1355 CURVE",
"154 -1384 OFFCURVE",
"182 -1403 OFFCURVE",
"218 -1412 CURVE",
"253 -1354 OFFCURVE",
"293 -1325 OFFCURVE",
"339 -1325 CURVE SMOOTH",
"389 -1325 OFFCURVE",
"414 -1352 OFFCURVE",
"414 -1405 CURVE SMOOTH",
"414 -1445 OFFCURVE",
"397 -1490 OFFCURVE",
"378 -1517 CURVE",
"394 -1542 OFFCURVE",
"434 -1564 OFFCURVE",
"462 -1568 CURVE"
);
}
);
width = 699;
}
);
note = jv_p_PiselehClose;
unicode = A9CD;
},
{
glyphname = jv_Pangrangkep;
lastChange = "2016-11-10 17:42:50 +0000";
layers = (
{
layerId = "FB35F625-CAB4-4F3A-B203-D3E168293E5E";
paths = (
{
closed = 1;
nodes = (
"511 -20 OFFCURVE",
"531 -16 OFFCURVE",
"547 -7 CURVE",
"571 79 OFFCURVE",
"583 170 OFFCURVE",
"583 265 CURVE SMOOTH",
"583 489 OFFCURVE",
"513 702 OFFCURVE",
"397 871 CURVE",
"450 858 OFFCURVE",
"499 852 OFFCURVE",
"544 852 CURVE SMOOTH",
"716 852 OFFCURVE",
"815 947 OFFCURVE",
"815 1118 CURVE",
"800 1126 OFFCURVE",
"780 1130 OFFCURVE",
"755 1130 CURVE SMOOTH",
"730 1130 OFFCURVE",
"710 1126 OFFCURVE",
"694 1118 CURVE",
"694 1054 OFFCURVE",
"647 1022 OFFCURVE",
"552 1022 CURVE SMOOTH",
"461 1022 OFFCURVE",
"323 1054 OFFCURVE",
"138 1118 CURVE",
"130 1090 OFFCURVE",
"126 1065 OFFCURVE",
"126 1043 CURVE SMOOTH",
"126 1020 OFFCURVE",
"130 995 OFFCURVE",
"138 967 CURVE",
"335 806 OFFCURVE",
"466 523 OFFCURVE",
"466 250 CURVE SMOOTH",
"466 163 OFFCURVE",
"453 77 OFFCURVE",
"426 -7 CURVE",
"443 -16 OFFCURVE",
"464 -20 OFFCURVE",
"487 -20 CURVE SMOOTH"
);
}
);
width = 940;
}
);
note = jv_Pangrangkep;
unicode = A9CF;
},
{
glyphname = jv_zero;
lastChange = "2016-11-10 17:42:50 +0000";
layers = (
{
layerId = "FB35F625-CAB4-4F3A-B203-D3E168293E5E";
paths = (
{
closed = 1;
nodes = (
"936 -19 OFFCURVE",
"1142 229 OFFCURVE",
"1142 548 CURVE SMOOTH",
"1142 873 OFFCURVE",
"934 1119 OFFCURVE",
"630 1119 CURVE SMOOTH",
"317 1119 OFFCURVE",
"125 908 OFFCURVE",
"125 555 CURVE SMOOTH",
"125 198 OFFCURVE",
"323 -19 OFFCURVE",
"635 -19 CURVE SMOOTH"
);
},
{
closed = 1;
nodes = (
"424 95 OFFCURVE",
"294 272 OFFCURVE",
"294 553 CURVE SMOOTH",
"294 833 OFFCURVE",
"421 1005 OFFCURVE",
"630 1005 CURVE SMOOTH",
"854 1005 OFFCURVE",
"1022 808 OFFCURVE",
"1022 552 CURVE SMOOTH",
"1022 283 OFFCURVE",
"867 95 OFFCURVE",
"632 95 CURVE SMOOTH"
);
}
);
width = 1267;
}
);
note = jv_zero;
unicode = A9D0;
},
{
glyphname = jv_one;
lastChange = "2016-11-10 17:42:50 +0000";
layers = (
{
layerId = "FB35F625-CAB4-4F3A-B203-D3E168293E5E";
paths = (
{
closed = 1;
nodes = (
"721 0 LINE",
"721 606 LINE SMOOTH",
"721 867 OFFCURVE",
"785 967 OFFCURVE",
"932 967 CURVE SMOOTH",
"1047 967 OFFCURVE",
"1087 879 OFFCURVE",
"1087 707 CURVE SMOOTH",
"1087 0 LINE",
"1257 0 LINE",
"1257 623 LINE SMOOTH",
"1257 867 OFFCURVE",
"1323 967 OFFCURVE",
"1468 967 CURVE SMOOTH",
"1583 967 OFFCURVE",
"1623 879 OFFCURVE",
"1623 707 CURVE SMOOTH",
"1623 0 LINE",
"1793 0 LINE",
"1793 715 LINE SMOOTH",
"1793 984 OFFCURVE",
"1693 1118 OFFCURVE",
"1492 1118 CURVE SMOOTH",
"1381 1118 OFFCURVE",
"1287 1059 OFFCURVE",
"1231 934 CURVE",
"1226 934 LINE",
"1184 1057 OFFCURVE",
"1094 1118 OFFCURVE",
"956 1118 CURVE SMOOTH",
"845 1118 OFFCURVE",
"751 1059 OFFCURVE",
"695 934 CURVE",
"687 934 LINE",
"644 1057 OFFCURVE",
"555 1118 OFFCURVE",
"420 1118 CURVE SMOOTH",
"201 1118 OFFCURVE",
"80 944 OFFCURVE",
"80 628 CURVE",
"100 624 OFFCURVE",
"117 622 OFFCURVE",
"131 622 CURVE SMOOTH",
"147 622 OFFCURVE",
"165 625 OFFCURVE",
"184 630 CURVE",
"188 891 OFFCURVE",
"257 967 OFFCURVE",
"393 967 CURVE SMOOTH",
"508 967 OFFCURVE",
"551 879 OFFCURVE",
"551 707 CURVE SMOOTH",
"551 0 LINE"
);
}
);
width = 1941;
}
);
note = jv_one;
unicode = A9D1;
},
{
glyphname = jv_two;
lastChange = "2016-11-10 17:42:50 +0000";
layers = (
{
layerId = "FB35F625-CAB4-4F3A-B203-D3E168293E5E";
paths = (
{
closed = 1;
nodes = (
"1431 -1120 OFFCURVE",
"1573 -985 OFFCURVE",
"1573 -693 CURVE SMOOTH",
"1573 -243 LINE",
"1690 -243 LINE SMOOTH",
"1823 -243 OFFCURVE",
"1921 -157 OFFCURVE",
"1921 -36 CURVE",
"1898 -31 OFFCURVE",
"1879 -28 OFFCURVE",
"1862 -28 CURVE SMOOTH",
"1845 -28 OFFCURVE",
"1827 -31 OFFCURVE",
"1807 -36 CURVE",
"1807 -91 OFFCURVE",
"1762 -127 OFFCURVE",
"1699 -130 CURVE",
"1573 -130 LINE",
"1573 715 LINE SMOOTH",
"1573 984 OFFCURVE",
"1473 1118 OFFCURVE",
"1272 1118 CURVE SMOOTH",
"1136 1118 OFFCURVE",
"1040 1054 OFFCURVE",
"984 926 CURVE",
"931 1051 OFFCURVE",
"843 1118 OFFCURVE",
"735 1118 CURVE SMOOTH",
"540 1118 OFFCURVE",
"436 918 OFFCURVE",
"436 630 CURVE",
"456 626 OFFCURVE",
"473 624 OFFCURVE",
"487 624 CURVE SMOOTH",
"503 624 OFFCURVE",
"521 627 OFFCURVE",
"540 632 CURVE",
"545 887 OFFCURVE",
"611 967 OFFCURVE",
"736 967 CURVE SMOOTH",
"863 967 OFFCURVE",
"928 880 OFFCURVE",
"932 632 CURVE SMOOTH",
"932 628 LINE",
"952 624 OFFCURVE",
"969 622 OFFCURVE",
"983 622 CURVE SMOOTH",
"999 622 OFFCURVE",
"1017 625 OFFCURVE",
"1036 630 CURVE",
"1036 641 LINE SMOOTH",
"1040 890 OFFCURVE",
"1112 967 OFFCURVE",
"1245 967 CURVE SMOOTH",
"1360 967 OFFCURVE",
"1403 879 OFFCURVE",
"1403 707 CURVE SMOOTH",
"1403 -129 LINE",
"810 -129 OFFCURVE",
"522 -280 OFFCURVE",
"522 -593 CURVE SMOOTH",
"522 -924 OFFCURVE",
"730 -1120 OFFCURVE",
"1075 -1120 CURVE SMOOTH"
);
},
{
closed = 1;
nodes = (
"838 -1006 OFFCURVE",
"695 -856 OFFCURVE",
"695 -573 CURVE SMOOTH",
"695 -451 OFFCURVE",
"753 -365 OFFCURVE",
"869 -316 CURVE SMOOTH",
"984 -267 OFFCURVE",
"1162 -243 OFFCURVE",
"1403 -243 CURVE",
"1403 -681 LINE SMOOTH",
"1403 -930 OFFCURVE",
"1338 -1006 OFFCURVE",
"1101 -1006 CURVE SMOOTH"
);
},
{
closed = 1;
nodes = (
"865 -20 OFFCURVE",
"1027 92 OFFCURVE",
"1035 299 CURVE",
"1014 306 OFFCURVE",
"995 309 OFFCURVE",
"976 309 CURVE SMOOTH",
"957 309 OFFCURVE",
"938 306 OFFCURVE",
"920 299 CURVE",
"913 184 OFFCURVE",
"808 131 OFFCURVE",
"635 131 CURVE SMOOTH",
"423 131 OFFCURVE",
"335 218 OFFCURVE",
"335 391 CURVE SMOOTH",
"335 1098 LINE",
"165 1098 LINE",
"165 383 LINE SMOOTH",
"165 116 OFFCURVE",
"300 -20 OFFCURVE",
"593 -20 CURVE SMOOTH"
);
}
);
width = 1728;
}
);
note = jv_two;
unicode = A9D2;
},
{
glyphname = jv_three;
lastChange = "2016-11-10 17:42:50 +0000";
layers = (
{
layerId = "FB35F625-CAB4-4F3A-B203-D3E168293E5E";
paths = (
{
closed = 1;
nodes = (
"1741 -1120 OFFCURVE",
"1967 -974 OFFCURVE",
"1967 -693 CURVE SMOOTH",
"1967 630 LINE SMOOTH",
"1967 858 OFFCURVE",
"2021 967 OFFCURVE",
"2169 967 CURVE SMOOTH",
"2284 967 OFFCURVE",
"2334 902 OFFCURVE",
"2334 707 CURVE SMOOTH",
"2334 -809 LINE SMOOTH",
"2334 -1015 OFFCURVE",
"2421 -1118 OFFCURVE",
"2595 -1118 CURVE",
"2602 -1084 OFFCURVE",
"2606 -1059 OFFCURVE",
"2606 -1043 CURVE SMOOTH",
"2606 -1023 OFFCURVE",
"2602 -998 OFFCURVE",
"2595 -969 CURVE",
"2534 -969 OFFCURVE",
"2504 -913 OFFCURVE",
"2504 -801 CURVE SMOOTH",
"2504 715 LINE SMOOTH",
"2504 984 OFFCURVE",
"2406 1118 OFFCURVE",
"2209 1118 CURVE SMOOTH",
"1989 1118 OFFCURVE",
"1853 936 OFFCURVE",
"1853 657 CURVE SMOOTH",
"1853 -681 LINE SMOOTH",
"1853 -894 OFFCURVE",
"1670 -1006 OFFCURVE",
"1374 -1006 CURVE SMOOTH",
"1077 -1006 OFFCURVE",
"870 -850 OFFCURVE",
"870 -591 CURVE SMOOTH",
"870 -315 OFFCURVE",
"1103 -177 OFFCURVE",
"1568 -177 CURVE",
"1573 -154 OFFCURVE",
"1576 -136 OFFCURVE",
"1576 -121 CURVE SMOOTH",
"1576 -105 OFFCURVE",
"1573 -86 OFFCURVE",
"1568 -63 CURVE",
"997 -63 OFFCURVE",
"697 -260 OFFCURVE",
"697 -611 CURVE SMOOTH",
"697 -923 OFFCURVE",
"976 -1120 OFFCURVE",
"1348 -1120 CURVE SMOOTH"
);
},
{
closed = 1;
nodes = (
"865 -20 OFFCURVE",
"1027 92 OFFCURVE",
"1035 299 CURVE",
"1014 306 OFFCURVE",
"995 309 OFFCURVE",
"976 309 CURVE SMOOTH",
"957 309 OFFCURVE",
"938 306 OFFCURVE",
"920 299 CURVE",
"913 184 OFFCURVE",
"808 131 OFFCURVE",
"635 131 CURVE SMOOTH",
"423 131 OFFCURVE",
"335 218 OFFCURVE",
"335 391 CURVE SMOOTH",
"335 1098 LINE",
"165 1098 LINE",
"165 383 LINE SMOOTH",
"165 116 OFFCURVE",
"300 -20 OFFCURVE",
"593 -20 CURVE SMOOTH"
);
},
{
closed = 1;
nodes = (
"1573 0 LINE",
"1573 715 LINE SMOOTH",
"1573 984 OFFCURVE",
"1473 1118 OFFCURVE",
"1272 1118 CURVE SMOOTH",
"1136 1118 OFFCURVE",
"1040 1054 OFFCURVE",
"984 926 CURVE",
"931 1051 OFFCURVE",
"843 1118 OFFCURVE",
"735 1118 CURVE SMOOTH",
"540 1118 OFFCURVE",
"436 918 OFFCURVE",
"436 630 CURVE",
"456 626 OFFCURVE",
"473 624 OFFCURVE",
"487 624 CURVE SMOOTH",
"503 624 OFFCURVE",
"521 627 OFFCURVE",
"540 632 CURVE",
"545 887 OFFCURVE",
"611 967 OFFCURVE",
"736 967 CURVE SMOOTH",
"863 967 OFFCURVE",
"928 880 OFFCURVE",
"932 632 CURVE SMOOTH",
"932 628 LINE",
"952 624 OFFCURVE",
"969 622 OFFCURVE",
"983 622 CURVE SMOOTH",
"999 622 OFFCURVE",
"1017 625 OFFCURVE",
"1036 630 CURVE",
"1036 641 LINE SMOOTH",
"1040 890 OFFCURVE",
"1112 967 OFFCURVE",
"1245 967 CURVE SMOOTH",
"1360 967 OFFCURVE",
"1403 879 OFFCURVE",
"1403 707 CURVE SMOOTH",
"1403 0 LINE"
);
}
);
width = 2686;
}
);
note = jv_three;
unicode = A9D3;
},
{
glyphname = jv_four;
lastChange = "2016-11-10 17:42:50 +0000";
layers = (
{
layerId = "FB35F625-CAB4-4F3A-B203-D3E168293E5E";
paths = (
{
closed = 1;
nodes = (
"908 -20 OFFCURVE",
"1087 118 OFFCURVE",
"1087 289 CURVE SMOOTH",
"1087 378 OFFCURVE",
"1031 441 OFFCURVE",
"918 478 CURVE",
"996 523 OFFCURVE",
"1035 580 OFFCURVE",
"1035 649 CURVE SMOOTH",
"1035 796 OFFCURVE",
"925 896 OFFCURVE",
"769 896 CURVE SMOOTH",
"605 896 OFFCURVE",
"486 792 OFFCURVE",
"486 641 CURVE",
"503 634 OFFCURVE",
"524 631 OFFCURVE",
"549 631 CURVE SMOOTH",
"578 631 OFFCURVE",
"597 634 OFFCURVE",
"606 641 CURVE",
"611 720 OFFCURVE",
"672 776 OFFCURVE",
"749 776 CURVE SMOOTH",
"816 776 OFFCURVE",
"865 732 OFFCURVE",
"865 660 CURVE SMOOTH",
"865 612 OFFCURVE",
"839 577 OFFCURVE",
"788 555 CURVE SMOOTH",
"737 532 OFFCURVE",
"660 520 OFFCURVE",
"558 519 CURVE",
"551 502 OFFCURVE",
"548 481 OFFCURVE",
"548 457 CURVE SMOOTH",
"548 429 OFFCURVE",
"551 410 OFFCURVE",
"558 401 CURVE",
"795 401 OFFCURVE",
"913 355 OFFCURVE",
"913 264 CURVE SMOOTH",
"913 173 OFFCURVE",
"814 100 OFFCURVE",
"669 100 CURVE SMOOTH",
"426 100 OFFCURVE",
"252 282 OFFCURVE",
"252 527 CURVE SMOOTH",
"252 839 OFFCURVE",
"479 998 OFFCURVE",
"920 998 CURVE",
"927 1007 OFFCURVE",
"930 1026 OFFCURVE",
"930 1055 CURVE SMOOTH",
"930 1080 OFFCURVE",
"927 1101 OFFCURVE",
"920 1118 CURVE",
"405 1118 OFFCURVE",
"125 893 OFFCURVE",
"125 509 CURVE SMOOTH",
"125 201 OFFCURVE",
"353 -20 OFFCURVE",
"668 -20 CURVE SMOOTH"
);
}
);
width = 1197;
}
);
note = jv_four;
unicode = A9D4;
},
{
glyphname = jv_five;
lastChange = "2016-11-10 17:42:50 +0000";
layers = (
{
layerId = "FB35F625-CAB4-4F3A-B203-D3E168293E5E";
paths = (
{
closed = 1;
nodes = (
"1473 -1084 OFFCURVE",
"1477 -1059 OFFCURVE",
"1477 -1043 CURVE SMOOTH",
"1477 -1023 OFFCURVE",
"1473 -998 OFFCURVE",
"1466 -969 CURVE",
"1405 -969 OFFCURVE",
"1375 -913 OFFCURVE",
"1375 -801 CURVE SMOOTH",
"1375 624 LINE SMOOTH",
"1375 959 OFFCURVE",
"1176 1118 OFFCURVE",
"768 1118 CURVE SMOOTH",
"361 1118 OFFCURVE",
"125 867 OFFCURVE",
"125 511 CURVE SMOOTH",
"125 192 OFFCURVE",
"348 -20 OFFCURVE",
"665 -20 CURVE SMOOTH",
"910 -20 OFFCURVE",
"1087 120 OFFCURVE",
"1087 289 CURVE SMOOTH",
"1087 378 OFFCURVE",
"1031 441 OFFCURVE",
"918 478 CURVE",
"996 523 OFFCURVE",
"1035 580 OFFCURVE",
"1035 649 CURVE SMOOTH",
"1035 796 OFFCURVE",
"925 896 OFFCURVE",
"769 896 CURVE SMOOTH",
"605 896 OFFCURVE",
"486 792 OFFCURVE",
"486 641 CURVE",
"503 634 OFFCURVE",
"524 631 OFFCURVE",
"549 631 CURVE SMOOTH",
"578 631 OFFCURVE",
"597 634 OFFCURVE",
"606 641 CURVE",
"611 720 OFFCURVE",
"672 776 OFFCURVE",
"749 776 CURVE SMOOTH",
"816 776 OFFCURVE",
"865 732 OFFCURVE",
"865 660 CURVE SMOOTH",
"865 611 OFFCURVE",
"839 576 OFFCURVE",
"787 553 CURVE SMOOTH",
"735 530 OFFCURVE",
"659 519 OFFCURVE",
"558 519 CURVE",
"551 502 OFFCURVE",
"548 481 OFFCURVE",
"548 457 CURVE SMOOTH",
"548 429 OFFCURVE",
"551 410 OFFCURVE",
"558 401 CURVE",
"795 401 OFFCURVE",
"913 355 OFFCURVE",
"913 264 CURVE SMOOTH",
"913 172 OFFCURVE",
"814 100 OFFCURVE",
"667 100 CURVE SMOOTH",
"422 100 OFFCURVE",
"252 278 OFFCURVE",
"252 529 CURVE SMOOTH",
"252 814 OFFCURVE",
"433 996 OFFCURVE",
"750 996 CURVE SMOOTH",
"1058 996 OFFCURVE",
"1205 893 OFFCURVE",
"1205 605 CURVE SMOOTH",
"1205 -809 LINE SMOOTH",
"1205 -1015 OFFCURVE",
"1292 -1118 OFFCURVE",
"1466 -1118 CURVE"
);
}
);
width = 1537;
}
);
note = jv_five;
unicode = A9D5;
},
{
glyphname = jv_six;
lastChange = "2016-11-10 17:42:50 +0000";
layers = (
{
layerId = "FB35F625-CAB4-4F3A-B203-D3E168293E5E";
paths = (
{
closed = 1;
nodes = (
"810 -20 OFFCURVE",
"916 18 OFFCURVE",
"1045 163 CURVE SMOOTH",
"1109 236 OFFCURVE",
"1178 272 OFFCURVE",
"1253 272 CURVE SMOOTH",
"1337 272 OFFCURVE",
"1393 237 OFFCURVE",
"1393 178 CURVE SMOOTH",
"1393 133 OFFCURVE",
"1361 97 OFFCURVE",
"1326 94 CURVE",
"1321 71 OFFCURVE",
"1318 52 OFFCURVE",
"1318 35 CURVE SMOOTH",
"1318 18 OFFCURVE",
"1321 0 OFFCURVE",
"1326 -20 CURVE",
"1426 -20 OFFCURVE",
"1507 69 OFFCURVE",
"1507 173 CURVE SMOOTH",
"1507 290 OFFCURVE",
"1395 377 OFFCURVE",
"1244 377 CURVE SMOOTH",
"1145 377 OFFCURVE",
"1055 333 OFFCURVE",
"972 245 CURVE SMOOTH",
"889 157 OFFCURVE",
"799 113 OFFCURVE",
"700 113 CURVE SMOOTH",
"476 113 OFFCURVE",
"297 290 OFFCURVE",
"297 523 CURVE SMOOTH",
"297 589 OFFCURVE",
"309 654 OFFCURVE",
"334 719 CURVE",
"409 687 OFFCURVE",
"521 661 OFFCURVE",
"633 661 CURVE SMOOTH",
"848 661 OFFCURVE",
"979 744 OFFCURVE",
"979 881 CURVE SMOOTH",
"979 1020 OFFCURVE",
"853 1118 OFFCURVE",
"662 1118 CURVE SMOOTH",
"346 1118 OFFCURVE",
"110 864 OFFCURVE",
"110 553 CURVE SMOOTH",
"110 450 OFFCURVE",
"137 355 OFFCURVE",
"190 267 CURVE SMOOTH",
"296 90 OFFCURVE",
"491 -20 OFFCURVE",
"691 -20 CURVE SMOOTH"
);
},
{
closed = 1;
nodes = (
"565 776 OFFCURVE",
"456 792 OFFCURVE",
"385 821 CURVE",
"457 937 OFFCURVE",
"560 1003 OFFCURVE",
"664 1003 CURVE SMOOTH",
"765 1003 OFFCURVE",
"863 939 OFFCURVE",
"863 870 CURVE SMOOTH",
"863 840 OFFCURVE",
"845 817 OFFCURVE",
"810 801 CURVE SMOOTH",
"775 784 OFFCURVE",
"723 776 OFFCURVE",
"656 776 CURVE SMOOTH"
);
}
);
width = 1517;
}
);
note = jv_six;
unicode = A9D6;
},
{
glyphname = jv_seven;
lastChange = "2016-11-10 17:42:50 +0000";
layers = (
{
layerId = "FB35F625-CAB4-4F3A-B203-D3E168293E5E";
paths = (
{
closed = 1;
nodes = (
"1197 -20 OFFCURVE",
"1318 108 OFFCURVE",
"1318 405 CURVE",
"1317 630 LINE",
"1317 858 OFFCURVE",
"1371 967 OFFCURVE",
"1519 967 CURVE SMOOTH",
"1634 967 OFFCURVE",
"1684 902 OFFCURVE",
"1684 707 CURVE SMOOTH",
"1684 0 LINE",
"1854 0 LINE",
"1854 715 LINE SMOOTH",
"1854 980 OFFCURVE",
"1752 1118 OFFCURVE",
"1556 1118 CURVE SMOOTH",
"1341 1118 OFFCURVE",
"1213 942 OFFCURVE",
"1213 654 CURVE SMOOTH",
"1215 434 LINE SMOOTH",
"1215 342 OFFCURVE",
"1209 277 OFFCURVE",
"1197 240 CURVE SMOOTH",
"1172 164 OFFCURVE",
"1120 131 OFFCURVE",
"985 131 CURVE SMOOTH",
"845 131 OFFCURVE",
"816 222 OFFCURVE",
"816 391 CURVE SMOOTH",
"816 715 LINE SMOOTH",
"816 980 OFFCURVE",
"714 1118 OFFCURVE",
"518 1118 CURVE SMOOTH",
"303 1118 OFFCURVE",
"175 942 OFFCURVE",
"175 654 CURVE SMOOTH",
"175 453 LINE",
"176 230 LINE",
"176 127 LINE",
"177 0 LINE",
"280 0 LINE",
"279 223 LINE",
"279 630 LINE SMOOTH",
"279 858 OFFCURVE",
"333 967 OFFCURVE",
"481 967 CURVE SMOOTH",
"596 967 OFFCURVE",
"646 902 OFFCURVE",
"646 707 CURVE SMOOTH",
"646 383 LINE SMOOTH",
"646 108 OFFCURVE",
"733 -20 OFFCURVE",
"942 -20 CURVE SMOOTH"
);
}
);
width = 2004;
}
);
note = jv_seven;
unicode = A9D7;
},
{
glyphname = jv_nine;
lastChange = "2016-11-10 17:42:50 +0000";
layers = (
{
layerId = "FB35F625-CAB4-4F3A-B203-D3E168293E5E";
paths = (
{
closed = 1;
nodes = (
"616 -20 OFFCURVE",
"707 122 OFFCURVE",
"707 405 CURVE SMOOTH",
"707 630 LINE SMOOTH",
"707 723 OFFCURVE",
"710 791 OFFCURVE",
"715 834 CURVE SMOOTH",
"725 919 OFFCURVE",
"756 967 OFFCURVE",
"832 967 CURVE SMOOTH",
"879 967 OFFCURVE",
"913 948 OFFCURVE",
"934 910 CURVE SMOOTH",
"955 871 OFFCURVE",
"965 804 OFFCURVE",
"965 707 CURVE SMOOTH",
"965 383 LINE SMOOTH",
"965 119 OFFCURVE",
"1059 -20 OFFCURVE",
"1238 -20 CURVE SMOOTH",
"1421 -20 OFFCURVE",
"1512 122 OFFCURVE",
"1512 405 CURVE SMOOTH",
"1512 629 LINE SMOOTH",
"1512 722 OFFCURVE",
"1515 790 OFFCURVE",
"1520 833 CURVE SMOOTH",
"1530 918 OFFCURVE",
"1561 967 OFFCURVE",
"1637 967 CURVE SMOOTH",
"1684 967 OFFCURVE",
"1718 948 OFFCURVE",
"1739 910 CURVE SMOOTH",
"1760 871 OFFCURVE",
"1770 804 OFFCURVE",
"1770 707 CURVE SMOOTH",
"1770 0 LINE",
"1940 0 LINE",
"1940 715 LINE SMOOTH",
"1940 967 OFFCURVE",
"1836 1118 OFFCURVE",
"1667 1118 CURVE SMOOTH",
"1500 1118 OFFCURVE",
"1409 962 OFFCURVE",
"1409 654 CURVE SMOOTH",
"1409 434 LINE SMOOTH",
"1409 305 OFFCURVE",
"1398 223 OFFCURVE",
"1377 186 CURVE SMOOTH",
"1355 149 OFFCURVE",
"1317 131 OFFCURVE",
"1264 131 CURVE SMOOTH",
"1155 131 OFFCURVE",
"1135 226 OFFCURVE",
"1135 391 CURVE SMOOTH",
"1135 715 LINE SMOOTH",
"1135 967 OFFCURVE",
"1031 1118 OFFCURVE",
"862 1118 CURVE SMOOTH",
"695 1118 OFFCURVE",
"604 962 OFFCURVE",
"604 654 CURVE SMOOTH",
"604 434 LINE SMOOTH",
"604 305 OFFCURVE",
"593 223 OFFCURVE",
"572 186 CURVE SMOOTH",
"550 149 OFFCURVE",
"512 131 OFFCURVE",
"459 131 CURVE SMOOTH",
"350 131 OFFCURVE",
"330 226 OFFCURVE",
"330 391 CURVE SMOOTH",
"330 1098 LINE",
"160 1098 LINE",
"160 383 LINE SMOOTH",
"160 119 OFFCURVE",
"254 -20 OFFCURVE",
"433 -20 CURVE SMOOTH"
);
}
);
width = 2090;
}
);
note = jv_nine;
unicode = A9D9;
},
{
glyphname = jv_p_TiTu;
lastChange = "2016-11-10 17:42:50 +0000";
layers = (
{
layerId = "FB35F625-CAB4-4F3A-B203-D3E168293E5E";
paths = (
{
closed = 1;
nodes = (
"923 -19 OFFCURVE",
"1116 164 OFFCURVE",
"1116 440 CURVE SMOOTH",
"1116 709 OFFCURVE",
"931 967 OFFCURVE",
"631 1119 CURVE",
"356 978 OFFCURVE",
"160 695 OFFCURVE",
"160 438 CURVE SMOOTH",
"160 175 OFFCURVE",
"347 -19 OFFCURVE",
"638 -19 CURVE SMOOTH"
);
},
{
closed = 1;
nodes = (
"458 121 OFFCURVE",
"330 249 OFFCURVE",
"330 438 CURVE SMOOTH",
"330 674 OFFCURVE",
"430 863 OFFCURVE",
"631 1005 CURVE",
"854 856 OFFCURVE",
"987 645 OFFCURVE",
"987 438 CURVE SMOOTH",
"987 254 OFFCURVE",
"838 121 OFFCURVE",
"647 121 CURVE SMOOTH"
);
}
);
width = 1276;
}
);
note = jv_p_TiTu;
unicode = A9DE;
},
{
glyphname = jv_p_IsIs;
lastChange = "2016-11-10 17:42:50 +0000";
layers = (
{
layerId = "FB35F625-CAB4-4F3A-B203-D3E168293E5E";
paths = (
{
closed = 1;
nodes = (
"281 0 LINE",
"280 217 LINE",
"280 630 LINE SMOOTH",
"280 863 OFFCURVE",
"345 967 OFFCURVE",
"502 967 CURVE SMOOTH",
"641 967 OFFCURVE",
"695 899 OFFCURVE",
"695 707 CURVE SMOOTH",
"695 0 LINE",
"865 0 LINE",
"865 606 LINE SMOOTH",
"865 866 OFFCURVE",
"936 967 OFFCURVE",
"1097 967 CURVE SMOOTH",
"1226 967 OFFCURVE",
"1279 883 OFFCURVE",
"1279 707 CURVE SMOOTH",
"1279 0 LINE",
"1449 0 LINE",
"1449 715 LINE SMOOTH",
"1449 984 OFFCURVE",
"1340 1118 OFFCURVE",
"1123 1118 CURVE SMOOTH",
"1002 1118 OFFCURVE",
"899 1059 OFFCURVE",
"836 934 CURVE",
"830 934 LINE",
"783 1057 OFFCURVE",
"687 1118 OFFCURVE",
"543 1118 CURVE SMOOTH",
"308 1118 OFFCURVE",
"165 945 OFFCURVE",
"165 654 CURVE SMOOTH",
"165 453 LINE",
"166 228 LINE",
"166 0 LINE"
);
}
);
width = 1614;
}
);
note = jv_p_IsIs;
unicode = A9DF;
},
{
glyphname = jv_Ha_pas;
lastChange = "2016-11-10 17:42:50 +0000";
layers = (
{
layerId = "FB35F625-CAB4-4F3A-B203-D3E168293E5E";
paths = (
{
closed = 1;
nodes = (
"261 0 OFFCURVE",
"264 18 OFFCURVE",
"264 35 CURVE SMOOTH",
"264 52 OFFCURVE",
"261 71 OFFCURVE",
"256 94 CURVE",
"221 97 OFFCURVE",
"189 127 OFFCURVE",
"189 184 CURVE SMOOTH",
"189 243 OFFCURVE",
"224 272 OFFCURVE",
"294 272 CURVE SMOOTH",
"376 272 OFFCURVE",
"460 223 OFFCURVE",
"546 126 CURVE SMOOTH",
"632 29 OFFCURVE",
"715 -20 OFFCURVE",
"794 -20 CURVE SMOOTH",
"949 -20 OFFCURVE",
"1044 143 OFFCURVE",
"1044 383 CURVE SMOOTH",
"1044 630 LINE SMOOTH",
"1044 863 OFFCURVE",
"1109 967 OFFCURVE",
"1266 967 CURVE SMOOTH",
"1405 967 OFFCURVE",
"1460 899 OFFCURVE",
"1460 707 CURVE SMOOTH",
"1460 0 LINE",
"1630 0 LINE",
"1630 623 LINE SMOOTH",
"1630 863 OFFCURVE",
"1701 967 OFFCURVE",
"1862 967 CURVE SMOOTH",
"1991 967 OFFCURVE",
"2045 883 OFFCURVE",
"2045 707 CURVE SMOOTH",
"2045 0 LINE",
"2215 0 LINE",
"2215 715 LINE SMOOTH",
"2215 984 OFFCURVE",
"2106 1118 OFFCURVE",
"1888 1118 CURVE SMOOTH",
"1767 1118 OFFCURVE",
"1664 1059 OFFCURVE",
"1601 934 CURVE",
"1595 934 LINE",
"1548 1057 OFFCURVE",
"1452 1118 OFFCURVE",
"1307 1118 CURVE SMOOTH",
"1072 1118 OFFCURVE",
"929 945 OFFCURVE",
"929 654 CURVE SMOOTH",
"931 434 LINE SMOOTH",
"931 315 OFFCURVE",
"920 232 OFFCURVE",
"899 185 CURVE SMOOTH",
"878 137 OFFCURVE",
"842 113 OFFCURVE",
"792 113 CURVE SMOOTH",
"739 113 OFFCURVE",
"687 145 OFFCURVE",
"634 209 CURVE SMOOTH",
"528 337 OFFCURVE",
"433 377 OFFCURVE",
"312 377 CURVE SMOOTH",
"176 377 OFFCURVE",
"75 292 OFFCURVE",
"75 175 CURVE SMOOTH",
"75 68 OFFCURVE",
"160 -17 OFFCURVE",
"256 -20 CURVE"
);
}
);
width = 2373;
}
);
note = jv_Ha_pas;
},
{
glyphname = jv_Na_pas;
lastChange = "2016-11-10 17:42:50 +0000";
layers = (
{
layerId = "FB35F625-CAB4-4F3A-B203-D3E168293E5E";
paths = (
{
closed = 1;
nodes = (
"-309 -1120 OFFCURVE",
"-160 -992 OFFCURVE",
"-160 -693 CURVE SMOOTH",
"-160 -243 LINE",
"-43 -243 LINE SMOOTH",
"92 -243 OFFCURVE",
"188 -155 OFFCURVE",
"188 -36 CURVE",
"165 -31 OFFCURVE",
"146 -28 OFFCURVE",
"129 -28 CURVE SMOOTH",
"114 -28 OFFCURVE",
"95 -31 OFFCURVE",
"74 -36 CURVE",
"74 -92 OFFCURVE",
"30 -130 OFFCURVE",
"-34 -130 CURVE SMOOTH",
"-160 -130 LINE",
"-160 22 LINE",
"-330 22 LINE",
"-330 -129 LINE",
"-927 -129 OFFCURVE",
"-1211 -281 OFFCURVE",
"-1211 -593 CURVE SMOOTH",
"-1211 -922 OFFCURVE",
"-1002 -1120 OFFCURVE",
"-658 -1120 CURVE SMOOTH"
);
},
{
closed = 1;
nodes = (
"-896 -1006 OFFCURVE",
"-1038 -858 OFFCURVE",
"-1038 -573 CURVE SMOOTH",
"-1038 -456 OFFCURVE",
"-985 -372 OFFCURVE",
"-880 -322 CURVE SMOOTH",
"-775 -272 OFFCURVE",
"-592 -246 OFFCURVE",
"-331 -243 CURVE",
"-331 -681 LINE SMOOTH",
"-331 -933 OFFCURVE",
"-393 -1006 OFFCURVE",
"-632 -1006 CURVE SMOOTH"
);
}
);
width = 238;
}
);
note = jv_Na_pas;
},
{
glyphname = jv_Ca_pas;
lastChange = "2016-11-10 17:42:50 +0000";
layers = (
{
layerId = "FB35F625-CAB4-4F3A-B203-D3E168293E5E";
paths = (
{
closed = 1;
nodes = (
"-1301 -1157 OFFCURVE",
"-1171 -1023 OFFCURVE",
"-1171 -732 CURVE SMOOTH",
"-1171 -623 LINE SMOOTH",
"-1171 -378 OFFCURVE",
"-1115 -286 OFFCURVE",
"-979 -286 CURVE SMOOTH",
"-856 -286 OFFCURVE",
"-814 -361 OFFCURVE",
"-814 -546 CURVE SMOOTH",
"-814 -661 LINE SMOOTH",
"-814 -917 OFFCURVE",
"-749 -1038 OFFCURVE",
"-584 -1038 CURVE SMOOTH",
"-428 -1038 OFFCURVE",
"-350 -927 OFFCURVE",
"-350 -704 CURVE",
"-194 -731 OFFCURVE",
"-114 -816 OFFCURVE",
"-114 -945 CURVE",
"-91 -950 OFFCURVE",
"-72 -953 OFFCURVE",
"-56 -953 CURVE SMOOTH",
"-41 -953 OFFCURVE",
"-23 -950 OFFCURVE",
"0 -945 CURVE",
"-16 -718 OFFCURVE",
"-171 -583 OFFCURVE",
"-422 -583 CURVE SMOOTH",
"-649 -583 LINE",
"-649 -538 LINE SMOOTH",
"-649 -269 OFFCURVE",
"-747 -135 OFFCURVE",
"-942 -135 CURVE SMOOTH",
"-1155 -135 OFFCURVE",
"-1285 -311 OFFCURVE",
"-1285 -599 CURVE SMOOTH",
"-1285 -695 LINE SMOOTH",
"-1285 -947 OFFCURVE",
"-1342 -1042 OFFCURVE",
"-1545 -1042 CURVE SMOOTH",
"-1746 -1042 OFFCURVE",
"-1908 -821 OFFCURVE",
"-1908 -557 CURVE SMOOTH",
"-1908 -273 OFFCURVE",
"-1683 -134 OFFCURVE",
"-1210 -134 CURVE",
"-1205 -111 OFFCURVE",
"-1202 -93 OFFCURVE",
"-1202 -78 CURVE SMOOTH",
"-1202 -62 OFFCURVE",
"-1205 -43 OFFCURVE",
"-1210 -20 CURVE",
"-1786 -20 OFFCURVE",
"-2081 -212 OFFCURVE",
"-2081 -581 CURVE SMOOTH",
"-2081 -902 OFFCURVE",
"-1861 -1157 OFFCURVE",
"-1585 -1157 CURVE SMOOTH"
);
},
{
closed = 1;
nodes = (
"-589 -888 OFFCURVE",
"-613 -874 OFFCURVE",
"-626 -847 CURVE SMOOTH",
"-640 -820 OFFCURVE",
"-648 -770 OFFCURVE",
"-649 -697 CURVE",
"-452 -697 LINE",
"-452 -840 OFFCURVE",
"-478 -888 OFFCURVE",
"-554 -888 CURVE SMOOTH"
);
}
);
width = 0;
}
);
note = jv_Ca_pas;
},
{
glyphname = jv_Ra_pas;
lastChange = "2016-11-10 17:42:50 +0000";
layers = (
{
layerId = "FB35F625-CAB4-4F3A-B203-D3E168293E5E";
paths = (
{
closed = 1;
nodes = (
"-696 -1158 LINE",
"-696 -552 LINE SMOOTH",
"-696 -297 OFFCURVE",
"-631 -191 OFFCURVE",
"-492 -191 CURVE SMOOTH",
"-371 -191 OFFCURVE",
"-330 -266 OFFCURVE",
"-330 -451 CURVE SMOOTH",
"-330 -1158 LINE",
"-160 -1158 LINE",
"-160 -443 LINE SMOOTH",
"-160 -182 OFFCURVE",
"-258 -40 OFFCURVE",
"-453 -40 CURVE SMOOTH",
"-578 -40 OFFCURVE",
"-662 -96 OFFCURVE",
"-722 -224 CURVE",
"-729 -224 LINE",
"-770 -101 OFFCURVE",
"-860 -40 OFFCURVE",
"-1028 -40 CURVE SMOOTH",
"-1227 -40 OFFCURVE",
"-1329 -113 OFFCURVE",
"-1329 -241 CURVE SMOOTH",
"-1329 -338 OFFCURVE",
"-1278 -402 OFFCURVE",
"-1176 -432 CURVE",
"-1157 -401 OFFCURVE",
"-1148 -364 OFFCURVE",
"-1148 -321 CURVE",
"-1193 -302 OFFCURVE",
"-1214 -268 OFFCURVE",
"-1214 -236 CURVE SMOOTH",
"-1214 -176 OFFCURVE",
"-1164 -143 OFFCURVE",
"-1084 -143 CURVE SMOOTH",
"-943 -143 OFFCURVE",
"-866 -247 OFFCURVE",
"-866 -451 CURVE SMOOTH",
"-866 -1158 LINE"
);
}
);
width = 0;
}
);
note = jv_Ra_pas;
},
{
glyphname = jv_Ka_pas;
lastChange = "2016-11-10 17:42:50 +0000";
layers = (
{
layerId = "FB35F625-CAB4-4F3A-B203-D3E168293E5E";
paths = (
{
closed = 1;
nodes = (
"19 -1467 OFFCURVE",
"100 -1374 OFFCURVE",
"100 -1273 CURVE SMOOTH",
"100 -1145 OFFCURVE",
"2 -1063 OFFCURVE",
"-159 -1063 CURVE SMOOTH",
"-285 -1063 LINE SMOOTH",
"-466 -1063 OFFCURVE",
"-523 -987 OFFCURVE",
"-526 -774 CURVE",
"-526 -443 LINE SMOOTH",
"-526 -200 OFFCURVE",
"-674 -40 OFFCURVE",
"-891 -40 CURVE SMOOTH",
"-1130 -40 OFFCURVE",
"-1292 -228 OFFCURVE",
"-1292 -504 CURVE SMOOTH",
"-1292 -781 LINE",
"-1609 -781 LINE",
"-1609 -60 LINE",
"-1779 -60 LINE",
"-1779 -1158 LINE",
"-1609 -1158 LINE",
"-1609 -896 LINE",
"-1292 -896 LINE",
"-1292 -980 LINE SMOOTH",
"-1292 -1087 OFFCURVE",
"-1208 -1178 OFFCURVE",
"-1105 -1178 CURVE SMOOTH",
"-1005 -1178 OFFCURVE",
"-918 -1089 OFFCURVE",
"-918 -980 CURVE SMOOTH",
"-918 -868 OFFCURVE",
"-1002 -781 OFFCURVE",
"-1105 -781 CURVE SMOOTH",
"-1178 -781 LINE",
"-1178 -529 LINE SMOOTH",
"-1178 -298 OFFCURVE",
"-1106 -191 OFFCURVE",
"-930 -191 CURVE SMOOTH",
"-786 -191 OFFCURVE",
"-696 -288 OFFCURVE",
"-696 -451 CURVE SMOOTH",
"-696 -775 LINE SMOOTH",
"-696 -1059 OFFCURVE",
"-603 -1178 OFFCURVE",
"-380 -1178 CURVE SMOOTH",
"-127 -1178 LINE SMOOTH",
"-52 -1178 OFFCURVE",
"-14 -1208 OFFCURVE",
"-14 -1267 CURVE SMOOTH",
"-14 -1323 OFFCURVE",
"-46 -1353 OFFCURVE",
"-81 -1356 CURVE",
"-86 -1379 OFFCURVE",
"-89 -1398 OFFCURVE",
"-89 -1415 CURVE SMOOTH",
"-89 -1430 OFFCURVE",
"-86 -1449 OFFCURVE",
"-81 -1470 CURVE"
);
},
{
closed = 1;
nodes = (
"-1145 -1062 OFFCURVE",
"-1178 -1028 OFFCURVE",
"-1178 -980 CURVE SMOOTH",
"-1178 -896 LINE",
"-1105 -896 LINE SMOOTH",
"-1065 -896 OFFCURVE",
"-1032 -932 OFFCURVE",
"-1032 -980 CURVE SMOOTH",
"-1032 -1028 OFFCURVE",
"-1065 -1062 OFFCURVE",
"-1105 -1062 CURVE SMOOTH"
);
}
);
width = 0;
}
);
note = jv_Ka_pas;
},
{
glyphname = jv_Da_pas;
lastChange = "2016-11-10 17:42:50 +0000";
layers = (
{
layerId = "FB35F625-CAB4-4F3A-B203-D3E168293E5E";
paths = (
{
closed = 1;
nodes = (
"-908 -1187 OFFCURVE",
"-787 -1124 OFFCURVE",
"-647 -999 CURVE SMOOTH",
"-508 -874 OFFCURVE",
"-367 -811 OFFCURVE",
"-226 -811 CURVE SMOOTH",
"-125 -811 OFFCURVE",
"-42 -824 OFFCURVE",
"-7 -839 CURVE",
"-2 -822 OFFCURVE",
"0 -804 OFFCURVE",
"0 -783 CURVE SMOOTH",
"0 -762 OFFCURVE",
"-2 -743 OFFCURVE",
"-7 -725 CURVE",
"-54 -713 OFFCURVE",
"-170 -696 OFFCURVE",
"-247 -696 CURVE SMOOTH",
"-391 -696 OFFCURVE",
"-528 -747 OFFCURVE",
"-648 -842 CURVE SMOOTH",
"-826 -984 LINE SMOOTH",
"-885 -1031 OFFCURVE",
"-946 -1054 OFFCURVE",
"-1007 -1054 CURVE SMOOTH",
"-1072 -1054 OFFCURVE",
"-1086 -1039 OFFCURVE",
"-1093 -954 CURVE",
"-1093 -842 OFFCURVE",
"-1040 -731 OFFCURVE",
"-934 -620 CURVE SMOOTH",
"-723 -400 OFFCURVE",
"-318 -209 OFFCURVE",
"-174 -209 CURVE",
"-167 -176 OFFCURVE",
"-163 -148 OFFCURVE",
"-163 -124 CURVE SMOOTH",
"-163 -97 OFFCURVE",
"-167 -69 OFFCURVE",
"-174 -40 CURVE",
"-307 -40 OFFCURVE",
"-459 -88 OFFCURVE",
"-630 -184 CURVE SMOOTH",
"-972 -376 OFFCURVE",
"-1201 -689 OFFCURVE",
"-1201 -960 CURVE SMOOTH",
"-1201 -1111 OFFCURVE",
"-1137 -1187 OFFCURVE",
"-1009 -1187 CURVE SMOOTH"
);
}
);
width = 0;
}
);
note = jv_Da_pas;
},
{
glyphname = jv_Ta_pas;
lastChange = "2016-11-10 17:42:50 +0000";
layers = (
{
layerId = "FB35F625-CAB4-4F3A-B203-D3E168293E5E";
paths = (
{
closed = 1;
nodes = (
"19 -1467 OFFCURVE",
"100 -1374 OFFCURVE",
"100 -1273 CURVE SMOOTH",
"100 -1145 OFFCURVE",
"2 -1063 OFFCURVE",
"-159 -1063 CURVE SMOOTH",
"-285 -1063 LINE SMOOTH",
"-470 -1063 OFFCURVE",
"-526 -983 OFFCURVE",
"-526 -767 CURVE SMOOTH",
"-526 -457 LINE SMOOTH",
"-526 -180 OFFCURVE",
"-640 -40 OFFCURVE",
"-885 -40 CURVE SMOOTH",
"-1156 -40 OFFCURVE",
"-1354 -224 OFFCURVE",
"-1354 -477 CURVE SMOOTH",
"-1354 -504 OFFCURVE",
"-1348 -528 OFFCURVE",
"-1336 -549 CURVE",
"-1203 -552 OFFCURVE",
"-1175 -572 OFFCURVE",
"-1146 -639 CURVE SMOOTH",
"-1131 -672 OFFCURVE",
"-1124 -726 OFFCURVE",
"-1124 -799 CURVE SMOOTH",
"-1124 -854 LINE SMOOTH",
"-1124 -978 OFFCURVE",
"-1190 -1027 OFFCURVE",
"-1355 -1027 CURVE SMOOTH",
"-1528 -1027 OFFCURVE",
"-1593 -952 OFFCURVE",
"-1593 -767 CURVE SMOOTH",
"-1593 -60 LINE",
"-1763 -60 LINE",
"-1763 -775 LINE SMOOTH",
"-1763 -1052 OFFCURVE",
"-1655 -1178 OFFCURVE",
"-1402 -1178 CURVE SMOOTH",
"-1153 -1178 OFFCURVE",
"-1007 -1052 OFFCURVE",
"-1007 -837 CURVE SMOOTH",
"-1007 -755 LINE SMOOTH",
"-1007 -544 OFFCURVE",
"-1075 -450 OFFCURVE",
"-1243 -429 CURVE",
"-1216 -265 OFFCURVE",
"-1122 -183 OFFCURVE",
"-960 -183 CURVE SMOOTH",
"-785 -183 OFFCURVE",
"-696 -275 OFFCURVE",
"-696 -451 CURVE SMOOTH",
"-696 -775 LINE SMOOTH",
"-696 -1059 OFFCURVE",
"-603 -1178 OFFCURVE",
"-380 -1178 CURVE SMOOTH",
"-127 -1178 LINE SMOOTH",
"-52 -1178 OFFCURVE",
"-14 -1208 OFFCURVE",
"-14 -1267 CURVE SMOOTH",
"-14 -1323 OFFCURVE",
"-46 -1353 OFFCURVE",
"-81 -1356 CURVE",
"-86 -1379 OFFCURVE",
"-89 -1398 OFFCURVE",
"-89 -1415 CURVE SMOOTH",
"-89 -1430 OFFCURVE",
"-86 -1449 OFFCURVE",
"-81 -1470 CURVE"
);
}
);
width = 0;
}
);
note = jv_Ta_pas;
},
{
glyphname = jv_Sa_pas;
lastChange = "2016-11-10 17:42:50 +0000";
layers = (
{
layerId = "FB35F625-CAB4-4F3A-B203-D3E168293E5E";
paths = (
{
closed = 1;
nodes = (
"211 0 OFFCURVE",
"214 18 OFFCURVE",
"214 35 CURVE SMOOTH",
"214 52 OFFCURVE",
"211 71 OFFCURVE",
"206 94 CURVE",
"171 97 OFFCURVE",
"139 127 OFFCURVE",
"139 184 CURVE SMOOTH",
"139 243 OFFCURVE",
"174 272 OFFCURVE",
"244 272 CURVE SMOOTH",
"326 272 OFFCURVE",
"410 223 OFFCURVE",
"496 126 CURVE SMOOTH",
"582 29 OFFCURVE",
"665 -20 OFFCURVE",
"744 -20 CURVE SMOOTH",
"897 -20 OFFCURVE",
"995 142 OFFCURVE",
"995 383 CURVE SMOOTH",
"995 488 LINE",
"1410 488 LINE",
"1410 0 LINE",
"1580 0 LINE",
"1580 486 LINE",
"1651 480 OFFCURVE",
"1709 460 OFFCURVE",
"1754 426 CURVE SMOOTH",
"1842 358 OFFCURVE",
"1877 256 OFFCURVE",
"1877 -12 CURVE",
"1900 -17 OFFCURVE",
"1919 -20 OFFCURVE",
"1935 -20 CURVE SMOOTH",
"1950 -20 OFFCURVE",
"1968 -17 OFFCURVE",
"1991 -12 CURVE",
"1991 427 OFFCURVE",
"1849 602 OFFCURVE",
"1580 602 CURVE",
"1580 715 LINE SMOOTH",
"1580 983 OFFCURVE",
"1469 1118 OFFCURVE",
"1257 1118 CURVE SMOOTH",
"1022 1118 OFFCURVE",
"879 945 OFFCURVE",
"879 654 CURVE SMOOTH",
"879 632 LINE",
"880 601 LINE",
"729 601 OFFCURVE",
"670 642 OFFCURVE",
"670 721 CURVE SMOOTH",
"670 789 OFFCURVE",
"713 821 OFFCURVE",
"836 852 CURVE",
"837 861 LINE",
"837 869 LINE SMOOTH",
"837 898 OFFCURVE",
"828 926 OFFCURVE",
"809 951 CURVE",
"600 890 OFFCURVE",
"529 812 OFFCURVE",
"529 689 CURVE SMOOTH",
"529 553 OFFCURVE",
"624 497 OFFCURVE",
"881 489 CURVE",
"881 434 LINE SMOOTH",
"881 315 OFFCURVE",
"870 232 OFFCURVE",
"849 185 CURVE SMOOTH",
"828 137 OFFCURVE",
"792 113 OFFCURVE",
"742 113 CURVE SMOOTH",
"689 113 OFFCURVE",
"637 145 OFFCURVE",
"584 209 CURVE SMOOTH",
"478 337 OFFCURVE",
"383 377 OFFCURVE",
"262 377 CURVE SMOOTH",
"126 377 OFFCURVE",
"25 292 OFFCURVE",
"25 175 CURVE SMOOTH",
"25 68 OFFCURVE",
"110 -17 OFFCURVE",
"206 -20 CURVE"
);
},
{
closed = 1;
nodes = (
"994 630 LINE SMOOTH",
"994 863 OFFCURVE",
"1059 967 OFFCURVE",
"1216 967 CURVE SMOOTH",
"1355 967 OFFCURVE",
"1410 899 OFFCURVE",
"1410 707 CURVE SMOOTH",
"1410 602 LINE",
"994 602 LINE"
);
}
);
width = 2015;
}
);
note = jv_Sa_pas;
},
{
glyphname = jv_Wa_pas;
lastChange = "2016-11-10 17:42:50 +0000";
layers = (
{
layerId = "FB35F625-CAB4-4F3A-B203-D3E168293E5E";
paths = (
{
closed = 1;
nodes = (
"-186 -1154 OFFCURVE",
"-48 -937 OFFCURVE",
"-48 -450 CURVE SMOOTH",
"-48 -414 LINE",
"-67 -408 OFFCURVE",
"-86 -405 OFFCURVE",
"-104 -405 CURVE SMOOTH",
"-123 -405 OFFCURVE",
"-143 -408 OFFCURVE",
"-163 -414 CURVE",
"-163 -456 LINE SMOOTH",
"-163 -843 OFFCURVE",
"-259 -1037 OFFCURVE",
"-451 -1037 CURVE SMOOTH",
"-660 -1037 OFFCURVE",
"-862 -807 OFFCURVE",
"-862 -568 CURVE SMOOTH",
"-862 -292 OFFCURVE",
"-629 -154 OFFCURVE",
"-164 -154 CURVE",
"-159 -131 OFFCURVE",
"-156 -113 OFFCURVE",
"-156 -98 CURVE SMOOTH",
"-156 -82 OFFCURVE",
"-159 -63 OFFCURVE",
"-164 -40 CURVE",
"-723 -40 OFFCURVE",
"-1035 -235 OFFCURVE",
"-1035 -586 CURVE SMOOTH",
"-1035 -687 OFFCURVE",
"-1009 -781 OFFCURVE",
"-957 -869 CURVE SMOOTH",
"-854 -1045 OFFCURVE",
"-662 -1154 OFFCURVE",
"-469 -1154 CURVE SMOOTH"
);
}
);
width = 0;
}
);
note = jv_Wa_pas;
},
{
glyphname = jv_La_pas;
lastChange = "2016-11-10 17:42:50 +0000";
layers = (
{
layerId = "FB35F625-CAB4-4F3A-B203-D3E168293E5E";
paths = (
{
closed = 1;
nodes = (
"19 -1467 OFFCURVE",
"100 -1374 OFFCURVE",
"100 -1273 CURVE SMOOTH",
"100 -1145 OFFCURVE",
"2 -1063 OFFCURVE",
"-159 -1063 CURVE SMOOTH",
"-285 -1063 LINE SMOOTH",
"-470 -1063 OFFCURVE",
"-526 -983 OFFCURVE",
"-526 -767 CURVE SMOOTH",
"-526 -443 LINE SMOOTH",
"-526 -200 OFFCURVE",
"-674 -40 OFFCURVE",
"-891 -40 CURVE SMOOTH",
"-1130 -40 OFFCURVE",
"-1292 -228 OFFCURVE",
"-1292 -504 CURVE SMOOTH",
"-1292 -1158 LINE",
"-1178 -1158 LINE",
"-1178 -529 LINE SMOOTH",
"-1178 -298 OFFCURVE",
"-1106 -191 OFFCURVE",
"-930 -191 CURVE SMOOTH",
"-786 -191 OFFCURVE",
"-696 -288 OFFCURVE",
"-696 -451 CURVE SMOOTH",
"-696 -775 LINE SMOOTH",
"-696 -1059 OFFCURVE",
"-603 -1178 OFFCURVE",
"-380 -1178 CURVE SMOOTH",
"-127 -1178 LINE SMOOTH",
"-52 -1178 OFFCURVE",
"-14 -1208 OFFCURVE",
"-14 -1267 CURVE SMOOTH",
"-14 -1323 OFFCURVE",
"-46 -1353 OFFCURVE",
"-81 -1356 CURVE",
"-86 -1379 OFFCURVE",
"-89 -1398 OFFCURVE",
"-89 -1415 CURVE SMOOTH",
"-89 -1430 OFFCURVE",
"-86 -1449 OFFCURVE",
"-81 -1470 CURVE"
);
}
);
width = 0;
}
);
note = jv_La_pas;
},
{
glyphname = jv_Pa_pas;
lastChange = "2016-11-10 17:42:50 +0000";
layers = (
{
layerId = "FB35F625-CAB4-4F3A-B203-D3E168293E5E";
paths = (
{
closed = 1;
nodes = (
"211 1 OFFCURVE",
"214 20 OFFCURVE",
"214 35 CURVE SMOOTH",
"214 52 OFFCURVE",
"211 71 OFFCURVE",
"206 94 CURVE",
"171 97 OFFCURVE",
"139 127 OFFCURVE",
"139 184 CURVE SMOOTH",
"139 243 OFFCURVE",
"174 272 OFFCURVE",
"244 272 CURVE SMOOTH",
"326 272 OFFCURVE",
"410 223 OFFCURVE",
"496 126 CURVE SMOOTH",
"582 29 OFFCURVE",
"665 -20 OFFCURVE",
"744 -20 CURVE SMOOTH",
"896 -20 OFFCURVE",
"995 139 OFFCURVE",
"995 383 CURVE SMOOTH",
"995 630 LINE SMOOTH",
"995 867 OFFCURVE",
"1060 967 OFFCURVE",
"1216 967 CURVE SMOOTH",
"1357 967 OFFCURVE",
"1410 895 OFFCURVE",
"1410 707 CURVE SMOOTH",
"1410 0 LINE",
"1580 0 LINE",
"1580 715 LINE SMOOTH",
"1580 984 OFFCURVE",
"1472 1118 OFFCURVE",
"1257 1118 CURVE SMOOTH",
"1022 1118 OFFCURVE",
"879 943 OFFCURVE",
"879 654 CURVE SMOOTH",
"879 434 LINE SMOOTH",
"879 314 OFFCURVE",
"869 231 OFFCURVE",
"849 184 CURVE SMOOTH",
"828 137 OFFCURVE",
"793 113 OFFCURVE",
"742 113 CURVE SMOOTH",
"689 113 OFFCURVE",
"636 145 OFFCURVE",
"585 208 CURVE SMOOTH",
"481 334 OFFCURVE",
"383 377 OFFCURVE",
"262 377 CURVE SMOOTH",
"127 377 OFFCURVE",
"25 292 OFFCURVE",
"25 175 CURVE SMOOTH",
"25 74 OFFCURVE",
"105 -17 OFFCURVE",
"206 -20 CURVE"
);
}
);
width = 1740;
}
);
note = jv_Pa_pas;
},
{
glyphname = jv_Dda_pas;
lastChange = "2016-11-10 17:42:50 +0000";
layers = (
{
layerId = "FB35F625-CAB4-4F3A-B203-D3E168293E5E";
paths = (
{
closed = 1;
nodes = (
"-245 -1134 OFFCURVE",
"-60 -875 OFFCURVE",
"-60 -571 CURVE SMOOTH",
"-60 -399 OFFCURVE",
"-122 -203 OFFCURVE",
"-250 -20 CURVE",
"-282 -39 OFFCURVE",
"-305 -58 OFFCURVE",
"-330 -101 CURVE",
"-241 -237 OFFCURVE",
"-179 -423 OFFCURVE",
"-179 -552 CURVE SMOOTH",
"-179 -800 OFFCURVE",
"-315 -1014 OFFCURVE",
"-470 -1014 CURVE SMOOTH",
"-530 -1014 OFFCURVE",
"-566 -985 OFFCURVE",
"-579 -928 CURVE SMOOTH",
"-605 -814 OFFCURVE",
"-663 -715 OFFCURVE",
"-760 -715 CURVE SMOOTH",
"-839 -715 OFFCURVE",
"-890 -762 OFFCURVE",
"-949 -854 CURVE SMOOTH",
"-1008 -947 OFFCURVE",
"-1067 -1003 OFFCURVE",
"-1158 -1003 CURVE SMOOTH",
"-1299 -1003 OFFCURVE",
"-1428 -721 OFFCURVE",
"-1428 -548 CURVE SMOOTH",
"-1428 -296 OFFCURVE",
"-1177 -154 OFFCURVE",
"-730 -154 CURVE",
"-725 -131 OFFCURVE",
"-722 -113 OFFCURVE",
"-722 -98 CURVE SMOOTH",
"-722 -82 OFFCURVE",
"-725 -63 OFFCURVE",
"-730 -40 CURVE",
"-1291 -40 OFFCURVE",
"-1601 -237 OFFCURVE",
"-1601 -577 CURVE SMOOTH",
"-1601 -848 OFFCURVE",
"-1397 -1130 OFFCURVE",
"-1156 -1130 CURVE SMOOTH",
"-1044 -1130 OFFCURVE",
"-969 -1077 OFFCURVE",
"-888 -944 CURVE SMOOTH",
"-847 -878 OFFCURVE",
"-805 -845 OFFCURVE",
"-762 -845 CURVE SMOOTH",
"-722 -845 OFFCURVE",
"-682 -918 OFFCURVE",
"-657 -1004 CURVE SMOOTH",
"-632 -1090 OFFCURVE",
"-578 -1134 OFFCURVE",
"-470 -1134 CURVE SMOOTH"
);
}
);
width = 0;
}
);
note = jv_Dda_pas;
},
{
glyphname = jv_Ja_pas;
lastChange = "2016-11-10 17:42:50 +0000";
layers = (
{
layerId = "FB35F625-CAB4-4F3A-B203-D3E168293E5E";
paths = (
{
closed = 1;
nodes = (
"-963 -1177 OFFCURVE",
"-837 -1160 OFFCURVE",
"-736 -1125 CURVE SMOOTH",
"-535 -1056 OFFCURVE",
"-448 -941 OFFCURVE",
"-448 -824 CURVE SMOOTH",
"-448 -691 OFFCURVE",
"-574 -598 OFFCURVE",
"-770 -585 CURVE",
"-631 -544 OFFCURVE",
"-489 -523 OFFCURVE",
"-344 -523 CURVE SMOOTH",
"-271 -523 OFFCURVE",
"-209 -528 OFFCURVE",
"-158 -539 CURVE",
"-139 -472 OFFCURVE",
"-130 -416 OFFCURVE",
"-130 -371 CURVE",
"-184 -363 OFFCURVE",
"-239 -359 OFFCURVE",
"-294 -359 CURVE SMOOTH",
"-562 -359 OFFCURVE",
"-846 -456 OFFCURVE",
"-1059 -615 CURVE",
"-1066 -629 OFFCURVE",
"-1069 -647 OFFCURVE",
"-1069 -670 CURVE SMOOTH",
"-1069 -694 OFFCURVE",
"-1066 -714 OFFCURVE",
"-1059 -729 CURVE",
"-977 -704 OFFCURVE",
"-898 -692 OFFCURVE",
"-823 -692 CURVE SMOOTH",
"-667 -692 OFFCURVE",
"-563 -749 OFFCURVE",
"-563 -836 CURVE SMOOTH",
"-563 -899 OFFCURVE",
"-609 -951 OFFCURVE",
"-702 -994 CURVE SMOOTH",
"-795 -1037 OFFCURVE",
"-929 -1059 OFFCURVE",
"-1105 -1059 CURVE SMOOTH",
"-1424 -1059 OFFCURVE",
"-1590 -986 OFFCURVE",
"-1590 -822 CURVE SMOOTH",
"-1590 -732 OFFCURVE",
"-1548 -638 OFFCURVE",
"-1463 -540 CURVE SMOOTH",
"-1295 -344 OFFCURVE",
"-1003 -209 OFFCURVE",
"-739 -209 CURVE SMOOTH",
"-733 -209 LINE",
"-726 -176 OFFCURVE",
"-722 -148 OFFCURVE",
"-722 -124 CURVE SMOOTH",
"-722 -97 OFFCURVE",
"-726 -69 OFFCURVE",
"-733 -40 CURVE",
"-892 -41 OFFCURVE",
"-1046 -78 OFFCURVE",
"-1195 -152 CURVE SMOOTH",
"-1492 -301 OFFCURVE",
"-1706 -584 OFFCURVE",
"-1706 -819 CURVE SMOOTH",
"-1706 -1054 OFFCURVE",
"-1510 -1177 OFFCURVE",
"-1115 -1177 CURVE SMOOTH"
);
}
);
width = 0;
}
);
note = jv_Ja_pas;
},
{
glyphname = jv_Ya_pas;
lastChange = "2016-11-10 17:42:50 +0000";
layers = (
{
layerId = "FB35F625-CAB4-4F3A-B203-D3E168293E5E";
paths = (
{
closed = 1;
nodes = (
"-1475 -1178 OFFCURVE",
"-1384 -1036 OFFCURVE",
"-1384 -753 CURVE SMOOTH",
"-1384 -528 LINE SMOOTH",
"-1384 -399 OFFCURVE",
"-1377 -310 OFFCURVE",
"-1362 -262 CURVE SMOOTH",
"-1348 -215 OFFCURVE",
"-1313 -191 OFFCURVE",
"-1258 -191 CURVE SMOOTH",
"-1161 -191 OFFCURVE",
"-1125 -263 OFFCURVE",
"-1125 -451 CURVE SMOOTH",
"-1125 -775 LINE SMOOTH",
"-1125 -1044 OFFCURVE",
"-1036 -1178 OFFCURVE",
"-857 -1178 CURVE SMOOTH",
"-675 -1178 OFFCURVE",
"-584 -1036 OFFCURVE",
"-584 -753 CURVE SMOOTH",
"-584 -528 LINE SMOOTH",
"-584 -395 OFFCURVE",
"-577 -306 OFFCURVE",
"-563 -260 CURVE SMOOTH",
"-549 -214 OFFCURVE",
"-514 -191 OFFCURVE",
"-458 -191 CURVE SMOOTH",
"-409 -191 OFFCURVE",
"-376 -211 OFFCURVE",
"-357 -250 CURVE SMOOTH",
"-339 -290 OFFCURVE",
"-330 -357 OFFCURVE",
"-330 -451 CURVE SMOOTH",
"-330 -1158 LINE",
"-160 -1158 LINE",
"-160 -443 LINE SMOOTH",
"-160 -192 OFFCURVE",
"-259 -40 OFFCURVE",
"-428 -40 CURVE SMOOTH",
"-597 -40 OFFCURVE",
"-688 -195 OFFCURVE",
"-688 -504 CURVE SMOOTH",
"-688 -724 LINE SMOOTH",
"-688 -844 OFFCURVE",
"-697 -924 OFFCURVE",
"-715 -965 CURVE SMOOTH",
"-733 -1006 OFFCURVE",
"-772 -1027 OFFCURVE",
"-831 -1027 CURVE SMOOTH",
"-879 -1027 OFFCURVE",
"-912 -1009 OFFCURVE",
"-931 -972 CURVE SMOOTH",
"-950 -936 OFFCURVE",
"-960 -868 OFFCURVE",
"-960 -767 CURVE SMOOTH",
"-960 -443 LINE SMOOTH",
"-960 -192 OFFCURVE",
"-1059 -40 OFFCURVE",
"-1228 -40 CURVE SMOOTH",
"-1397 -40 OFFCURVE",
"-1488 -195 OFFCURVE",
"-1488 -504 CURVE SMOOTH",
"-1488 -724 LINE SMOOTH",
"-1488 -844 OFFCURVE",
"-1497 -924 OFFCURVE",
"-1515 -965 CURVE SMOOTH",
"-1533 -1006 OFFCURVE",
"-1572 -1027 OFFCURVE",
"-1631 -1027 CURVE SMOOTH",
"-1678 -1027 OFFCURVE",
"-1711 -1009 OFFCURVE",
"-1728 -973 CURVE SMOOTH",
"-1746 -938 OFFCURVE",
"-1755 -869 OFFCURVE",
"-1755 -767 CURVE SMOOTH",
"-1755 -60 LINE",
"-1925 -60 LINE",
"-1925 -775 LINE SMOOTH",
"-1925 -1044 OFFCURVE",
"-1836 -1178 OFFCURVE",
"-1657 -1178 CURVE SMOOTH"
);
}
);
width = 0;
}
);
note = jv_Ya_pas;
},
{
glyphname = jv_Nya_pas;
lastChange = "2016-11-10 17:42:50 +0000";
layers = (
{
layerId = "FB35F625-CAB4-4F3A-B203-D3E168293E5E";
paths = (
{
closed = 1;
nodes = (
"-319 -1118 OFFCURVE",
"-160 -973 OFFCURVE",
"-160 -697 CURVE SMOOTH",
"-160 -420 LINE",
"-118 -420 LINE SMOOTH",
"137 -420 OFFCURVE",
"234 -306 OFFCURVE",
"234 5 CURVE SMOOTH",
"234 630 LINE SMOOTH",
"234 858 OFFCURVE",
"288 967 OFFCURVE",
"436 967 CURVE SMOOTH",
"557 967 OFFCURVE",
"601 891 OFFCURVE",
"601 707 CURVE SMOOTH",
"601 -809 LINE SMOOTH",
"601 -1015 OFFCURVE",
"688 -1118 OFFCURVE",
"862 -1118 CURVE",
"869 -1083 OFFCURVE",
"873 -1058 OFFCURVE",
"873 -1043 CURVE SMOOTH",
"873 -1024 OFFCURVE",
"869 -1000 OFFCURVE",
"862 -969 CURVE",
"801 -969 OFFCURVE",
"771 -913 OFFCURVE",
"771 -801 CURVE SMOOTH",
"771 715 LINE SMOOTH",
"771 984 OFFCURVE",
"673 1118 OFFCURVE",
"476 1118 CURVE SMOOTH",
"261 1118 OFFCURVE",
"120 941 OFFCURVE",
"120 657 CURVE SMOOTH",
"120 17 LINE SMOOTH",
"120 -234 OFFCURVE",
"71 -305 OFFCURVE",
"-102 -305 CURVE SMOOTH",
"-160 -305 LINE",
"-160 22 LINE",
"-330 22 LINE",
"-330 -305 LINE",
"-727 -305 LINE SMOOTH",
"-938 -305 OFFCURVE",
"-1070 -440 OFFCURVE",
"-1070 -643 CURVE SMOOTH",
"-1070 -904 OFFCURVE",
"-859 -1118 OFFCURVE",
"-610 -1118 CURVE SMOOTH"
);
},
{
closed = 1;
nodes = (
"-778 -1004 OFFCURVE",
"-917 -844 OFFCURVE",
"-917 -651 CURVE SMOOTH",
"-917 -506 OFFCURVE",
"-838 -420 OFFCURVE",
"-710 -420 CURVE SMOOTH",
"-330 -420 LINE",
"-330 -739 LINE SMOOTH",
"-330 -916 OFFCURVE",
"-423 -1004 OFFCURVE",
"-610 -1004 CURVE SMOOTH"
);
}
);
width = 973;
}
);
note = jv_Nya_pas;
},
{
glyphname = jv_Ma_pas;
lastChange = "2016-11-10 17:42:50 +0000";
layers = (
{
layerId = "FB35F625-CAB4-4F3A-B203-D3E168293E5E";
paths = (
{
closed = 1;
nodes = (
"-337 -1194 OFFCURVE",
"-80 -968 OFFCURVE",
"-80 -607 CURVE SMOOTH",
"-80 -410 OFFCURVE",
"-143 -221 OFFCURVE",
"-270 -40 CURVE",
"-303 -59 OFFCURVE",
"-329 -86 OFFCURVE",
"-350 -121 CURVE",
"-249 -271 OFFCURVE",
"-199 -429 OFFCURVE",
"-199 -594 CURVE SMOOTH",
"-199 -898 OFFCURVE",
"-390 -1076 OFFCURVE",
"-723 -1076 CURVE SMOOTH",
"-1083 -1076 OFFCURVE",
"-1346 -882 OFFCURVE",
"-1346 -625 CURVE SMOOTH",
"-1346 -551 OFFCURVE",
"-1329 -476 OFFCURVE",
"-1294 -400 CURVE",
"-1219 -452 OFFCURVE",
"-1092 -497 OFFCURVE",
"-1015 -497 CURVE SMOOTH",
"-874 -497 OFFCURVE",
"-736 -391 OFFCURVE",
"-736 -270 CURVE SMOOTH",
"-736 -145 OFFCURVE",
"-873 -40 OFFCURVE",
"-1038 -40 CURVE SMOOTH",
"-1121 -40 OFFCURVE",
"-1199 -65 OFFCURVE",
"-1274 -116 CURVE SMOOTH",
"-1423 -218 OFFCURVE",
"-1519 -404 OFFCURVE",
"-1519 -588 CURVE SMOOTH",
"-1519 -702 OFFCURVE",
"-1486 -805 OFFCURVE",
"-1420 -898 CURVE SMOOTH",
"-1289 -1083 OFFCURVE",
"-1038 -1194 OFFCURVE",
"-753 -1194 CURVE SMOOTH"
);
},
{
closed = 1;
nodes = (
"-1087 -381 OFFCURVE",
"-1192 -341 OFFCURVE",
"-1236 -297 CURVE",
"-1176 -213 OFFCURVE",
"-1095 -155 OFFCURVE",
"-1003 -155 CURVE SMOOTH",
"-934 -155 OFFCURVE",
"-857 -224 OFFCURVE",
"-857 -281 CURVE SMOOTH",
"-857 -338 OFFCURVE",
"-923 -381 OFFCURVE",
"-1011 -381 CURVE SMOOTH"
);
}
);
width = 0;
}
);
note = jv_Ma_pas;
},
{
glyphname = jv_Ga_pas;
lastChange = "2016-11-10 17:42:50 +0000";
layers = (
{
layerId = "FB35F625-CAB4-4F3A-B203-D3E168293E5E";
paths = (
{
closed = 1;
nodes = (
"-1222 -1158 LINE",
"-1222 -552 LINE SMOOTH",
"-1222 -296 OFFCURVE",
"-1162 -191 OFFCURVE",
"-1011 -191 CURVE SMOOTH",
"-896 -191 OFFCURVE",
"-861 -278 OFFCURVE",
"-861 -451 CURVE SMOOTH",
"-861 -1158 LINE",
"-691 -1158 LINE",
"-691 -535 LINE SMOOTH",
"-691 -295 OFFCURVE",
"-627 -191 OFFCURVE",
"-480 -191 CURVE SMOOTH",
"-365 -191 OFFCURVE",
"-330 -278 OFFCURVE",
"-330 -451 CURVE SMOOTH",
"-330 -1158 LINE",
"-160 -1158 LINE",
"-160 -443 LINE SMOOTH",
"-160 -174 OFFCURVE",
"-259 -40 OFFCURVE",
"-456 -40 CURVE SMOOTH",
"-575 -40 OFFCURVE",
"-662 -101 OFFCURVE",
"-717 -224 CURVE",
"-722 -224 LINE",
"-764 -101 OFFCURVE",
"-852 -40 OFFCURVE",
"-987 -40 CURVE SMOOTH",
"-1106 -40 OFFCURVE",
"-1193 -101 OFFCURVE",
"-1248 -224 CURVE",
"-1256 -224 LINE",
"-1299 -101 OFFCURVE",
"-1387 -40 OFFCURVE",
"-1521 -40 CURVE SMOOTH",
"-1736 -40 OFFCURVE",
"-1861 -215 OFFCURVE",
"-1861 -523 CURVE SMOOTH",
"-1861 -532 OFFCURVE",
"-1848 -536 OFFCURVE",
"-1821 -536 CURVE SMOOTH",
"-1810 -536 LINE SMOOTH",
"-1795 -536 OFFCURVE",
"-1777 -533 OFFCURVE",
"-1757 -528 CURVE",
"-1754 -279 OFFCURVE",
"-1697 -191 OFFCURVE",
"-1548 -191 CURVE SMOOTH",
"-1433 -191 OFFCURVE",
"-1392 -279 OFFCURVE",
"-1392 -451 CURVE SMOOTH",
"-1392 -1158 LINE"
);
}
);
width = 0;
}
);
note = jv_Ga_pas;
},
